<svg width="598" height="450" viewBox="0 0 598 450" fill="none" xmlns="http://www.w3.org/2000/svg">
<g clip-path="url(#clip0)">
<path d="M111.305 437.496C90.7352 434.118 71.3715 425.535 55.0547 412.563C35.864 397.452 14.9733 377.09 15.6155 351.818C16.2955 325.034 26.3064 299.232 37.1484 275.092C51.8059 242.491 72.2055 208.114 66.8034 171.81C61.4013 135.506 68.6545 92.0627 87.7696 61.3122C117.991 12.8821 170.879 1.13341 223.767 9.43914e-05C258.711 -0.717669 294.674 1.36007 326.521 15.7531C359.991 30.8639 386.964 58.8189 420.963 71.7765C443.629 80.3141 468.411 82.014 490.586 91.6094C518.503 103.736 540.036 127.762 553.976 154.81C567.916 181.859 575.018 211.891 580.42 241.698C589.26 292.092 568.256 355.029 537.996 396.281C517.823 423.707 484.051 455.478 449.334 448.829C272.575 415.283 306.536 469.191 111.305 437.496Z" fill="#F3F7FF"/>
<path d="M349.942 80.2385L468.373 95.9915L385.15 104.831L349.942 80.2385Z" fill="#4E74FF"/>
<path d="M385.151 104.831L391.46 142.004L401.546 111.14L468.374 95.9914L385.151 104.831Z" fill="#4E74FF"/>
<path d="M385.151 104.831L391.46 142.004L401.546 111.14L468.374 95.9914L385.151 104.831Z" fill="url(#paint0_linear)"/>
<path d="M426.743 145.177L401.545 111.14L468.373 95.9914L426.743 145.177Z" fill="#4E74FF"/>
<path d="M391.459 142.004L415.674 130.18L401.545 111.14L391.459 142.004Z" fill="white"/>
<path opacity="0.59" d="M391.459 142.004L415.674 130.18L401.545 111.14L391.459 142.004Z" fill="#4E74FF"/>
<path d="M371.475 145.593L370.379 140.644C371.657 140.392 372.919 140.064 374.157 139.662L375.895 144.384C374.449 144.882 372.973 145.286 371.475 145.593Z" fill="#4E74FF"/>
<path d="M218.025 375.919C215.267 375.013 212.585 374.106 209.978 373.124L211.716 368.402C214.247 369.346 216.891 370.253 219.574 371.122L218.025 375.919ZM194.225 366.513C191.581 365.228 189.012 363.906 186.67 362.735L189.05 358.164C191.354 359.449 193.81 360.733 196.378 361.942L194.225 366.513ZM398.221 363.415H389.721V358.353L398.07 358.58L398.221 363.415ZM415.221 363.113L414.956 358.089C417.79 358.089 420.585 357.749 423.267 357.484L423.683 362.508C421.038 362.773 418.205 362.962 415.296 363.113H415.221ZM372.835 361.942L364.411 361.073L364.977 356.049C367.773 356.389 370.531 356.653 373.288 356.917L372.835 361.942ZM440.834 360.129L439.965 355.18C442.722 354.689 445.48 354.122 448.087 353.518L449.22 358.429C446.387 359.222 443.554 359.789 440.682 360.28L440.834 360.129ZM465.653 353.48L463.878 348.795C466.522 347.775 469.053 346.718 471.433 345.584L473.624 350.118C470.942 351.478 468.26 352.611 465.502 353.631L465.653 353.48ZM172.466 352.8C170.204 350.972 168.059 349.003 166.043 346.907L169.821 343.431C171.695 345.379 173.688 347.209 175.79 348.909L172.466 352.8ZM488.433 341.089L485.335 337.085C486.657 336.065 487.942 334.969 489.113 333.836L491.266 331.72L494.779 335.309L492.437 337.538C491.266 338.898 489.717 340.107 488.282 341.24L488.433 341.089ZM155.995 332.476C154.709 329.815 153.696 327.03 152.973 324.165L157.884 323.069C158.445 325.674 159.294 328.207 160.415 330.625L155.995 332.476ZM250.06 331.267L241.938 327.943L243.977 323.334C246.509 324.429 249.077 325.525 251.533 326.583L250.06 331.267ZM506.263 322.238L502.146 319.329C503.693 317.132 505.094 314.836 506.339 312.454L510.797 314.758C509.398 317.406 507.82 319.956 506.075 322.389L506.263 322.238ZM226.713 320.803C224.145 319.556 221.613 318.272 219.158 317.025L221.425 312.832C223.88 314.116 226.373 315.401 228.98 316.609L226.713 320.803ZM204.16 309.054C201.705 307.618 199.249 306.145 196.907 304.634L199.589 300.365C201.894 301.839 204.312 303.312 206.729 304.747L204.16 309.054ZM157.695 307.581L152.746 306.636C153.329 303.757 154.137 300.927 155.164 298.174L159.886 299.912C158.992 302.348 158.285 304.848 157.77 307.392L157.695 307.581ZM515.821 298.212L510.797 297.683C510.94 296.429 511.016 295.168 511.023 293.905C511.019 292.643 510.943 291.382 510.797 290.128L515.821 289.599C515.972 291.067 516.048 292.543 516.048 294.019C516.058 295.355 516.007 296.691 515.897 298.023L515.821 298.212ZM182.816 295.114C180.512 293.414 178.208 291.714 176.017 289.977L179.114 286.01C181.268 287.71 183.496 289.372 185.763 291.034L182.816 295.114ZM167.517 285.406L163.324 282.61C164.91 280.306 166.648 278.001 168.499 275.697L172.277 278.87C170.652 281.023 168.99 283.252 167.517 285.406ZM163.135 278.832C161.019 276.868 158.979 274.828 157.053 272.826L160.83 269.313C162.719 271.277 164.608 273.09 166.723 275.168L163.135 278.832ZM506.112 274.79C504.849 272.427 503.422 270.155 501.844 267.99L505.923 265.006C507.639 267.418 509.191 269.942 510.57 272.561L506.112 274.79ZM183.723 266.857L180.285 263.079C182.325 261.19 184.479 259.302 186.708 257.413L189.919 261.19C187.765 263.155 185.688 265.006 183.723 266.857ZM145.946 259.604C144.208 257.262 142.546 254.882 141.073 252.502L145.342 249.82C146.739 252.086 148.326 254.353 149.988 256.582L145.946 259.604ZM490.85 255.826C488.924 254.051 486.808 252.275 484.579 250.537L487.677 246.76C490.019 248.573 492.21 250.537 494.25 252.313L490.85 255.826ZM203.141 251.293L200.383 247.137C202.687 245.551 205.105 243.964 207.485 242.415L210.205 246.684C207.938 248.157 205.407 249.706 203.141 251.293ZM470.942 241.055C468.637 239.62 466.22 238.222 463.764 236.862L466.22 232.442C468.751 233.84 471.244 235.313 473.586 236.749L470.942 241.055ZM224.447 238.26L222.067 233.84C224.522 232.48 227.091 231.158 229.622 230.062L231.889 234.595C229.396 235.578 226.827 236.9 224.447 238.222V238.26ZM133.177 237.278C132.12 234.558 131.175 231.762 130.42 229.042L135.293 227.72C136.011 230.251 136.88 232.858 137.862 235.275L133.177 237.278ZM448.918 229.382L441.362 226.02L443.327 221.373C445.934 222.507 448.578 223.64 451.109 224.811L448.918 229.382ZM247 227.456L245.035 222.809C247.604 221.713 250.286 220.618 252.893 219.598L254.744 224.282C252.175 225.151 249.493 226.247 247 227.342V227.456ZM425.723 219.9C423.116 218.994 420.472 218.087 417.79 217.218L419.338 212.42C422.058 213.289 424.778 214.234 427.385 215.14L425.723 219.9ZM270.459 218.389L268.873 213.591C271.592 212.723 274.312 211.854 277.032 211.06L278.468 215.896C275.937 216.802 273.104 217.634 270.459 218.389ZM401.734 212.383C399.052 211.703 396.294 211.023 393.612 210.418L394.746 205.507C397.466 206.112 400.261 206.792 403.019 207.509L401.734 212.383ZM127.889 211.665C127.889 210.305 127.889 208.983 127.889 207.66C127.889 206.338 127.889 204.563 127.889 203.052L132.913 203.278C132.913 204.714 132.913 206.149 132.913 207.66C132.913 209.172 132.913 210.191 132.913 211.438L127.889 211.665ZM294.599 211.665L293.465 207.056C296.223 206.414 299.019 205.809 301.776 205.243L302.759 210.191C300.039 210.531 297.281 211.136 294.599 211.74V211.665ZM377.255 207.283L374.157 207.056L369.095 206.452L369.624 201.427L374.875 202.069L378.086 202.561L377.255 207.283ZM319.229 207.283L318.549 202.296C321.383 201.918 324.216 201.616 327.011 201.352L327.503 206.338C324.745 206.565 321.987 207.056 319.229 207.245V207.283ZM344.124 205.318V200.294C346.958 200.294 349.791 200.294 352.624 200.294V205.356C349.678 205.205 346.882 205.243 344.124 205.28V205.318ZM135.029 187.147L130.118 186.052C130.722 183.219 131.515 180.423 132.384 177.703L137.182 179.29C136.322 181.868 135.604 184.491 135.029 187.147ZM143.793 164.481L139.448 161.95C140.912 159.454 142.5 157.033 144.208 154.697L148.288 157.681C146.64 159.848 145.114 162.106 143.717 164.444L143.793 164.481ZM354.06 146.991C351.16 146.844 348.272 146.529 345.409 146.046L346.24 141.06C348.916 141.511 351.615 141.813 354.324 141.966L354.06 146.991ZM159.206 145.555L155.806 141.777C157.921 139.888 160.15 138 162.492 136.262L165.515 140.304C163.324 142.004 161.17 143.742 159.206 145.555ZM328.825 141.135C326.15 140.022 323.539 138.761 321.005 137.357L323.423 132.937C325.805 134.23 328.251 135.403 330.751 136.451L328.825 141.135ZM179.417 131.502L177.037 127.044C179.53 125.76 182.136 124.475 184.592 123.267L186.632 127.875C184.29 129.084 181.759 130.293 179.417 131.502ZM306.65 127.724C304.495 126.252 302.206 124.987 299.812 123.947L301.927 119.376C304.577 120.613 307.106 122.093 309.483 123.795L306.65 127.724ZM202.347 122.209L200.874 117.373C203.556 116.58 206.352 115.824 209.147 115.107L210.318 120.018C207.636 120.66 204.954 121.415 202.347 122.209ZM284.323 118.696C281.755 118.091 279.035 117.562 276.239 117.109L277.032 112.16C279.941 112.613 282.774 113.18 285.494 113.822L284.323 118.696ZM226.827 116.882L226.109 111.896C228.904 111.518 231.775 111.178 234.609 110.913L235.062 115.938C232.115 116.391 229.358 116.391 226.827 116.882ZM259.957 115.409C257.237 115.409 254.442 115.182 251.646 115.182V110.158C254.517 110.158 257.388 110.158 260.184 110.385L259.957 115.409Z" fill="#B4C4E4"/>
<path d="M238.613 381.775L234.382 380.83L235.629 375.919C236.989 376.297 238.311 376.637 239.671 376.939L238.613 381.775Z" fill="#4E74FF"/>
<path d="M291.502 179.705C291.385 181.408 290.99 183.08 290.331 184.654C289.756 185.529 288.993 186.265 288.098 186.808C287.202 187.35 286.197 187.686 285.155 187.79C283.077 188.13 280.962 187.979 278.884 188.167C276.806 188.356 274.54 189.565 274.766 191.492C274.873 192.083 275.119 192.64 275.484 193.116L278.015 197.385C278.343 197.803 278.504 198.328 278.469 198.858C278.469 199.576 277.524 199.954 276.844 200.256C275.131 201.129 273.619 202.349 272.402 203.839C271.186 205.328 270.293 207.054 269.78 208.907C268.749 212.614 268.749 216.533 269.78 220.24C269.811 220.5 269.895 220.75 270.024 220.977C270.154 221.204 270.328 221.403 270.535 221.562C270.882 221.751 271.274 221.842 271.669 221.827C272.854 222.028 273.987 222.467 275 223.116C276.012 223.765 276.884 224.611 277.562 225.605C278.873 227.665 280.047 229.811 281.075 232.027C283.906 237.335 288.04 241.837 293.088 245.108C298.137 248.379 303.935 250.312 309.937 250.726C310.92 250.823 311.912 250.707 312.846 250.386C313.963 249.821 314.865 248.905 315.415 247.78C318.021 243.02 317.266 237.315 317.454 232.102C317.443 229.515 317.931 226.95 318.89 224.547C319.494 223.187 320.061 223.111 320.93 222.318C321.344 222.046 321.684 221.676 321.921 221.241C322.158 220.806 322.285 220.32 322.29 219.825C322.089 218.54 321.773 217.275 321.345 216.047C321.032 213.673 321.568 211.265 322.857 209.247C324.137 207.272 325.309 205.229 326.37 203.127C327.107 201.174 327.565 199.126 327.73 197.045C328.808 191.734 327.908 186.212 325.199 181.519C324.139 180.019 322.772 178.762 321.19 177.831C319.607 176.899 317.844 176.315 316.019 176.117C314.52 176.073 313.028 175.896 311.561 175.588C309.332 174.87 308.577 172.566 306.235 171.81C304.207 171.102 302.023 170.972 299.926 171.432C297.882 171.871 296.005 172.882 294.514 174.347C293.022 175.812 291.978 177.67 291.502 179.705Z" fill="#37446F"/>
<path d="M302.872 406.745C304.255 407.951 305.44 409.366 306.386 410.939C306.571 411.23 306.651 411.577 306.612 411.921C306.612 412.45 305.895 412.752 305.328 412.903C302.986 413.508 300.509 413.312 298.291 412.347C296.073 411.382 294.242 409.702 293.088 407.576C291.339 405.071 290.391 402.094 290.368 399.039L291.01 394.128C291.088 393.365 291.266 392.615 291.539 391.899C291.904 391.2 292.375 390.563 292.937 390.01C293.87 388.958 294.999 388.098 296.261 387.479C296.408 387.427 296.568 387.427 296.715 387.479C297.017 387.479 297.168 387.857 297.244 388.121C297.454 389.381 297.377 390.673 297.017 391.899C296.577 395.497 297.42 399.136 299.397 402.174C300.352 403.842 301.521 405.379 302.872 406.745Z" fill="#FCBDBA"/>
<path d="M315.528 378.941C315.599 379.323 315.754 379.684 315.981 379.999C316.18 380.259 316.439 380.467 316.737 380.604C318.026 381.139 319.434 381.322 320.817 381.132C322.517 381.132 324.179 380.792 325.841 380.528C326.314 380.533 326.78 380.417 327.197 380.193C327.613 379.968 327.965 379.642 328.221 379.244C328.343 378.795 328.308 378.319 328.123 377.893C327.937 377.467 327.612 377.117 327.201 376.901C326.377 376.48 325.479 376.223 324.556 376.146C323.627 376.026 322.763 375.601 322.101 374.937C321.157 373.766 321.572 371.915 320.59 370.782C319.987 370.33 319.285 370.03 318.543 369.905C317.8 369.78 317.038 369.834 316.321 370.064C313.261 371.008 314.886 376.788 315.528 378.941Z" fill="#FCBDBA"/>
<path d="M328.825 333.949C328.636 334.742 328.485 335.536 328.334 336.329C326.634 346.151 324.556 355.935 322.629 365.719C322.39 367.873 321.523 369.909 320.136 371.575C319.757 372.044 319.271 372.416 318.719 372.659C318.167 372.902 317.565 373.01 316.963 372.973H316.623C315.036 372.444 314.13 370.215 314.13 367.986L314.961 327.942C315.091 327.473 315.091 326.976 314.961 326.507C314.648 326.082 314.232 325.744 313.752 325.525C312.619 324.92 311.523 324.278 310.427 323.636C307.065 321.709 303.779 319.631 300.568 317.478C296.261 314.569 292.068 311.509 288.026 308.223C285.088 306.433 282.758 303.801 281.339 300.667C279.995 296.815 278.456 293.032 276.73 289.334C274.733 284.665 272.358 280.168 269.628 275.886C269.288 275.395 268.004 272.901 267.286 272.788L294.75 275.81C297.186 275.703 299.568 276.543 301.399 278.152C304.392 281.646 307.119 285.358 309.559 289.259C315.263 296.814 320.892 304.634 326.709 312.303C329.097 314.868 330.617 318.119 331.054 321.596C330.73 325.778 329.983 329.917 328.825 333.949Z" fill="url(#paint1_linear)"/>
<path d="M297.621 390.652C297.25 391.169 296.804 391.627 296.299 392.012C295.521 392.69 294.658 393.262 293.73 393.712H293.465C292.413 394.147 291.231 394.147 290.179 393.712C287.421 392.541 288.252 385.779 288.101 383.135C287.837 378.979 287.61 374.862 287.346 370.706C286.892 362.622 286.401 354.537 285.948 346.415C285.721 342.638 285.457 338.86 285.268 335.082L283.87 332.627L283.228 331.531L282.472 330.209L281.679 328.736C281.226 327.98 280.772 327.149 280.281 326.28C279.488 324.807 278.732 323.258 277.939 321.747C277.445 320.732 276.89 319.748 276.277 318.8C276.075 318.481 275.847 318.177 275.597 317.894C274.084 316.255 272.456 314.728 270.724 313.323C265.499 308.455 262.02 302.004 260.826 294.963C260.513 293.041 260.386 291.092 260.448 289.145C260.489 286.119 260.972 283.116 261.884 280.23C262.598 278.17 263.509 276.184 264.604 274.299C265.464 272.623 266.615 271.114 268.004 269.841C268.654 269.24 269.393 268.743 270.195 268.368C275.408 265.988 280.697 271.919 284.323 275.055C287.95 278.19 294.221 282.61 296.185 287.332C298.15 292.054 301.852 331.72 301.852 331.72C301.852 341.467 301.852 351.213 301.285 360.922C301.059 366.702 300.794 372.482 300.228 378.224C300.202 382.5 299.315 386.726 297.621 390.652Z" fill="url(#paint2_linear)"/>
<path d="M293.73 393.712H293.465C292.413 394.147 291.231 394.147 290.179 393.712C287.421 392.541 288.252 385.779 288.101 383.135C287.837 378.979 287.61 374.862 287.346 370.706C286.892 362.622 286.401 354.537 285.948 346.415C285.721 342.638 285.457 338.86 285.268 335.082L283.87 332.627L283.228 331.531L282.472 330.209L281.679 328.736C281.226 327.98 280.772 327.149 280.281 326.28L277.599 321.483L275.597 317.705C274.084 316.066 272.456 314.539 270.724 313.134C265.535 308.316 262.059 301.936 260.826 294.963C260.513 293.041 260.386 291.092 260.448 289.145C260.489 286.119 260.972 283.116 261.884 280.23C262.598 278.17 263.509 276.184 264.604 274.299C265.464 272.623 266.615 271.114 268.004 269.841C268.308 270.121 268.574 270.438 268.797 270.786C271.668 274.903 271.517 280.306 271.819 285.33C272.009 291.598 273.288 297.784 275.597 303.614L276.617 305.692C276.753 305.989 276.904 306.279 277.07 306.561C281.008 312.806 284.505 319.32 287.534 326.054C293.465 341.164 291.312 357.711 292.068 373.728C292.301 378.159 292.78 382.573 293.503 386.95C293.948 389.177 294.025 391.461 293.73 393.712Z" fill="url(#paint3_linear)"/>
<path d="M378.351 269.955C376.802 269.955 375.253 269.955 373.742 269.955C372.155 269.828 370.598 269.446 369.133 268.821C367.735 268.179 366.564 267.197 365.129 266.593C362.182 265.308 358.971 264.704 356.1 263.23C351.756 261.039 347.562 258.546 343.407 256.091L333.358 250.122C329.963 248.179 326.672 246.061 323.498 243.775L321.647 242.34C320.741 241.584 319.607 240.753 318.474 241.093C318.014 241.311 317.603 241.619 317.265 242C315.951 243.8 315.118 245.907 314.848 248.12C314.35 250.048 313.601 251.902 312.619 253.635C310.768 257.035 309.03 260.51 307.028 263.797C305.573 267.012 303.522 269.922 300.983 272.372C299.316 273.255 297.411 273.586 295.544 273.317C291.55 272.782 287.515 272.63 283.493 272.863C281.653 273.297 279.784 273.6 277.902 273.77C274.992 273.708 272.176 272.73 269.855 270.975C267.815 269.388 268.722 267.197 269.553 265.119C272.726 256.846 275.862 252.011 272.16 243.511C272.877 245.173 257.502 251.066 255.575 251.066C247.529 251.066 242.731 245.173 236.687 240.602C233.093 237.964 229.304 235.603 225.354 233.538C224.153 232.839 222.888 232.257 221.576 231.8C220.329 231.384 218.705 231.422 217.798 230.553C217.421 230.208 217.09 229.814 216.816 229.382C216.315 228.602 215.909 227.765 215.607 226.889C215.354 225.845 214.818 224.891 214.058 224.131C212.919 223.464 211.566 223.261 210.281 223.564C209.59 223.64 208.894 223.64 208.203 223.564C208.072 223.56 207.943 223.528 207.826 223.469C207.708 223.41 207.605 223.327 207.523 223.224C207.428 223.1 207.377 222.947 207.377 222.79C207.377 222.633 207.428 222.481 207.523 222.356C207.786 222.176 208.081 222.048 208.392 221.978L213.567 220.882C212.094 219.598 209.79 219.938 207.976 219.333C207.732 219.268 207.51 219.137 207.334 218.956C207.246 218.745 207.243 218.508 207.328 218.296C207.413 218.084 207.578 217.914 207.787 217.822C208.231 217.688 208.704 217.688 209.147 217.822L214.738 218.465C213.076 216.425 209.525 217.029 207.825 215.027C208.486 214.584 209.247 214.315 210.039 214.242C210.831 214.169 211.628 214.296 212.358 214.611C214.534 214.922 216.642 215.599 218.592 216.613C219.776 217.303 220.868 218.141 221.841 219.107C225.575 223.16 229.589 226.947 233.854 230.44C236.835 232.384 240.061 233.921 243.449 235.011C244.922 235.54 246.471 235.88 247.944 236.371C249.418 236.862 251.269 237.769 252.893 238.449C253.498 238.77 254.173 238.939 254.858 238.94C255.407 238.835 255.932 238.63 256.407 238.335C259.817 236.245 262.835 233.573 265.322 230.44C268.004 227.267 271.14 224.471 273.973 221.449C275.071 220.152 276.437 219.108 277.977 218.389C280.848 217.407 283.908 218.842 286.968 218.956C288.244 219.019 289.519 218.812 290.71 218.35C291.901 217.888 292.982 217.181 293.881 216.274C295.657 214.196 295.581 211.098 297.659 209.02C298.826 207.914 300.278 207.156 301.852 206.829C303.579 206.271 305.259 205.576 306.877 204.752C308.161 204.147 309.785 203.58 310.919 204.449C311.095 204.564 311.239 204.721 311.338 204.905C311.437 205.09 311.488 205.297 311.485 205.507C311.478 205.874 311.359 206.229 311.145 206.527C310.342 208.099 309.624 209.714 308.992 211.362C308.179 213.026 307.864 214.889 308.085 216.727C308.614 219.333 311.863 220.807 314.054 221.751C317.228 223.111 320.741 223.338 323.914 224.622C327.078 226.084 329.917 228.165 332.263 230.742C336.04 234.52 339.176 238.297 342.614 242.075C344.351 243.964 346.127 245.853 348.054 247.628C350.613 249.435 353.317 251.027 356.138 252.388C359.256 254.437 362.527 256.243 365.922 257.79C368.346 258.876 370.879 259.699 373.478 260.246C374.535 260.551 375.606 260.803 376.689 261.001C377.822 261.001 378.426 260.624 379.371 260.057C380.811 259.305 382.477 259.104 384.055 259.49C387.464 260.248 390.655 261.772 393.386 263.948C394.179 264.477 395.048 265.27 394.897 266.215C394.937 266.337 394.937 266.47 394.897 266.593C394.595 266.857 394.142 266.593 393.802 266.328C392.632 265.484 391.195 265.094 389.759 265.233C390.817 266.064 391.95 267.084 391.837 268.406C391.875 268.503 391.875 268.611 391.837 268.708C391.784 268.735 391.726 268.748 391.667 268.748C391.608 268.748 391.55 268.735 391.497 268.708C390.326 268.708 389.457 267.612 388.362 267.084C387.298 266.598 386.128 266.39 384.962 266.479C384.433 266.479 382.733 266.479 382.733 267.159C382.7 267.27 382.7 267.388 382.733 267.499C383.049 267.91 383.417 268.278 383.828 268.595C384.033 268.749 384.189 268.96 384.276 269.202C384.364 269.443 384.379 269.705 384.32 269.955C384.055 270.484 383.337 270.559 382.733 270.521C381.146 270.446 379.786 270.106 378.351 269.955Z" fill="#FCBDBA"/>
<path d="M373.59 269.426C373.177 269.683 372.713 269.85 372.23 269.917C370.667 269.808 369.187 269.168 368.037 268.104C364.15 266.171 360.137 264.505 356.024 263.117C351.68 260.926 347.486 258.433 343.331 255.977L333.358 250.122C329.963 248.18 326.672 246.061 323.498 243.775C324.367 244.417 327.956 238.978 328.56 238.486C332.073 235.615 330.827 241.773 330.751 243.851C330.675 244.263 330.675 244.685 330.751 245.097C331.024 245.635 331.46 246.072 331.998 246.344C338.344 250.5 344.88 254.353 351.604 257.904C355.004 259.679 358.517 261.304 361.955 263.042C364.788 264.477 367.848 265.308 370.795 266.479C372.042 266.97 373.439 267.726 373.477 269.048C373.534 269.167 373.572 269.295 373.59 269.426Z" fill="#DE9F93"/>
<path d="M295.771 211.174C295.861 212.496 295.544 213.814 294.864 214.951C293.882 216.273 300.455 218.011 302.419 216.122C304.469 213.821 306.362 211.385 308.086 208.831L295.771 211.174Z" fill="#DE9F93"/>
<path d="M303.552 211.627C301.447 212.446 299.144 212.617 296.941 212.118C295.85 211.848 294.833 211.339 293.964 210.627C293.095 209.914 292.395 209.017 291.917 208C291.441 206.617 291.249 205.153 291.35 203.694C291.59 196.621 294.018 189.797 298.301 184.163C298.932 183.23 299.756 182.444 300.719 181.859C302.024 181.228 303.515 181.093 304.912 181.481C307.602 182.191 309.988 183.755 311.712 185.938C313.418 188.09 314.864 190.436 316.018 192.927C316.85 194.476 318.398 196.932 317.681 198.745C316.633 200.421 315.363 201.946 313.903 203.278C311.282 206.956 307.702 209.844 303.552 211.627Z" fill="#FCBDBA"/>
<path d="M305.63 272.939C304.746 274.346 303.493 275.484 302.008 276.23C300.523 276.976 298.863 277.301 297.206 277.17C290.67 277.699 284.097 275.999 277.6 277.17C275.597 277.51 273.822 278.115 271.631 278.266H271.064C269.964 278.369 268.856 278.215 267.826 277.815C266.797 277.415 265.875 276.78 265.133 275.961C263.093 273.279 264.378 269.426 265.7 266.29C268.155 260.662 272.764 254.202 270.12 247.931C269.78 247.251 269.326 246.646 269.024 245.966C268.714 245.228 268.498 244.454 268.382 243.662L267.4 238.826C266.72 235.615 266.078 232.404 265.398 229.155C265.246 228.509 265.246 227.837 265.398 227.191C265.731 226.346 266.327 225.631 267.098 225.151L273.935 219.711C275.266 218.463 276.87 217.545 278.62 217.029C280.476 216.866 282.345 216.968 284.173 217.331C286.605 217.243 289.016 216.849 291.35 216.16C291.653 216.16 291.993 216.16 292.219 216.16C292.455 216.389 292.59 216.701 292.597 217.029C292.859 218.091 293.349 219.084 294.033 219.938C294.522 220.54 295.052 221.108 295.619 221.638L296.337 222.318L300.455 226.096C301.32 227.008 302.328 227.774 303.439 228.362C307.217 230.062 309.899 225.529 309.71 222.167C309.493 220.279 308.929 218.448 308.048 216.765C309.786 217.445 311.523 218.2 313.261 218.993C314.835 219.932 316.477 220.753 318.172 221.449C320.817 222.167 323.348 221.449 325.728 223.111C328.872 225.155 331.763 227.565 334.341 230.289L332.603 234.293C330.299 239.129 327.616 244.342 322.705 246.457C321.421 246.986 320.099 247.326 318.928 247.931C316.812 248.988 316.586 250.651 315.641 252.539C314.017 255.826 312.392 259.113 310.919 262.437C309.443 266.075 307.674 269.587 305.63 272.939Z" fill="white"/>
<path d="M312.467 225.68C312.773 225.307 313.161 225.01 313.601 224.811C313.96 224.717 314.337 224.717 314.696 224.811C319.456 225.189 324.216 225.718 328.938 226.36C323.083 221.147 313.827 221.373 307.556 216.953C306.687 218.578 307.556 220.467 308.01 222.242C308.275 223.843 308.275 225.477 308.01 227.078C308.81 227.263 309.645 227.231 310.429 226.986C311.212 226.74 311.916 226.289 312.467 225.68Z" fill="url(#paint4_linear)"/>
<path d="M220.103 229.722C219.058 229.995 217.951 229.902 216.967 229.458C216.459 228.682 216.053 227.844 215.758 226.964C215.505 225.92 214.969 224.966 214.209 224.207C213.068 223.543 211.717 223.34 210.432 223.64C211.145 223.189 211.968 222.941 212.812 222.922C213.265 222.908 213.709 222.784 214.104 222.56C214.499 222.336 214.833 222.02 215.078 221.638C215.078 221.336 215.078 220.958 215.456 220.693C215.834 220.429 216.438 220.353 216.967 220.429C218.035 220.686 219.073 221.054 220.065 221.524C220.777 221.786 221.431 222.184 221.991 222.696C222.262 222.898 222.488 223.153 222.657 223.445C222.826 223.737 222.933 224.06 222.974 224.396C222.634 224.396 222.142 224.018 221.803 223.829C221.37 223.604 220.914 223.426 220.443 223.3C219.483 223.044 218.486 222.955 217.496 223.036C217.496 223.036 217.194 223.036 217.156 223.036C217.118 223.036 217.156 223.376 217.383 223.489C218.78 224.584 220.556 225.113 221.916 226.284C222.137 226.414 222.31 226.613 222.407 226.851C222.537 227.166 222.537 227.519 222.407 227.833C222.222 228.322 221.912 228.754 221.507 229.086C221.103 229.417 220.618 229.637 220.103 229.722Z" fill="#DE9F93"/>
<path d="M330.79 377.279C330.219 376.959 329.586 376.767 328.934 376.714C328.282 376.662 327.626 376.752 327.012 376.977C326.446 377.359 325.903 377.776 325.387 378.224C323.761 378.867 321.951 378.867 320.325 378.224C318.539 377.666 316.706 377.274 314.848 377.053C314.848 377.053 314.848 380.83 315.528 381.17C316.416 381.48 317.345 381.658 318.285 381.699C322.048 382.184 325.856 382.184 329.618 381.699C330.676 381.472 334.227 380.906 334.718 379.735C335.209 378.564 331.772 377.619 330.79 377.279Z" fill="#4E74FF"/>
<path d="M308.916 411.656C309.598 412.415 310.033 413.364 310.163 414.376C310.18 414.729 310.073 415.076 309.861 415.358C309.608 415.549 309.307 415.666 308.992 415.698C306.51 416.245 303.947 416.322 301.436 415.925C298.96 415.538 296.693 414.311 295.014 412.45C293.919 411.127 293.201 409.541 292.181 408.181C291.161 406.821 290.217 405.952 289.423 404.705C288.63 403.459 289.423 401.23 290.028 399.87C290.708 399.87 290.481 401.192 290.783 401.797C291.812 404.017 293.276 406.009 295.09 407.652C295.866 408.541 296.816 409.262 297.882 409.769C298.947 410.276 300.106 410.558 301.285 410.599C301.715 410.599 302.138 410.496 302.519 410.299C302.9 410.102 303.229 409.816 303.476 409.465C303.854 408.861 303.476 407.463 304.119 407.236C304.761 407.01 308.312 411.052 308.916 411.656Z" fill="#4E74FF"/>
<path d="M317.114 372.973H316.774C315.188 372.444 314.281 370.215 314.281 367.986L314.961 327.942C315.091 327.473 315.091 326.977 314.961 326.507C314.648 326.082 314.232 325.744 313.752 325.525C312.619 324.92 311.523 324.278 310.428 323.636C307.066 321.709 303.779 319.632 300.568 317.478L298.604 301.499C298.604 301.499 318.512 314.683 320.59 320.878C322.667 327.074 317.114 372.973 317.114 372.973Z" fill="url(#paint5_linear)"/>
<path d="M307.632 194.589C309.133 195.144 310.674 195.586 312.241 195.912C313.789 196.441 315.338 197.612 315.376 199.198C316.698 199.198 317.416 197.687 317.794 196.441C318.559 194.357 319.066 192.187 319.305 189.981C319.518 187.768 318.986 185.548 317.794 183.672C315.64 180.612 307.67 174.87 305.138 180.234C303.212 184.39 302.985 192.172 307.632 194.589Z" fill="#37446F"/>
<path d="M347.714 358.92C344.918 358.466 342.123 358.013 339.327 357.484L340.234 352.535C342.992 353.026 345.749 353.517 348.507 353.933L347.714 358.92Z" fill="#B4C4E4"/>
<path d="M322.592 354.16C319.834 353.555 317.114 352.913 314.356 352.233L315.528 347.36L323.687 349.249L322.592 354.16Z" fill="#B4C4E4"/>
<path d="M297.923 347.964L289.764 345.584L291.237 340.749C293.919 341.58 296.601 342.336 299.283 343.091L297.923 347.964Z" fill="#B4C4E4"/>
<path d="M273.633 340.371C270.988 339.464 268.306 338.52 265.662 337.538L267.399 332.816L275.295 335.611L273.633 340.371Z" fill="#B4C4E4"/>
<path d="M397.39 273.015L436.263 190.736L505.697 207.283L466.144 290.468L397.39 273.015Z" fill="#4E74FF"/>
<path d="M106.544 95.9915L225.92 57.8745L255.764 181.254L155.843 232.404L106.544 95.9915Z" fill="white"/>
<path d="M99.6318 340.371L156.411 375.919L175.488 312.643L112.854 269.917L99.6318 340.371Z" fill="#4E74FF"/>
<path d="M398.334 408.03L409.139 337.273L491.266 331.871L473.624 400.323L398.334 408.03Z" fill="white"/>
<path d="M425.232 261.228L418.055 259.604L423.683 248.46L430.899 250.084L425.232 261.228Z" fill="white"/>
<path d="M434.109 263.193L426.894 261.606L438.416 238.902L445.631 240.489L434.109 263.193Z" fill="#4E74FF"/>
<path d="M442.987 265.195L435.772 263.57L442.799 249.744L449.976 251.368L442.987 265.195Z" fill="white"/>
<path d="M451.827 267.197L444.649 265.573L459.836 235.691L467.013 237.315L451.827 267.197Z" fill="#4E74FF"/>
<path d="M434.109 263.193L426.894 261.606L438.416 238.902L445.631 240.489L434.109 263.193Z" fill="url(#paint6_linear)"/>
<path d="M451.827 267.197L444.649 265.573L459.836 235.691L467.013 237.315L451.827 267.197Z" fill="url(#paint7_linear)"/>
<path d="M460.704 269.199L453.527 267.575L472.944 229.344L480.122 230.969L460.704 269.199Z" fill="white"/>
<path d="M167.026 136.3C167.01 133.012 167.719 129.761 169.104 126.78L155.051 119.035C152.377 124.397 150.993 130.309 151.009 136.3C151.037 144.978 153.951 153.4 159.293 160.239C164.635 167.079 172.1 171.947 180.513 174.077L183.384 158.097C178.685 156.691 174.56 153.815 171.616 149.892C168.672 145.969 167.063 141.205 167.026 136.3Z" fill="#37446F"/>
<path opacity="0.18" d="M223.502 156.397C220.009 162.175 215.081 166.951 209.196 170.26C203.311 173.57 196.67 175.301 189.919 175.285C186.682 175.286 183.458 174.88 180.323 174.077L183.194 158.097C185.376 158.75 187.641 159.081 189.919 159.079C193.772 159.086 197.565 158.121 200.947 156.272C204.328 154.423 207.187 151.75 209.26 148.501L223.502 156.397Z" fill="#4E74FF"/>
<path d="M229.056 136.3C229.066 143.379 227.146 150.327 223.503 156.397L209.261 148.653C210.979 146.002 212.131 143.025 212.645 139.908C213.159 136.792 213.023 133.602 212.246 130.541C211.469 127.479 210.068 124.611 208.131 122.116C206.194 119.621 203.762 117.553 200.988 116.042C198.214 114.531 195.158 113.609 192.011 113.335C188.864 113.061 185.694 113.44 182.701 114.448C179.707 115.456 176.954 117.072 174.615 119.194C172.275 121.316 170.399 123.899 169.104 126.78L155.051 119.035C158.945 111.106 165.41 104.729 173.392 100.944C181.374 97.1587 190.403 96.188 199.007 98.1901C207.611 100.192 215.284 105.049 220.775 111.969C226.266 118.89 229.251 127.465 229.245 136.3H229.056Z" fill="#4E74FF"/>
<path d="M423.268 386.195C423.257 385.979 423.292 385.763 423.37 385.561C423.449 385.359 423.568 385.176 423.721 385.024C424.424 384.308 424.932 383.423 425.194 382.455C425.355 381.845 425.322 381.201 425.098 380.611C424.875 380.022 424.472 379.517 423.948 379.168C423.303 378.683 422.573 378.324 421.795 378.11C421.408 378.004 421.074 377.763 420.851 377.429C420.629 377.096 420.535 376.694 420.586 376.297C420.586 375.806 420.586 375.277 420.586 374.786C420.6 374.558 420.659 374.334 420.76 374.129C420.861 373.924 421.002 373.74 421.174 373.589C421.346 373.438 421.546 373.323 421.763 373.249C421.979 373.176 422.208 373.146 422.437 373.162C423.181 373.151 423.915 372.984 424.59 372.67C425.317 372.389 425.912 371.844 426.255 371.144C426.598 370.444 426.665 369.64 426.441 368.893C426.258 368.231 426.018 367.586 425.723 366.966C425.549 366.607 425.507 366.199 425.604 365.812C425.701 365.426 425.93 365.085 426.252 364.851C426.646 364.569 427.025 364.267 427.385 363.944C427.722 363.687 428.133 363.547 428.557 363.547C428.98 363.547 429.392 363.687 429.728 363.944C430.281 364.502 430.934 364.951 431.654 365.266C432.31 365.546 433.042 365.593 433.729 365.401C434.416 365.209 435.017 364.788 435.432 364.208C435.931 363.525 436.302 362.757 436.528 361.942C436.657 361.562 436.92 361.242 437.267 361.04C437.614 360.839 438.022 360.77 438.416 360.846H439.927C440.332 360.884 440.707 361.072 440.98 361.372C441.252 361.673 441.403 362.065 441.401 362.471C441.442 363.447 441.7 364.402 442.156 365.266C442.491 365.826 442.989 366.27 443.583 366.54C444.177 366.81 444.839 366.893 445.481 366.777C446.217 366.622 446.928 366.368 447.596 366.022C447.984 365.795 448.445 365.727 448.881 365.833C449.318 365.939 449.697 366.209 449.938 366.588C450.203 367.042 450.618 367.419 450.921 367.873C451.124 368.191 451.217 368.568 451.182 368.944C451.148 369.32 450.99 369.674 450.732 369.95C450.159 370.535 449.709 371.229 449.41 371.99C449.075 372.733 449.045 373.577 449.328 374.34C449.611 375.104 450.183 375.725 450.921 376.07C451.47 376.395 452.053 376.661 452.658 376.864C453.017 376.965 453.331 377.184 453.55 377.486C453.77 377.787 453.881 378.153 453.867 378.526C453.867 379.13 453.867 379.735 453.641 380.377C453.585 380.774 453.384 381.136 453.077 381.394C452.77 381.652 452.379 381.788 451.978 381.775C451.088 381.813 450.214 382.032 449.41 382.417C448.799 382.706 448.301 383.188 447.994 383.79C447.686 384.391 447.586 385.077 447.71 385.741C447.832 386.517 448.074 387.269 448.427 387.97C448.551 388.157 448.636 388.367 448.676 388.588C448.717 388.809 448.712 389.035 448.663 389.254C448.613 389.473 448.52 389.68 448.389 389.861C448.257 390.043 448.091 390.197 447.898 390.312L446.841 391.106C446.529 391.415 446.108 391.588 445.67 391.588C445.231 391.588 444.81 391.415 444.498 391.106C443.882 390.518 443.148 390.068 442.345 389.783C441.673 389.519 440.929 389.494 440.241 389.715C439.553 389.935 438.961 390.386 438.568 390.992C438.101 391.643 437.755 392.372 437.548 393.146C437.434 393.515 437.194 393.831 436.868 394.039C436.543 394.247 436.154 394.332 435.772 394.279L433.996 394.052C433.635 393.986 433.305 393.802 433.059 393.529C432.812 393.255 432.664 392.908 432.637 392.541C432.624 391.627 432.418 390.726 432.032 389.897C431.723 389.197 431.167 388.636 430.469 388.322C429.772 388.009 428.983 387.964 428.254 388.197C427.543 388.392 426.848 388.645 426.177 388.952C425.837 389.126 425.449 389.184 425.074 389.115C424.698 389.047 424.356 388.857 424.099 388.575C423.721 388.083 423.343 387.63 423.003 387.101C422.832 386.806 422.705 386.488 422.626 386.157L423.268 386.195ZM437.396 372.028C436.304 372.021 435.234 372.338 434.322 372.939C433.41 373.541 432.697 374.4 432.274 375.407C431.851 376.414 431.736 377.524 431.945 378.596C432.153 379.669 432.675 380.655 433.445 381.43C434.215 382.205 435.198 382.734 436.269 382.95C437.34 383.166 438.45 383.059 439.46 382.643C440.471 382.226 441.334 381.52 441.942 380.612C442.55 379.704 442.874 378.636 442.874 377.544C442.874 376.813 442.729 376.09 442.447 375.415C442.165 374.741 441.752 374.13 441.232 373.617C440.712 373.104 440.095 372.699 439.417 372.426C438.739 372.153 438.014 372.018 437.283 372.028H437.396Z" fill="#4E74FF"/>
<path d="M465.049 370.177C465.067 370.391 465.067 370.606 465.049 370.819C465.037 371.081 464.937 371.332 464.766 371.53C464.595 371.729 464.362 371.864 464.105 371.915L462.971 372.217C462.675 372.298 462.36 372.27 462.083 372.138C461.806 372.006 461.585 371.78 461.46 371.499C461.196 371.046 460.931 370.593 460.629 370.177C460.43 369.912 460.179 369.691 459.891 369.527C459.603 369.364 459.284 369.261 458.954 369.225C458.625 369.19 458.292 369.223 457.976 369.321C457.659 369.42 457.367 369.583 457.116 369.799C456.737 370.083 456.383 370.399 456.058 370.744C455.861 370.971 455.591 371.122 455.294 371.17C454.997 371.219 454.693 371.161 454.434 371.008L453.527 370.479C453.211 370.324 452.967 370.052 452.848 369.721C452.728 369.39 452.741 369.025 452.885 368.704C453.07 368.18 453.184 367.634 453.225 367.079C453.267 366.476 453.075 365.879 452.688 365.415C452.3 364.95 451.748 364.653 451.147 364.586C450.556 364.549 449.963 364.549 449.372 364.586C449.076 364.578 448.794 364.462 448.578 364.26C448.362 364.059 448.228 363.785 448.2 363.491C448.147 363.171 448.071 362.855 447.974 362.546C447.881 362.24 447.903 361.91 448.035 361.618C448.167 361.326 448.4 361.092 448.692 360.96C449.258 360.687 449.78 360.33 450.24 359.902C450.652 359.532 450.913 359.024 450.976 358.474C451.038 357.924 450.898 357.371 450.58 356.917C450.274 356.51 449.946 356.119 449.598 355.746C449.44 355.645 449.304 355.511 449.202 355.354C449.099 355.196 449.031 355.018 449.002 354.833C448.974 354.647 448.985 354.457 449.036 354.276C449.086 354.094 449.175 353.926 449.296 353.782L449.749 352.951C449.915 352.676 450.175 352.471 450.481 352.373C450.787 352.276 451.117 352.293 451.411 352.422C452.055 352.692 452.757 352.796 453.451 352.724C453.927 352.712 454.386 352.542 454.755 352.241C455.124 351.94 455.383 351.526 455.491 351.062C455.631 350.442 455.694 349.808 455.68 349.173C455.655 348.882 455.726 348.591 455.883 348.345C456.04 348.099 456.274 347.912 456.549 347.813L457.871 347.511C458.172 347.428 458.493 347.464 458.767 347.611C459.042 347.759 459.249 348.008 459.345 348.304C459.637 348.983 460.091 349.579 460.667 350.042C461.089 350.399 461.625 350.595 462.178 350.595C462.731 350.595 463.266 350.399 463.689 350.042C464.03 349.782 464.346 349.491 464.633 349.173C464.831 348.936 465.103 348.774 465.405 348.712C465.707 348.65 466.021 348.693 466.296 348.833L467.391 349.475C467.645 349.632 467.834 349.875 467.924 350.159C468.014 350.443 467.999 350.75 467.882 351.024C467.642 351.637 467.526 352.292 467.542 352.951C467.545 353.521 467.753 354.071 468.128 354.501C468.502 354.93 469.018 355.212 469.582 355.293H471.169C471.488 355.26 471.808 355.352 472.061 355.549C472.314 355.746 472.482 356.033 472.529 356.351C472.529 356.729 472.718 357.106 472.793 357.484C472.877 357.765 472.85 358.067 472.716 358.328C472.582 358.588 472.353 358.787 472.075 358.882C471.462 359.143 470.909 359.529 470.451 360.015C470.094 360.361 469.862 360.817 469.794 361.31C469.725 361.803 469.824 362.305 470.073 362.735C470.4 363.262 470.794 363.744 471.244 364.171C471.513 364.38 471.692 364.683 471.748 365.018C471.804 365.354 471.732 365.699 471.547 365.984L471.018 366.853C470.945 367.004 470.844 367.138 470.718 367.249C470.593 367.359 470.446 367.444 470.288 367.496C470.129 367.549 469.962 367.57 469.795 367.556C469.628 367.543 469.466 367.497 469.318 367.419C468.507 367.157 467.635 367.157 466.824 367.419C466.414 367.544 466.045 367.779 465.758 368.098C465.472 368.418 465.279 368.811 465.2 369.233C465.161 369.66 465.161 370.09 465.2 370.517L465.049 370.177ZM460.365 355.671C459.821 355.666 459.281 355.769 458.777 355.973C458.273 356.178 457.815 356.48 457.429 356.863C457.042 357.246 456.735 357.702 456.526 358.204C456.317 358.706 456.209 359.245 456.209 359.788C456.202 360.612 456.439 361.419 456.891 362.107C457.343 362.796 457.989 363.334 458.748 363.654C459.507 363.975 460.343 364.062 461.152 363.906C461.96 363.75 462.704 363.358 463.289 362.778C463.874 362.198 464.274 361.458 464.437 360.651C464.601 359.844 464.521 359.006 464.207 358.245C463.894 357.483 463.361 356.832 462.677 356.374C461.993 355.915 461.188 355.671 460.365 355.671Z" fill="#4E74FF"/>
<path d="M132.309 340.522C142.177 340.522 150.177 332.522 150.177 322.654C150.177 312.785 142.177 304.785 132.309 304.785C122.44 304.785 114.44 312.785 114.44 322.654C114.44 332.522 122.44 340.522 132.309 340.522Z" fill="#37446F"/>
<path d="M132.384 301.498V323.334L151.612 309.469C151.612 309.469 142.735 299.799 132.384 301.498Z" fill="white"/>
<path d="M256.973 383.399L233.287 390.048L241.485 405.876L258.295 401.154L256.973 383.399Z" fill="#4E74FF"/>
<path d="M256.973 383.399L233.287 390.048L241.485 405.876L258.295 401.154L256.973 383.399Z" fill="#37446F"/>
<path d="M218.516 350.306C218.302 351.664 218.432 353.054 218.894 354.349C220.244 360.436 222.648 366.24 225.996 371.499C231.247 379.055 239.444 383.777 247.377 388.348C246.698 387.781 246.811 383.588 246.698 382.644L246.131 377.053C245.648 374.1 244.498 371.296 242.769 368.855C239.308 363.16 234.543 358.369 228.867 354.877C225.65 352.872 222.165 351.333 218.516 350.306Z" fill="#4E74FF"/>
<path d="M218.516 350.306C218.302 351.664 218.432 353.054 218.894 354.349C220.244 360.436 222.648 366.24 225.996 371.499C231.247 379.055 239.444 383.777 247.377 388.348C246.698 387.781 246.811 383.588 246.698 382.644L246.131 377.053C245.648 374.1 244.498 371.296 242.769 368.855C239.308 363.16 234.543 358.369 228.867 354.877C225.65 352.872 222.165 351.333 218.516 350.306Z" fill="url(#paint8_linear)"/>
<path d="M251.155 361.942C251.962 356.945 252.102 351.864 251.571 346.831C250.971 341.709 248.362 337.035 244.318 333.836L238.387 354.689C237.034 358.644 236.308 362.786 236.233 366.966C236.547 371.081 237.717 375.086 239.669 378.722C241.62 382.359 244.31 385.547 247.567 388.083C249.455 385.099 249.04 379.735 249.455 376.221L251.155 361.942Z" fill="#4E74FF"/>
<path d="M251.155 361.942C251.962 356.945 252.102 351.864 251.571 346.831C250.971 341.709 248.362 337.035 244.318 333.836L238.387 354.689C237.034 358.644 236.308 362.786 236.233 366.966C236.547 371.081 237.717 375.086 239.669 378.722C241.62 382.359 244.31 385.547 247.567 388.083C249.455 385.099 249.04 379.735 249.455 376.221L251.155 361.942Z" fill="url(#paint9_linear)"/>
<path d="M256.244 377.353L230.827 384.512C228.698 385.112 227.456 387.315 228.053 389.434C228.65 391.553 230.859 392.784 232.988 392.185L258.405 385.026C260.534 384.426 261.776 382.223 261.179 380.104C260.582 377.985 258.373 376.754 256.244 377.353Z" fill="#37446F"/>
</g>
<defs>
<linearGradient id="paint0_linear" x1="385.151" y1="118.998" x2="468.374" y2="118.998" gradientUnits="userSpaceOnUse">
<stop offset="0.01" stop-color="#37446F"/>
<stop offset="0.2099" stop-color="#37446F" stop-opacity="0.36"/>
<stop offset="1" stop-color="#37446F" stop-opacity="0"/>
</linearGradient>
<linearGradient id="paint1_linear" x1="331.054" y1="294.718" x2="253.485" y2="312.385" gradientUnits="userSpaceOnUse">
<stop stop-color="#36446E"/>
<stop offset="1" stop-color="#6474A3"/>
</linearGradient>
<linearGradient id="paint2_linear" x1="301.852" y1="295.445" x2="249.576" y2="301.584" gradientUnits="userSpaceOnUse">
<stop stop-color="#36446E"/>
<stop offset="1" stop-color="#6474A3"/>
</linearGradient>
<linearGradient id="paint3_linear" x1="-9016.83" y1="10873.6" x2="179.493" y2="13865" gradientUnits="userSpaceOnUse">
<stop offset="0.01"/>
<stop offset="0.08" stop-opacity="0.69"/>
<stop offset="0.21" stop-opacity="0.32"/>
<stop offset="1" stop-opacity="0"/>
</linearGradient>
<linearGradient id="paint4_linear" x1="-3885.84" y1="104.12" x2="-2964.73" y2="2096.21" gradientUnits="userSpaceOnUse">
<stop offset="0.01"/>
<stop offset="0.08" stop-opacity="0.69"/>
<stop offset="0.21" stop-opacity="0.32"/>
<stop offset="1" stop-opacity="0"/>
</linearGradient>
<linearGradient id="paint5_linear" x1="-4622.19" y1="8751.98" x2="-3725.11" y2="8816.17" gradientUnits="userSpaceOnUse">
<stop offset="0.01"/>
<stop offset="0.08" stop-opacity="0.69"/>
<stop offset="0.21" stop-opacity="0.32"/>
<stop offset="1" stop-opacity="0"/>
</linearGradient>
<linearGradient id="paint6_linear" x1="-8349.33" y1="930.915" x2="-7996.54" y2="1854.15" gradientUnits="userSpaceOnUse">
<stop offset="0.01"/>
<stop offset="0.08" stop-opacity="0.69"/>
<stop offset="0.21" stop-opacity="0.32"/>
<stop offset="1" stop-opacity="0"/>
</linearGradient>
<linearGradient id="paint7_linear" x1="-10515.8" y1="1226.3" x2="-10038.1" y2="2365.83" gradientUnits="userSpaceOnUse">
<stop offset="0.01"/>
<stop offset="0.08" stop-opacity="0.69"/>
<stop offset="0.21" stop-opacity="0.32"/>
<stop offset="1" stop-opacity="0"/>
</linearGradient>
<linearGradient id="paint8_linear" x1="255.111" y1="358.408" x2="190.204" y2="389.583" gradientUnits="userSpaceOnUse">
<stop offset="0.01"/>
<stop offset="0.13" stop-opacity="0.69"/>
<stop offset="0.25" stop-opacity="0.32"/>
<stop offset="1" stop-opacity="0"/>
</linearGradient>
<linearGradient id="paint9_linear" x1="-11601.4" y1="48182.6" x2="-10988.8" y2="48180.8" gradientUnits="userSpaceOnUse">
<stop offset="0.01"/>
<stop offset="0.13" stop-opacity="0.69"/>
<stop offset="0.25" stop-opacity="0.32"/>
<stop offset="1" stop-opacity="0"/>
</linearGradient>
<clipPath id="clip0">
<rect width="597.059" height="450" fill="white" transform="translate(0.470703)"/>
</clipPath>
</defs>
</svg>
