<svg width="598" height="450" viewBox="0 0 598 450" fill="none" xmlns="http://www.w3.org/2000/svg">
<g clip-path="url(#clip0)">
<path d="M111.664 437.647C91.1064 434.268 71.7552 425.685 55.4519 412.714C36.2234 397.603 15.3327 377.242 15.9749 351.969C16.6549 325.147 26.6658 299.345 37.7345 275.206C52.3542 242.604 72.7538 208.227 67.3517 171.923C62.0251 136.186 69.2027 92.176 88.3179 61.4255C118.54 12.9954 171.427 1.24672 224.315 0.113406C259.259 -0.604357 295.223 1.47338 327.069 15.8664C360.539 30.9772 387.323 58.8945 421.511 71.8898C444.178 80.4274 468.959 82.1273 491.134 91.7227C519.052 103.849 540.585 127.875 554.562 154.924C568.539 181.972 575.566 212.005 580.817 241.811C589.657 292.243 568.653 355.142 538.393 396.432C518.107 424.009 484.335 455.78 449.504 448.98C272.934 415.283 306.896 469.153 111.664 437.647Z" fill="#F3F7FF"/>
<path opacity="0.31" d="M533.029 175.172C533.029 179.935 531.14 184.503 527.776 187.874C524.412 191.245 519.848 193.144 515.085 193.154H468.884C464.115 193.154 459.541 191.259 456.169 187.887C452.796 184.515 450.902 179.941 450.902 175.172C450.902 170.403 452.796 165.829 456.169 162.457C459.541 159.085 464.115 157.19 468.884 157.19H475.532C475.495 156.7 475.495 156.207 475.532 155.717C475.495 153.549 475.885 151.395 476.681 149.378C477.476 147.361 478.661 145.52 480.167 143.961C481.674 142.401 483.473 141.154 485.462 140.29C487.45 139.426 489.59 138.962 491.758 138.925C493.926 138.888 496.08 139.278 498.097 140.073C500.114 140.869 501.955 142.053 503.514 143.56C505.073 145.067 506.321 146.866 507.185 148.854C508.049 150.843 508.512 152.982 508.55 155.15V155.717C508.55 156.208 508.55 156.699 508.55 157.19H515.161C519.93 157.19 524.503 159.085 527.876 162.457C531.248 165.829 533.142 170.403 533.142 175.172H533.029Z" fill="#4E74FF"/>
<path d="M527.438 173.472C527.438 178.235 525.549 182.803 522.185 186.174C518.821 189.545 514.257 191.444 509.494 191.454H463.331C460.969 191.454 458.631 190.989 456.449 190.085C454.267 189.182 452.285 187.857 450.615 186.187C448.946 184.517 447.621 182.535 446.717 180.354C445.814 178.172 445.349 175.834 445.349 173.472C445.349 171.111 445.814 168.772 446.717 166.591C447.621 164.409 448.946 162.427 450.615 160.757C452.285 159.087 454.267 157.763 456.449 156.859C458.631 155.955 460.969 155.49 463.331 155.49H469.941C469.941 154.999 469.941 154.508 469.941 154.055C469.835 151.818 470.183 149.583 470.965 147.484C471.747 145.386 472.947 143.468 474.493 141.847C476.038 140.226 477.896 138.936 479.955 138.054C482.013 137.173 484.229 136.718 486.469 136.718C488.708 136.718 490.924 137.173 492.983 138.054C495.042 138.936 496.9 140.226 498.445 141.847C499.99 143.468 501.191 145.386 501.973 147.484C502.755 149.583 503.103 151.818 502.996 154.055C502.996 154.546 502.996 155.037 502.996 155.528H509.607C514.347 155.558 518.882 157.462 522.223 160.824C525.563 164.186 527.438 168.733 527.438 173.472Z" fill="white"/>
<path d="M99.9153 215.82C99.8967 215.121 100.021 214.425 100.281 213.775C100.541 213.126 100.931 212.536 101.426 212.042C103.693 209.721 105.331 206.861 106.186 203.731C106.679 201.736 106.536 199.637 105.778 197.727C105.019 195.817 103.683 194.192 101.955 193.078C99.9057 191.496 97.5525 190.351 95.042 189.716C93.8153 189.342 92.7617 188.544 92.0695 187.464C91.3774 186.385 91.092 185.094 91.2643 183.823C91.4532 182.161 91.6421 180.499 91.7932 178.836C91.9186 177.343 92.627 175.958 93.7652 174.983C94.9034 174.007 96.3799 173.519 97.8753 173.623C100.273 173.551 102.634 173.012 104.826 172.037C107.296 171.1 109.306 169.242 110.433 166.853C111.56 164.465 111.717 161.732 110.871 159.23C110.216 157.102 109.421 155.02 108.491 152.997C107.956 151.839 107.834 150.534 108.143 149.298C108.452 148.061 109.175 146.967 110.191 146.197C111.437 145.177 112.759 144.308 113.968 143.25C115.06 142.41 116.409 141.974 117.786 142.015C119.164 142.057 120.484 142.573 121.524 143.477C123.33 145.259 125.458 146.682 127.795 147.67C129.966 148.669 132.417 148.88 134.727 148.266C137.037 147.653 139.061 146.253 140.45 144.308C142.036 142.095 143.236 139.63 144.001 137.017C144.386 135.758 145.215 134.681 146.333 133.987C147.451 133.292 148.784 133.027 150.083 133.239C151.745 133.504 153.37 133.731 155.032 133.919C156.331 134.068 157.53 134.689 158.401 135.664C159.272 136.639 159.753 137.901 159.754 139.208C159.873 142.361 160.699 145.447 162.172 148.237C163.271 150.053 164.897 151.492 166.834 152.363C168.77 153.233 170.926 153.494 173.014 153.11C175.385 152.635 177.675 151.821 179.814 150.692C181.076 149.982 182.562 149.782 183.967 150.133C185.372 150.485 186.59 151.361 187.369 152.581C188.314 154.017 189.56 155.264 190.505 156.699C191.213 157.702 191.544 158.922 191.44 160.146C191.336 161.369 190.805 162.516 189.938 163.386C188.089 165.305 186.627 167.562 185.631 170.034C184.576 172.456 184.498 175.192 185.413 177.671C186.328 180.149 188.166 182.177 190.542 183.332C192.354 184.354 194.266 185.189 196.247 185.825C197.381 186.188 198.365 186.913 199.047 187.889C199.729 188.865 200.073 190.037 200.024 191.227C200.024 193.229 199.647 195.232 199.344 197.196C199.185 198.498 198.549 199.694 197.557 200.553C196.566 201.411 195.291 201.871 193.98 201.843C191.052 201.9 188.174 202.61 185.556 203.92C183.593 204.885 182.003 206.471 181.033 208.431C180.064 210.391 179.768 212.617 180.191 214.762C180.559 217.276 181.365 219.705 182.571 221.94C182.954 222.55 183.213 223.229 183.332 223.94C183.452 224.65 183.43 225.376 183.269 226.078C183.108 226.78 182.81 227.443 182.392 228.029C181.974 228.616 181.444 229.114 180.834 229.495L177.434 232.14C176.382 233.075 175.01 233.569 173.603 233.52C172.196 233.471 170.863 232.882 169.878 231.875C167.861 229.985 165.485 228.521 162.89 227.569C160.75 226.74 158.392 226.662 156.203 227.348C154.013 228.035 152.122 229.444 150.839 231.346C149.255 233.561 148.055 236.026 147.288 238.637C146.938 239.848 146.167 240.894 145.114 241.586C144.061 242.279 142.796 242.573 141.546 242.415L135.955 241.584C134.799 241.348 133.753 240.74 132.975 239.853C132.197 238.966 131.731 237.85 131.648 236.673C131.578 233.667 130.883 230.708 129.608 227.984C128.639 225.81 126.932 224.048 124.788 223.011C122.645 221.974 120.204 221.728 117.897 222.318C115.601 222.957 113.364 223.791 111.211 224.811C110.104 225.366 108.846 225.541 107.631 225.309C106.415 225.076 105.31 224.45 104.486 223.527C103.131 222.058 101.87 220.506 100.709 218.88C100.205 217.889 99.8005 216.852 99.4997 215.782L99.9153 215.82ZM145.777 169.959C143.419 169.944 141.081 170.395 138.898 171.286C136.715 172.176 134.729 173.49 133.055 175.15C131.381 176.81 130.051 178.785 129.142 180.96C128.232 183.136 127.762 185.469 127.757 187.827C127.812 192.482 129.655 196.937 132.903 200.27C136.152 203.603 140.559 205.559 145.21 205.734C147.622 205.876 150.038 205.529 152.313 204.713C154.587 203.896 156.673 202.628 158.444 200.985C160.216 199.341 161.636 197.356 162.62 195.149C163.604 192.942 164.131 190.558 164.169 188.142C164.207 185.726 163.756 183.327 162.843 181.09C161.929 178.853 160.573 176.823 158.854 175.125C157.136 173.426 155.091 172.092 152.844 171.204C150.596 170.317 148.192 169.893 145.777 169.959Z" fill="url(#paint0_linear)"/>
<path d="M235.875 163.914C235.875 164.594 235.875 165.274 235.875 165.954C235.891 166.843 235.593 167.71 235.034 168.401C234.474 169.092 233.688 169.563 232.815 169.732L229.038 170.677C228.083 170.947 227.063 170.867 226.163 170.452C225.262 170.036 224.54 169.312 224.127 168.41C223.382 166.878 222.47 165.434 221.407 164.103C220.778 163.234 219.975 162.505 219.05 161.963C218.124 161.421 217.096 161.076 216.031 160.952C214.965 160.828 213.885 160.926 212.86 161.241C211.834 161.556 210.886 162.08 210.073 162.781C208.857 163.747 207.709 164.794 206.636 165.917C206.005 166.659 205.134 167.157 204.175 167.322C203.215 167.488 202.228 167.311 201.385 166.823L198.325 165.01C197.809 164.757 197.349 164.404 196.972 163.971C196.594 163.538 196.307 163.034 196.128 162.488C195.948 161.943 195.88 161.367 195.926 160.794C195.973 160.221 196.133 159.664 196.398 159.155C196.992 157.449 197.348 155.669 197.456 153.866C197.615 151.903 197.001 149.955 195.745 148.438C194.489 146.921 192.69 145.954 190.732 145.744C188.843 145.441 186.954 145.744 184.952 145.366C183.994 145.368 183.071 145.007 182.37 144.354C181.668 143.702 181.241 142.808 181.174 141.853C181.011 140.804 180.771 139.769 180.456 138.755C180.164 137.765 180.241 136.704 180.672 135.766C181.102 134.828 181.858 134.079 182.798 133.655C184.606 132.716 186.293 131.562 187.823 130.217C189.143 129.015 189.976 127.37 190.164 125.595C190.352 123.819 189.882 122.036 188.843 120.584C187.941 119.202 186.875 117.933 185.67 116.806C185.164 116.465 184.734 116.023 184.407 115.507C184.081 114.991 183.864 114.414 183.772 113.81C183.68 113.207 183.714 112.591 183.871 112.002C184.029 111.412 184.306 110.861 184.687 110.384C185.216 109.515 185.707 108.609 186.274 107.74C186.778 106.841 187.599 106.161 188.576 105.833C189.554 105.505 190.618 105.552 191.563 105.964C193.676 106.842 195.968 107.205 198.249 107.022C199.807 106.941 201.294 106.35 202.482 105.339C203.67 104.329 204.493 102.956 204.822 101.431C205.289 99.4133 205.492 97.3436 205.427 95.2735C205.367 94.3262 205.614 93.3849 206.132 92.5888C206.649 91.7928 207.408 91.1844 208.298 90.8536C209.696 90.4381 211.093 90.1359 212.491 89.8336C212.977 89.6714 213.491 89.6097 214.001 89.6522C214.511 89.6946 215.008 89.8405 215.46 90.0807C215.912 90.321 216.311 90.6507 216.632 91.0498C216.953 91.449 217.189 91.9092 217.327 92.4025C218.28 94.6033 219.743 96.5457 221.595 98.069C223.042 99.1464 224.816 99.6931 226.618 99.6175C228.42 99.5418 230.142 98.8483 231.493 97.6535C232.582 96.7857 233.593 95.8251 234.515 94.7824C235.168 94.0371 236.059 93.54 237.036 93.3748C238.013 93.2096 239.018 93.3866 239.88 93.8758L243.393 95.9535C244.237 96.4524 244.87 97.2408 245.176 98.172C245.482 99.1032 245.439 100.114 245.055 101.016C244.266 102.984 243.881 105.091 243.922 107.211C243.907 109.062 244.572 110.853 245.791 112.246C247.009 113.638 248.697 114.535 250.533 114.766C252.247 115.012 253.977 115.126 255.708 115.106C256.763 115 257.818 115.313 258.645 115.977C259.472 116.641 260.005 117.604 260.128 118.658C260.43 119.866 260.77 121.037 261.035 122.435C261.28 123.352 261.171 124.327 260.73 125.167C260.289 126.006 259.548 126.65 258.655 126.968C256.652 127.853 254.852 129.139 253.366 130.746C252.278 131.837 251.573 133.251 251.355 134.776C251.137 136.301 251.419 137.856 252.157 139.208C253.224 140.939 254.492 142.536 255.935 143.968C256.812 144.63 257.397 145.608 257.566 146.693C257.735 147.779 257.475 148.888 256.841 149.786L255.141 152.619C254.661 153.601 253.812 154.355 252.779 154.715C251.747 155.076 250.614 155.015 249.626 154.546C247.129 153.497 244.364 153.272 241.731 153.903C240.395 154.297 239.194 155.053 238.261 156.086C237.328 157.119 236.698 158.39 236.442 159.759C236.164 161.119 235.962 162.494 235.837 163.877L235.875 163.914ZM220.764 116.844C218.997 116.824 217.244 117.156 215.606 117.819C213.968 118.483 212.478 119.465 211.224 120.709C209.969 121.954 208.974 123.435 208.296 125.067C207.619 126.7 207.273 128.45 207.278 130.217C207.181 132.046 207.458 133.875 208.091 135.593C208.724 137.312 209.7 138.883 210.96 140.211C212.22 141.54 213.738 142.598 215.42 143.321C217.102 144.044 218.914 144.417 220.745 144.417C222.577 144.417 224.389 144.044 226.071 143.321C227.753 142.598 229.271 141.54 230.531 140.211C231.791 138.883 232.767 137.312 233.4 135.593C234.033 133.875 234.31 132.046 234.213 130.217C234.223 128.445 233.879 126.689 233.202 125.052C232.524 123.415 231.525 121.93 230.265 120.684C229.006 119.439 227.509 118.457 225.865 117.798C224.22 117.138 222.46 116.814 220.689 116.844H220.764Z" fill="url(#paint1_linear)"/>
<path d="M201.347 354.122L245.131 357.522C247.2 357.507 249.24 358.013 251.062 358.995C252.368 360.034 253.315 361.458 253.769 363.064C254.223 364.67 254.161 366.379 253.593 367.948C252.388 371.059 250.316 373.76 247.624 375.73C231.72 388.537 209.393 389.179 188.843 389.065L92.1336 388.537C88.3955 388.78 84.6484 388.226 81.1404 386.912C79.4089 386.205 77.9384 384.979 76.9307 383.403C75.923 381.828 75.4273 379.979 75.5117 378.11C75.9194 376.481 76.6785 374.96 77.7356 373.655C78.7927 372.35 80.1224 371.292 81.6315 370.555C90.2704 365.824 99.7329 362.785 109.511 361.602C124.244 358.957 139.002 356.439 153.786 354.046" fill="#E2ECFF"/>
<path d="M461.517 349.551L505.301 352.913C507.375 352.893 509.42 353.414 511.232 354.424C512.53 355.461 513.472 356.878 513.926 358.476C514.38 360.075 514.323 361.775 513.763 363.34C512.553 366.459 510.467 369.161 507.756 371.122C491.89 384.117 469.564 384.608 449.051 384.457L352.304 383.89C348.566 384.119 344.822 383.566 341.311 382.266C339.552 381.575 338.052 380.351 337.023 378.766C335.993 377.181 335.485 375.314 335.568 373.426C335.964 371.791 336.718 370.265 337.777 368.959C338.836 367.652 340.172 366.597 341.688 365.871C350.385 361.163 359.898 358.151 369.719 356.993C384.452 354.349 399.21 351.83 413.994 349.438" fill="#E2ECFF"/>
<path d="M433.487 358.315C433.573 360.584 433.147 362.844 432.24 364.926C431.144 366.853 429.483 368.396 427.48 369.346C423.169 371.579 418.163 372.066 413.503 370.706C413.217 370.693 412.937 370.621 412.681 370.493C412.425 370.365 412.199 370.185 412.018 369.964C411.836 369.743 411.703 369.486 411.627 369.211C411.551 368.935 411.533 368.646 411.576 368.364C411.976 365.78 413.323 363.437 415.354 361.79C417.362 360.171 419.075 358.215 420.416 356.011C422.531 351.704 420.945 340.182 429.105 342.033C435.791 343.469 433.676 353.404 433.487 358.315Z" fill="#CE9E95"/>
<path d="M434.62 365.87C434.62 365.87 435.754 368.704 434.356 370.366C432.958 372.028 418.301 381.132 408.441 373.804C398.581 366.475 421.814 365.531 421.814 365.531L434.62 365.87Z" fill="#4E74FF"/>
<path d="M434.053 359.373C433.603 359.156 433.091 359.105 432.607 359.229C432.123 359.354 431.699 359.646 431.409 360.053C430.447 361.153 429.221 361.99 427.847 362.486C426.472 362.982 424.994 363.119 423.551 362.886C420.34 362.131 419.056 358.429 417.469 358.391C415.883 358.353 407.345 365.644 406.854 368.742C406.363 371.839 410.632 374.144 415.543 374.446C420.454 374.748 431.258 371.424 433.336 368.893C434.214 367.481 434.737 365.879 434.862 364.221C434.987 362.563 434.71 360.9 434.053 359.373Z" fill="white"/>
<path d="M461.441 362.659C461.528 364.929 461.102 367.188 460.195 369.27C459.099 371.197 457.437 372.74 455.435 373.69C451.129 375.936 446.123 376.436 441.457 375.088C440.817 374.963 440.241 374.615 439.833 374.106C439.6 373.679 439.495 373.193 439.531 372.708C439.931 370.124 441.277 367.782 443.308 366.135C445.317 364.515 447.03 362.56 448.371 360.355C450.486 356.048 448.899 344.526 457.059 346.377C463.746 347.926 461.63 357.862 461.441 362.659Z" fill="#CE9E95"/>
<path d="M462.575 370.479C462.575 370.479 463.708 373.313 462.31 374.975C460.913 376.637 446.255 385.741 436.395 378.412C426.535 371.084 449.731 370.139 449.731 370.139L462.575 370.479Z" fill="#4E74FF"/>
<path d="M462.009 363.868C461.562 363.635 461.044 363.575 460.556 363.701C460.067 363.826 459.643 364.128 459.364 364.548C458.394 365.636 457.166 366.462 455.793 366.95C454.42 367.439 452.946 367.574 451.507 367.344C448.295 366.588 447.011 362.886 445.424 362.848C443.838 362.811 435.3 370.102 434.809 373.199C434.318 376.297 438.587 378.601 443.498 378.904C448.409 379.206 459.213 375.881 461.291 373.35C462.168 371.946 462.692 370.349 462.817 368.698C462.942 367.046 462.665 365.389 462.009 363.868Z" fill="white"/>
<path d="M418.64 233.198C418.64 233.198 411.085 278.53 420.227 350.911L435.942 352.838L446.86 238.184L418.64 233.198Z" fill="url(#paint2_linear)"/>
<path d="M467.26 242.339C467.26 242.339 468.808 326.053 462.575 354.008L446.86 355.935L435.942 241.206L467.26 242.339Z" fill="url(#paint3_linear)"/>
<path d="M400.394 197.158C400.394 200.18 401.565 202.825 404.172 203.694C404.388 203.791 404.617 203.855 404.852 203.883C409.687 204.865 416.185 201.2 420.454 197.989C422.284 196.655 424.038 195.217 425.705 193.683V161.346L402.208 185.41C400.975 189.203 400.363 193.17 400.394 197.158Z" fill="url(#paint4_linear)"/>
<path d="M420.076 197.876C420.076 199.387 420.076 200.936 420.076 202.447C420.076 210.796 422.003 219.409 419.509 227.607C418.71 229.355 418.472 231.308 418.829 233.198C419.557 234.705 420.805 235.899 422.342 236.56C429.953 240.129 438.142 242.304 446.52 242.982C452.753 243.851 461.631 245.702 467.411 242.34C469.605 240.708 471.07 238.279 471.49 235.578C473.681 226.921 474.948 218.057 475.268 209.134C475.268 208 475.268 206.829 475.495 205.658C475.986 197.687 476.137 189.641 475.986 181.67C475.986 175.852 475.419 169.581 471.642 165.199C465.534 159.415 457.814 155.622 449.504 154.319C447.095 153.823 444.626 153.683 442.175 153.904C438.722 154.457 435.388 155.594 432.316 157.266C428.673 158.51 425.575 160.98 423.551 164.255C421.516 168.414 420.079 172.839 419.283 177.401C418.621 181.703 418.545 186.074 419.056 190.396C419.283 192.512 419.811 194.627 420.038 196.705C420.076 197.121 420.076 197.498 420.076 197.876Z" fill="url(#paint5_linear)"/>
<path opacity="0.1" d="M454.189 245.173C456.606 245.891 462.197 243.7 464.048 243.36C465.144 243.36 466.164 242.604 467.259 242.34C472.813 240.942 473.455 225.416 473.984 221.222C475.895 210.111 477.156 198.897 477.761 187.639C478.014 183.354 477.515 179.058 476.288 174.946C475.675 172.884 474.616 170.984 473.187 169.378C471.757 167.772 469.991 166.5 468.015 165.652C460.951 163.121 458.835 185.485 457.853 190.094L452.564 215.367C451.81 218.481 451.317 221.653 451.091 224.849C451.217 228.737 452.022 232.572 453.471 236.182C454.113 238.411 452.337 242.604 453.206 244.229C453.276 244.457 453.403 244.663 453.575 244.829C453.746 244.994 453.958 245.112 454.189 245.173Z" fill="#020202"/>
<path d="M437.151 147.255C438.033 148.226 439.245 148.833 440.551 148.955C441.645 149.049 442.744 149.049 443.838 148.955H444.48C444.616 148.916 444.76 148.916 444.896 148.955C445.024 149.089 445.104 149.261 445.122 149.446C445.311 151.633 445.311 153.832 445.122 156.019V157.19C445.008 157.598 445.008 158.029 445.122 158.437C445.349 158.928 445.916 159.117 446.445 159.306C447.404 159.637 448.414 159.803 449.429 159.797C451.587 159.598 453.662 158.871 455.473 157.681C455.308 153.893 455.51 150.097 456.078 146.348C457.134 141.626 457.616 136.793 457.513 131.955C457.389 130.055 456.691 128.237 455.511 126.742C454.571 125.832 453.449 125.132 452.218 124.689C450.987 124.246 449.675 124.07 448.371 124.173C444.919 124.103 441.521 125.035 438.587 126.855C437.491 127.573 437.378 128.517 437.114 129.726C436.774 131.615 436.471 133.504 436.245 135.468C436.018 137.433 435.867 139.813 435.829 142.042C435.616 143.883 436.086 145.738 437.151 147.255Z" fill="#CE9E95"/>
<path d="M439.418 120.509C438.75 120.623 438.14 120.956 437.682 121.455C437.223 121.954 436.944 122.591 436.887 123.266C436.863 123.948 437.07 124.617 437.475 125.166C437.88 125.714 438.458 126.11 439.116 126.288C439.015 127.061 439.213 127.843 439.669 128.475C440.126 129.107 440.806 129.541 441.571 129.688C443.118 129.914 444.697 129.718 446.142 129.122C446.929 130.098 448.04 130.761 449.274 130.99C450.507 131.219 451.782 130.998 452.867 130.368V131.237C453.586 132.746 454.034 134.37 454.189 136.035L453.773 139.246C453.868 138.417 454.286 137.658 454.937 137.135C455.588 136.611 456.418 136.366 457.249 136.45C457.48 136.426 457.714 136.45 457.935 136.522C458.156 136.594 458.36 136.711 458.533 136.866C458.676 137.095 458.767 137.353 458.798 137.622C458.822 138.121 458.724 138.62 458.514 139.074C458.303 139.527 457.986 139.924 457.589 140.228C457.022 140.606 456.304 140.87 456.04 141.513C455.853 142.128 455.853 142.786 456.04 143.401C456.193 144.125 456.113 144.879 455.813 145.555L456.871 145.29C457.183 145.124 457.475 144.921 457.74 144.686C458.028 144.367 458.242 143.988 458.366 143.576C458.49 143.165 458.521 142.731 458.458 142.306C459.021 142.308 459.576 142.174 460.077 141.917C460.577 141.659 461.009 141.285 461.335 140.826C461.661 140.367 461.871 139.836 461.949 139.278C462.027 138.721 461.97 138.152 461.782 137.622C462.061 137.585 462.33 137.492 462.573 137.35C462.816 137.208 463.028 137.019 463.197 136.794C463.365 136.569 463.488 136.312 463.556 136.039C463.625 135.766 463.638 135.482 463.595 135.204C463.372 134.079 462.85 133.035 462.084 132.182C462.969 132.172 463.815 131.813 464.437 131.184C465.059 130.554 465.409 129.705 465.409 128.82C465.333 128.306 465.333 127.784 465.409 127.271C465.629 126.687 465.934 126.14 466.315 125.646C466.652 124.998 466.772 124.259 466.656 123.538C466.541 122.817 466.196 122.152 465.673 121.642C464.917 120.962 463.86 120.622 463.293 119.791C462.989 119.016 462.798 118.202 462.726 117.373C462.046 114.313 458.646 112.878 455.662 111.895C454.86 111.569 453.995 111.427 453.131 111.48C452.702 111.513 452.296 111.687 451.975 111.974C451.655 112.26 451.437 112.644 451.355 113.067C450.543 112.382 449.542 111.961 448.484 111.858C447.464 111.858 446.331 112.802 446.596 113.784C446.18 112.122 443.384 116.429 443.233 116.542C441.382 117.675 438.549 116.542 439.418 120.509Z" fill="#37446F"/>
<path d="M443.838 149.03H444.48C444.616 148.991 444.76 148.991 444.896 149.03C445.024 149.164 445.103 149.337 445.122 149.521C445.311 151.708 445.311 153.908 445.122 156.095C447.074 155.494 448.757 154.236 449.886 152.536C451.016 150.835 451.521 148.795 451.318 146.764C448.885 147.763 446.352 148.497 443.762 148.955L443.838 149.03Z" fill="#AF807A"/>
<path d="M380.599 188.81C383.688 193.218 387.523 197.054 391.932 200.143C395.096 202.275 398.747 203.575 402.547 203.92C403.046 203.972 403.551 203.907 404.021 203.732C404.831 203.493 405.545 203.003 406.061 202.334C407.646 200.446 408.598 198.106 408.781 195.647C409.045 189.187 402.056 185.447 402.056 185.447C402.056 185.447 386.152 180.385 384.263 181.216C383.243 181.632 382.261 183.899 381.581 185.825C380.901 187.752 380.599 188.81 380.599 188.81Z" fill="url(#paint6_linear)"/>
<path opacity="0.1" d="M380.599 188.809C383.688 193.218 387.523 197.053 391.932 200.143C395.096 202.275 398.747 203.575 402.547 203.92C403.046 203.972 403.551 203.907 404.021 203.731C404.236 203.829 404.466 203.893 404.701 203.92C409.536 204.903 416.034 201.238 420.303 198.027L418.791 188.356C415.898 191.398 412.53 193.949 408.818 195.912C406.205 197.311 403.219 197.852 400.281 197.46C399.484 197.345 398.708 197.116 397.976 196.78C392.017 193.874 386.476 190.176 381.506 185.787C380.977 187.412 380.599 188.809 380.599 188.809Z" fill="#020202"/>
<path d="M485.883 199.349C488.337 204.903 489.401 210.972 488.981 217.029C487.923 224.282 483.088 230.364 478.441 235.918C474.664 236.484 470.017 236.409 468.695 232.933C468.391 231.814 468.314 230.645 468.468 229.495L468.997 221.94C469.429 218.611 469.25 215.231 468.468 211.967C467.024 208.416 465.133 205.065 462.839 201.994C459.529 196.73 457.545 190.741 457.06 184.541C456.644 178.723 461.064 159.91 469.639 165.652C473.19 167.994 476.364 177.665 478.252 181.556C481.124 187.374 483.667 193.305 485.883 199.349Z" fill="url(#paint7_linear)"/>
<path d="M466.504 241.206C466.313 241.485 466.208 241.813 466.201 242.151C466.202 242.241 466.225 242.33 466.267 242.409C466.309 242.489 466.369 242.558 466.443 242.61C466.517 242.661 466.602 242.695 466.692 242.707C466.781 242.719 466.872 242.71 466.957 242.68C467.826 245.362 466.013 248.195 466.013 251.028C465.975 251.279 465.975 251.533 466.013 251.784C466.151 252.092 466.373 252.354 466.655 252.539C467.13 252.84 467.674 253.015 468.236 253.048C468.798 253.081 469.358 252.971 469.866 252.728C470.882 252.243 471.793 251.562 472.548 250.726C474.172 249.234 475.405 247.366 476.137 245.286C476.407 244.323 476.584 243.337 476.666 242.34L477.572 234.784C472.17 233.084 469.073 236.749 466.504 241.206Z" fill="#CE9E95"/>
<path d="M381.506 174.983C381.349 174.477 381.063 174.021 380.675 173.661C380.587 173.57 380.481 173.497 380.364 173.447C380.247 173.398 380.122 173.372 379.995 173.372C379.868 173.372 379.742 173.398 379.625 173.447C379.508 173.497 379.403 173.57 379.315 173.661C379.165 173.928 379.074 174.225 379.05 174.53C378.904 174.858 378.665 175.136 378.363 175.33C378.061 175.525 377.709 175.628 377.35 175.626C376.631 175.579 375.926 175.4 375.273 175.097C373.377 174.408 371.448 173.816 369.493 173.321C369.039 173.171 368.549 173.171 368.095 173.321C367.857 173.445 367.648 173.616 367.479 173.824C367.31 174.032 367.185 174.272 367.113 174.53C366.707 175.721 366.605 176.994 366.816 178.234C367.027 179.475 367.545 180.643 368.322 181.632C369.913 183.602 372.078 185.028 374.517 185.712C376.984 186.373 379.52 186.741 382.072 186.808C382.702 186.896 383.344 186.805 383.923 186.543C386.946 184.805 382.375 176.986 381.506 174.983Z" fill="#CE9E95"/>
<path d="M199.76 231.422C199.76 231.422 199.76 266.404 197.267 272.75C190.807 290.506 182.156 297.759 182.156 297.759C178.756 310.628 175.381 323.51 172.032 336.405C175.318 340.182 180.796 343.96 184.498 340.673C185.465 339.704 186.223 338.547 186.727 337.273L204.52 298.514C208.37 290.978 211.24 282.98 213.058 274.715V273.997V273.808C213.058 273.317 213.322 271.693 213.549 269.35C214.115 262.513 212.982 230.176 209.771 221.676C209.771 221.676 197.796 225.793 194.358 221.109L199.76 231.422Z" fill="#4E74FF"/>
<path d="M199.76 231.422C199.76 231.422 199.76 266.404 197.267 272.75C190.807 290.505 182.156 297.759 182.156 297.759C178.756 310.628 175.381 323.51 172.032 336.404C175.318 340.182 180.796 343.96 184.498 340.673C185.465 339.704 186.223 338.547 186.727 337.273L204.52 298.514C208.37 290.978 211.24 282.98 213.058 274.715V273.997V273.808C213.058 273.317 213.322 271.692 213.549 269.35C214.115 262.513 213.095 236.333 210.073 227.795C208.158 228.134 206.188 227.997 204.338 227.398C202.487 226.799 200.812 225.755 199.458 224.358L199.76 231.422Z" fill="url(#paint8_linear)"/>
<path d="M169.954 226.398C166.781 231.063 165.573 236.79 166.591 242.34C167.8 250.688 173.769 257.45 174.978 265.686C175.209 267.806 174.729 269.943 173.615 271.762C172.501 273.58 170.814 274.977 168.82 275.734L145.55 287.747C141.518 289.407 138.017 292.137 135.425 295.643C134.228 297.421 133.764 299.592 134.13 301.704C134.496 303.816 135.664 305.705 137.39 306.976L182.193 297.872C190.84 292.619 197.243 284.359 200.175 274.677C201.875 268.141 199.571 224.358 199.571 224.358C192.318 217.407 189.824 220.013 185.329 214.724C179.927 218.804 173.996 220.92 169.954 226.398Z" fill="url(#paint9_linear)"/>
<path d="M133.839 314.154C133.839 316.685 134.331 319.707 132.404 321.407C132.326 321.505 132.229 321.586 132.118 321.644C132.008 321.703 131.886 321.738 131.762 321.747C131.393 321.74 131.041 321.591 130.779 321.332C126.36 317.554 125.188 311.245 124.811 305.427C124.542 303.964 124.796 302.454 125.528 301.159C126.548 300.099 127.865 299.375 129.306 299.081C131.601 298.379 133.826 297.468 135.955 296.361C135.313 296.701 135.539 300.479 135.539 301.121C135.826 302.538 135.965 303.981 135.955 305.427C135.535 306.713 135.043 307.975 134.482 309.205C134.007 310.81 133.79 312.481 133.839 314.154Z" fill="#FDB9A9"/>
<path d="M182.836 350.08C184.022 351.887 184.652 354.001 184.65 356.162C184.62 356.555 184.461 356.927 184.196 357.22C183.403 357.975 182.119 357.446 181.25 356.842C177.914 354.182 175.053 350.976 172.788 347.36C172.424 346.94 172.176 346.432 172.07 345.886C172.048 345.148 172.259 344.421 172.674 343.809L175.243 339.087C175.312 338.938 175.416 338.809 175.545 338.709C175.717 338.651 175.903 338.651 176.074 338.709C177.433 338.979 178.762 339.384 180.041 339.918C181.779 340.635 181.816 340.711 181.628 342.487C181.369 345.079 181.785 347.695 182.836 350.08Z" fill="#FDB9A9"/>
<path d="M169.954 350.08C169.881 350.326 169.881 350.589 169.954 350.835C169.954 351.175 170.37 351.402 170.634 351.591C172.131 352.792 173.499 354.147 174.714 355.633C177.438 358.357 180.355 360.882 183.441 363.188C184.023 363.791 184.722 364.269 185.495 364.594C186.267 364.918 187.098 365.083 187.936 365.077C188.123 365.115 188.316 365.115 188.503 365.077C188.707 364.862 188.828 364.58 188.843 364.284C189.133 361.699 188.701 359.084 187.596 356.728C187.25 355.8 186.738 354.943 186.085 354.197C185.743 353.83 185.328 353.539 184.865 353.343C184.403 353.148 183.905 353.053 183.403 353.064C182.307 353.064 181.325 353.971 180.192 353.971C179.067 353.784 178.061 353.16 177.396 352.233C176.52 351.24 175.724 350.179 175.016 349.06C174.488 348.229 173.996 346.718 173.128 346.189C171.125 344.753 170.332 348.795 169.954 350.08Z" fill="#4E74FF"/>
<path d="M122.393 302.179C122.236 302.266 122.1 302.386 121.995 302.531C121.889 302.676 121.815 302.842 121.78 303.018C121.744 303.193 121.746 303.375 121.787 303.549C121.827 303.724 121.905 303.888 122.015 304.03C122.653 306.11 123.083 308.249 123.299 310.414C124.108 314.763 125.244 319.044 126.699 323.22C126.876 324.164 127.237 325.064 127.762 325.868C128.287 326.672 128.966 327.364 129.759 327.905C129.983 327.958 130.216 327.958 130.439 327.905C130.763 327.816 131.053 327.632 131.27 327.376C133.239 325.102 134.545 322.332 135.048 319.367C135.275 318.245 135.275 317.089 135.048 315.967C134.959 315.405 134.751 314.868 134.439 314.393C134.126 313.917 133.716 313.514 133.235 313.209C132.139 312.605 130.704 312.756 129.646 312.001C129.163 311.575 128.775 311.052 128.508 310.466C128.241 309.88 128.101 309.245 128.097 308.601C127.91 307.11 127.834 305.607 127.87 304.105C127.87 302.934 128.362 301.196 127.87 300.328C126.851 297.872 123.526 301.196 122.393 302.179Z" fill="#4E74FF"/>
<path d="M213.058 141.777C212.419 147.026 210.913 152.133 208.6 156.888C208.455 157.377 208.149 157.803 207.731 158.097C207.331 158.287 206.887 158.365 206.447 158.324L188.843 158.097C187.445 158.097 185.707 157.87 185.065 156.548C184.498 157.719 182.874 157.795 181.589 157.644C175.962 156.995 170.505 155.304 165.496 152.657C167.408 145.813 169.859 139.13 172.825 132.673C173.839 130.391 175.231 128.296 176.943 126.477C179.258 124.283 182.032 122.631 185.065 121.642C192.62 118.922 203.387 117.411 209.167 124.4C210.955 126.884 212.221 129.704 212.89 132.69C213.559 135.677 213.616 138.768 213.058 141.777Z" fill="#FE8A35"/>
<path d="M212.529 166.786C219.593 174.077 226.847 181.254 233.76 188.696C235.926 187.153 238.198 185.765 240.56 184.541C243.733 183.256 264.397 172.792 272.368 171.168C276.637 170.297 281.059 170.531 285.212 171.848C285.898 172.005 286.495 172.425 286.874 173.019C287.441 174.152 286.194 175.399 284.985 175.663C283.709 175.758 282.444 175.973 281.208 176.305C280.199 176.903 279.335 177.716 278.677 178.685C277.313 180.217 275.644 181.445 273.777 182.291C271.909 183.137 269.885 183.582 267.835 183.596C266.135 183.596 264.397 182.765 262.735 182.879C260.44 183.523 258.33 184.701 256.577 186.316C251.024 190.094 246.075 194.892 240.446 198.669C239.355 199.546 238.052 200.119 236.669 200.332C235.361 200.325 234.07 200.028 232.891 199.463C224.558 196.709 216.854 192.331 210.225 186.581C209.68 186.089 209.231 185.5 208.902 184.843C208.689 184.159 208.587 183.444 208.6 182.728C208.6 179.781 208.6 176.797 208.6 173.85C208.602 172.541 208.899 171.25 209.469 170.072C209.784 169.472 210.287 168.992 210.902 168.706C211.516 168.419 212.207 168.342 212.869 168.486" fill="#FDB9A9"/>
<path d="M225.978 189.867C226.654 190.421 227.404 190.878 228.206 191.227C229.984 191.804 231.867 191.984 233.722 191.756C236.539 191.693 239.356 191.857 242.146 192.247C242.855 192.299 243.542 192.519 244.148 192.889C244.441 193.079 244.666 193.357 244.788 193.684C244.91 194.01 244.925 194.368 244.828 194.703C244.638 195.063 244.367 195.373 244.035 195.609C241.943 197.643 239.327 199.055 236.48 199.689C232.935 199.775 229.464 198.671 226.62 196.554L220.424 192.776C219.491 192.329 218.676 191.669 218.044 190.849C217.175 189.49 216.987 185.75 219.102 185.372C221.218 184.994 224.58 188.923 225.978 189.867Z" fill="#DE9F93"/>
<path d="M208.902 161.874C206.673 160.174 204.067 161.346 201.347 161.459C198.627 161.572 195.265 161.686 192.243 161.459C186.463 161.27 177.132 160.666 171.805 166.974C165.459 174.53 170.445 186.996 173.732 194.929C174.892 197 175.709 199.246 176.15 201.578C176.489 204.161 176.489 206.777 176.15 209.36C175.409 214.403 173.423 219.181 170.37 223.262C169.665 223.933 169.107 224.743 168.73 225.64C168.353 226.537 168.165 227.502 168.179 228.475C168.435 229.315 168.872 230.089 169.459 230.742C170.047 231.394 170.77 231.91 171.579 232.253C177.618 235.781 184.424 237.79 191.412 238.109C194.672 238.057 197.916 237.639 201.082 236.862C203.954 236.409 207.089 237.391 209.205 234.709C209.863 233.765 210.325 232.699 210.564 231.573C212.982 222.469 212.944 212.685 216.571 204.071C218.498 199.387 221.746 193.721 221.444 188.507C221.23 186.496 220.695 184.531 219.858 182.69C218.044 178.119 216.08 173.623 213.889 169.241C212.801 166.442 211.097 163.924 208.902 161.874Z" fill="white"/>
<path d="M201.762 163.763C201.762 163.763 199.873 168.523 187.293 161.497C187.293 161.497 190.693 161.195 189.749 154.206C189.481 151.8 188.639 149.494 187.293 147.481C187.445 147.636 187.635 147.747 187.844 147.803C188.052 147.859 188.272 147.858 188.481 147.8C188.689 147.743 188.878 147.63 189.028 147.474C189.178 147.318 189.283 147.125 189.333 146.915C189.563 147.607 189.854 148.277 190.202 148.917C192.167 152.695 196.473 157.19 201.271 155.906C200.793 156.817 200.506 157.817 200.428 158.843C200.35 159.87 200.483 160.901 200.818 161.874C201.058 162.539 201.375 163.173 201.762 163.763Z" fill="#FDB9A9"/>
<path d="M200.818 161.874H200.176C195.454 162.366 189.9 148.577 189.9 148.577H190.203C192.167 152.355 196.474 156.85 201.271 155.566C200.744 156.522 200.431 157.581 200.353 158.67C200.274 159.759 200.433 160.853 200.818 161.874Z" fill="#DE9F93"/>
<path d="M197.229 156.435C204.104 157.039 208.335 150.579 209.091 142.155C209.091 141.223 209.091 140.279 209.091 139.322C209.107 136.574 208.79 133.834 208.147 131.162C205.124 118.204 186.727 123.38 186.727 123.38C172.372 129.877 185.065 155.452 197.229 156.435Z" fill="#FDB9A9"/>
<path d="M202.14 123.115C201.92 124.129 201.63 125.126 201.271 126.1C200.692 128.139 199.998 130.145 199.193 132.106C197.799 136.039 195.143 139.4 191.638 141.664C190.821 142.242 189.842 142.547 188.842 142.533C187.898 142.344 187.973 141.626 187.255 140.946C187.013 140.715 186.707 140.563 186.377 140.509C186.046 140.455 185.707 140.502 185.404 140.644C185.156 140.841 184.957 141.095 184.826 141.384C184.695 141.673 184.634 141.989 184.649 142.306C184.662 143.066 184.867 143.81 185.243 144.47C185.619 145.13 186.155 145.685 186.802 146.084C187.413 146.351 187.996 146.68 188.54 147.066C189.182 147.633 189.258 148.464 189.598 149.181L190.731 151.864C191.15 152.708 191.357 153.641 191.335 154.584C191.236 155.127 191.019 155.642 190.699 156.092C190.379 156.543 189.965 156.917 189.484 157.19C186.981 158.471 184.11 158.845 181.362 158.248C179.407 158.139 177.511 157.541 175.847 156.51C174.925 155.764 174.054 154.956 173.24 154.092C171.913 153.118 170.465 152.318 168.934 151.713C170.515 150.622 171.885 149.252 172.976 147.67C173.881 146.178 174.452 144.506 174.647 142.771C174.843 141.036 174.659 139.279 174.109 137.622C173.505 135.506 174.109 124.249 182.042 120.509C187.141 118.275 192.825 117.745 198.249 118.998C199.253 119.153 200.195 119.584 200.969 120.244C201.405 120.572 201.744 121.013 201.95 121.518C202.157 122.024 202.222 122.576 202.14 123.115Z" fill="#FE8A35"/>
<path d="M189.9 201.843L184.649 213.44C177.747 204.606 172.442 194.634 168.972 183.974C165.194 170.488 171.881 167.088 171.881 167.088C177.018 165.199 180.494 172.49 185.518 187.261C188.276 195.383 189.9 201.843 189.9 201.843Z" fill="#FDB9A9"/>
<path d="M184.65 213.44C184.65 213.44 184.423 203.996 189.032 202.107C193.641 200.218 225.827 195.156 225.827 195.156L228.849 198.669C228.849 198.669 197.23 216.916 184.65 213.44Z" fill="#FDB9A9"/>
<path d="M236.857 238.335L236.442 237.92C238.029 239.695 239.086 240.942 239.388 241.32C238.595 240.3 237.726 239.28 236.857 238.335Z" fill="#DC9BD5"/>
<path d="M229.302 194.665C232.06 194.182 234.851 193.904 237.65 193.834C239.159 193.77 240.669 193.897 242.146 194.212C243.994 194.703 245.78 195.4 247.472 196.29C247.926 196.516 248.492 196.818 248.568 197.347C248.576 197.591 248.513 197.832 248.385 198.041C248.257 198.249 248.071 198.415 247.85 198.518C247.401 198.709 246.932 198.848 246.452 198.934C245.432 199.274 244.526 199.954 243.544 200.37C241.957 201.012 240.144 200.936 238.519 201.503C237.499 201.881 236.555 202.523 235.535 202.938C233.397 203.769 231.025 203.769 228.886 202.938C228.151 202.65 227.433 202.322 226.733 201.956C226.062 201.56 225.353 201.231 224.617 200.974C224.126 200.974 223.786 200.974 223.408 200.521C223.077 199.946 222.902 199.295 222.902 198.632C222.902 197.969 223.077 197.317 223.408 196.743C224.352 195.892 225.576 195.421 226.846 195.421L229.302 194.665Z" fill="#FDB9A9"/>
<path d="M166.932 171.697C166.121 174.152 165.564 176.683 165.27 179.252L164.779 182.728C164.562 183.442 164.562 184.204 164.779 184.919C165.383 186.127 167.687 185.636 168.821 185.825L175.016 186.807L187.369 188.621C187.634 186.513 187.634 184.381 187.369 182.274C186.991 180.31 186.123 178.496 185.631 176.494C185.14 174.492 185.065 173.208 184.687 171.734C183.813 168.404 181.827 165.471 179.058 163.423C174.714 160.25 168.367 167.919 167.045 171.394L166.932 171.697Z" fill="white"/>
<path d="M379.843 113.671H247.85V232.291H379.843V113.671Z" fill="white"/>
<path d="M281.996 192.115L265.828 192.189L265.937 216.215L282.105 216.141L281.996 192.115Z" fill="#4E74FF"/>
<path d="M301.828 167.093L285.66 167.166L285.882 216.087L302.05 216.014L301.828 167.093Z" fill="#4E74FF"/>
<path d="M321.861 186.155L305.692 186.228L305.827 216.034L321.996 215.96L321.861 186.155Z" fill="#4E74FF"/>
<path d="M341.612 151.423L325.443 151.497L325.736 215.944L341.904 215.87L341.612 151.423Z" fill="#4E74FF"/>
<path d="M301.828 167.093L285.66 167.166L285.882 216.087L302.05 216.014L301.828 167.093Z" fill="url(#paint10_linear)"/>
<path d="M341.612 151.423L325.443 151.497L325.736 215.944L341.904 215.87L341.612 151.423Z" fill="url(#paint11_linear)"/>
<path d="M361.476 133.351L345.307 133.425L345.681 215.853L361.85 215.78L361.476 133.351Z" fill="#4E74FF"/>
<path d="M325.974 333.269L293.448 332.211L297.49 355.406L320.534 356.124L325.974 333.269Z" fill="#4E74FF"/>
<path d="M325.974 333.269L293.448 332.211L297.49 355.406L320.534 356.124L325.974 333.269Z" fill="#37446F"/>
<path d="M290.841 276.226C290.014 277.85 289.611 279.656 289.67 281.477C288.93 289.685 289.646 297.96 291.785 305.919C295.563 317.441 303.798 326.734 311.996 335.649C311.354 334.667 313.205 329.454 313.432 328.094C313.923 325.638 314.451 323.221 314.943 320.803C315.468 316.909 315.12 312.947 313.923 309.205C311.882 300.681 307.856 292.759 302.174 286.086C298.897 282.265 295.079 278.943 290.841 276.226Z" fill="#4E74FF"/>
<path d="M290.841 276.226C290.014 277.85 289.611 279.656 289.67 281.477C288.93 289.685 289.646 297.96 291.785 305.919C295.563 317.441 303.798 326.734 311.996 335.649C311.354 334.667 313.205 329.454 313.432 328.094C313.923 325.638 314.451 323.221 314.943 320.803C315.468 316.909 315.12 312.947 313.923 309.205C311.882 300.681 307.856 292.759 302.174 286.086C298.897 282.265 295.079 278.943 290.841 276.226Z" fill="url(#paint12_linear)"/>
<path d="M327.183 304.03C330.196 298.05 332.406 291.699 333.756 285.141C334.429 281.845 334.442 278.449 333.794 275.148C333.145 271.848 331.848 268.708 329.978 265.913L314.225 289.788C310.976 294.233 308.427 299.151 306.67 304.37C305.423 309.69 305.307 315.213 306.329 320.582C307.35 325.95 309.487 331.045 312.601 335.536C316.114 332.514 317.776 325.6 319.703 321.332L327.183 304.03Z" fill="#4E74FF"/>
<path d="M327.183 304.03C330.196 298.05 332.406 291.699 333.756 285.141C334.429 281.845 334.442 278.449 333.794 275.148C333.145 271.848 331.848 268.708 329.978 265.913L314.225 289.788C310.976 294.233 308.427 299.151 306.67 304.37C305.423 309.69 305.307 315.213 306.329 320.582C307.35 325.95 309.487 331.045 312.601 335.536C316.114 332.514 317.776 325.6 319.703 321.332L327.183 304.03Z" fill="url(#paint13_linear)"/>
<path d="M327.466 325.325L292.616 324.199C289.696 324.105 287.254 326.386 287.16 329.295C287.066 332.204 289.356 334.639 292.276 334.733L327.126 335.859C330.045 335.953 332.488 333.672 332.582 330.763C332.676 327.854 330.385 325.419 327.466 325.325Z" fill="#37446F"/>
<path d="M293.863 162.781C295.344 162.781 296.545 161.58 296.545 160.099C296.545 158.618 295.344 157.417 293.863 157.417C292.382 157.417 291.181 158.618 291.181 160.099C291.181 161.58 292.382 162.781 293.863 162.781Z" fill="#4E74FF"/>
<path d="M271.31 188.356C272.791 188.356 273.992 187.156 273.992 185.674C273.992 184.193 272.791 182.992 271.31 182.992C269.829 182.992 268.628 184.193 268.628 185.674C268.628 187.156 269.829 188.356 271.31 188.356Z" fill="#4E74FF"/>
<path d="M313.28 183.294C314.762 183.294 315.963 182.093 315.963 180.612C315.963 179.131 314.762 177.93 313.28 177.93C311.799 177.93 310.598 179.131 310.598 180.612C310.598 182.093 311.799 183.294 313.28 183.294Z" fill="#4E74FF"/>
<path d="M332.547 148.539C334.028 148.539 335.229 147.339 335.229 145.857C335.229 144.376 334.028 143.175 332.547 143.175C331.066 143.175 329.865 144.376 329.865 145.857C329.865 147.339 331.066 148.539 332.547 148.539Z" fill="#4E74FF"/>
<path d="M353.588 131.728C355.07 131.728 356.271 130.528 356.271 129.046C356.271 127.565 355.07 126.364 353.588 126.364C352.107 126.364 350.906 127.565 350.906 129.046C350.906 130.528 352.107 131.728 353.588 131.728Z" fill="#4E74FF"/>
<path d="M271.915 186.203L270.668 185.107L293.863 158.852L313.092 180.083L332.018 145.215L353.06 128.366L354.08 129.688L333.189 146.386L313.432 182.992L293.863 161.345L271.915 186.203Z" fill="#4E74FF"/>
<path opacity="0.31" d="M349.622 76.0451C349.622 79.7056 348.17 83.2167 345.585 85.8085C343 88.4004 339.493 89.8615 335.833 89.8715H300.36C296.693 89.8715 293.177 88.4148 290.584 85.8219C287.991 83.2289 286.534 79.7121 286.534 76.0451C286.534 72.3781 287.991 68.8613 290.584 66.2684C293.177 63.6754 296.693 62.2187 300.36 62.2187H305.46C305.441 61.8538 305.441 61.4881 305.46 61.1232C305.4 57.7568 306.68 54.5044 309.018 52.0814C311.356 49.6585 314.56 48.2636 317.927 48.2034C321.293 48.1433 324.545 49.423 326.968 51.7609C329.391 54.0988 330.786 57.3034 330.846 60.6699V61.1232C330.866 61.4881 330.866 61.8538 330.846 62.2187H335.946C337.76 62.2187 339.556 62.5766 341.232 63.2719C342.907 63.9672 344.429 64.9863 345.71 66.2707C346.991 67.5551 348.005 69.0796 348.696 70.7568C349.387 72.4341 349.74 74.2312 349.735 76.0451H349.622Z" fill="#4E74FF"/>
<path d="M345.353 74.723C345.353 78.39 343.896 81.9068 341.303 84.4998C338.71 87.0927 335.194 88.5494 331.527 88.5494H296.092C294.218 88.6475 292.344 88.363 290.583 87.7134C288.822 87.0638 287.213 86.0626 285.851 84.7708C284.49 83.479 283.406 81.9237 282.666 80.1995C281.925 78.4754 281.543 76.6185 281.543 74.7419C281.543 72.8654 281.925 71.0085 282.666 69.2843C283.406 67.5601 284.49 66.0048 285.851 64.713C287.213 63.4212 288.822 62.42 290.583 61.7704C292.344 61.1208 294.218 60.8364 296.092 60.9344H301.154C301.154 60.5567 301.154 60.1789 301.154 59.8011C301.154 56.4347 302.491 53.2062 304.872 50.8258C307.252 48.4453 310.481 47.108 313.847 47.108C317.213 47.108 320.442 48.4453 322.822 50.8258C325.203 53.2062 326.54 56.4347 326.54 59.8011C326.56 60.166 326.56 60.5317 326.54 60.8966H331.602C335.253 60.9265 338.745 62.3951 341.319 64.9838C343.894 67.5724 345.343 71.0721 345.353 74.723Z" fill="white"/>
<path d="M457.513 135.431C457.676 135.345 457.857 135.3 458.042 135.3C458.226 135.3 458.407 135.345 458.57 135.431C458.719 135.575 458.824 135.758 458.873 135.96C459.255 136.845 459.283 137.843 458.953 138.749C458.623 139.655 457.959 140.401 457.097 140.833C456.826 141.031 456.518 141.172 456.19 141.248C456.03 141.292 455.86 141.29 455.7 141.243C455.54 141.197 455.396 141.107 455.284 140.984C455.073 140.745 454.964 140.433 454.982 140.115C454.773 139.161 454.913 138.163 455.378 137.303C455.842 136.443 456.6 135.779 457.513 135.431Z" fill="#CE9E95"/>
<path opacity="0.7" d="M425.818 69.0188C425.824 72.0769 425.002 75.0795 423.438 77.7075V77.9342L415.882 91.7606H400.016L393.594 76.8387C392.429 74.5469 391.797 72.0212 391.746 69.4507C391.696 66.8802 392.228 64.3316 393.302 61.9958C394.377 59.6601 395.966 57.5978 397.951 55.9635C399.935 54.3293 402.264 53.1654 404.763 52.559C407.261 51.9527 409.864 51.9197 412.378 52.4625C414.891 53.0053 417.248 54.1098 419.274 55.6933C421.299 57.2767 422.94 59.298 424.073 61.6058C425.207 63.9135 425.803 66.4478 425.818 69.0188Z" fill="url(#paint14_linear)"/>
<path d="M425.818 69.0188C425.824 72.0769 425.002 75.0795 423.438 77.7075V77.9342L415.883 91.7606H400.016L393.594 76.8387C391.714 73.1746 391.221 68.9543 392.207 64.9557C393.193 60.957 395.591 57.4493 398.959 55.0791C401.83 53.0489 405.264 51.966 408.781 51.9814C411.018 51.9814 413.233 52.4221 415.301 53.2783C417.368 54.1345 419.246 55.3894 420.828 56.9715C422.41 58.5536 423.665 60.4318 424.521 62.4989C425.377 64.5659 425.818 66.7814 425.818 69.0188Z" fill="url(#paint15_linear)"/>
<path d="M417.356 68.6788C416.978 76.2342 410.329 91.7605 410.329 91.7605H400.016L393.594 76.8386C391.714 73.1745 391.221 68.9543 392.207 64.9556C393.193 60.957 395.591 57.4493 398.959 55.079C401.086 54.4132 403.341 54.2588 405.539 54.6286C407.738 54.9983 409.818 55.8817 411.611 57.207C413.404 58.5322 414.858 60.2618 415.857 62.2552C416.855 64.2486 417.369 66.4494 417.356 68.6788Z" fill="url(#paint16_linear)"/>
<path d="M404.549 92.3268C404.405 92.3377 404.262 92.2929 404.149 92.2015C404.037 92.1102 403.964 91.9793 403.945 91.8357C401.414 78.576 401.036 76.536 400.961 76.2338C400.939 76.0789 400.977 75.9216 401.069 75.7947C401.161 75.6679 401.298 75.5816 401.452 75.5538H403.076C403.983 75.5538 404.285 75.5538 404.436 74.8738C404.477 74.539 404.638 74.2304 404.889 74.005C405.114 73.8456 405.39 73.7766 405.663 73.8116C405.936 73.8466 406.186 73.983 406.363 74.1938C406.605 74.4712 406.762 74.8121 406.816 75.176L407.269 76.9516C407.269 76.9516 407.269 76.9516 407.269 76.6871C407.338 76.293 407.493 75.919 407.723 75.5916C407.885 75.4164 408.085 75.2809 408.307 75.1957C408.53 75.1105 408.77 75.0779 409.007 75.1005C409.426 75.132 409.817 75.321 410.103 75.6294C410.103 74.9494 410.48 74.2694 410.707 73.6272C410.934 72.985 411.463 72.8339 411.576 72.9094C411.776 72.9151 411.968 72.9896 412.119 73.1204C412.271 73.2511 412.372 73.4301 412.407 73.6272C412.554 74.1574 412.643 74.7021 412.671 75.2516C412.641 75.4139 412.641 75.5804 412.671 75.7427H413.125H413.616H414.674C414.761 75.7454 414.847 75.7671 414.925 75.8062C415.004 75.8454 415.072 75.901 415.127 75.9693C415.161 76.0466 415.179 76.1303 415.179 76.2149C415.179 76.2995 415.161 76.3832 415.127 76.4605L412.067 92.1001C412.065 92.1878 412.043 92.2739 412.004 92.3524C411.965 92.4309 411.909 92.4999 411.841 92.5548C411.773 92.6096 411.693 92.6489 411.608 92.67C411.523 92.691 411.434 92.6932 411.348 92.6766C411.262 92.6599 411.181 92.6247 411.109 92.5735C411.038 92.5222 410.979 92.4561 410.936 92.3797C410.893 92.3032 410.867 92.2184 410.86 92.131C410.853 92.0436 410.866 91.9557 410.896 91.8735L413.805 76.9516H413.2C412.747 76.9516 411.954 77.1782 411.538 76.536C411.367 76.2232 411.276 75.8727 411.274 75.516C411.203 75.8231 411.115 76.1258 411.009 76.4227C410.783 77.2916 410.216 77.4804 409.8 77.4049C409.639 77.3638 409.488 77.2886 409.357 77.1843C409.227 77.0801 409.121 76.9492 409.045 76.8004C409.045 76.8004 409.045 76.5738 408.743 76.5738C408.702 76.5506 408.657 76.5384 408.61 76.5384C408.564 76.5384 408.518 76.5506 408.478 76.5738C408.367 76.7462 408.29 76.9387 408.252 77.1404C408.184 77.4819 408.07 77.8125 407.912 78.1227C407.765 78.3464 407.547 78.5134 407.293 78.5958C407.038 78.6783 406.764 78.6713 406.514 78.576C406.201 78.3649 405.984 78.0392 405.909 77.6693L405.418 75.6294C405.435 75.5547 405.435 75.4774 405.418 75.4027C405.254 75.9146 404.913 76.3515 404.456 76.6352C403.999 76.9189 403.457 77.0311 402.925 76.9516H402.132C402.698 80.0493 404.965 91.8735 404.965 91.8735C404.981 91.948 404.983 92.0251 404.969 92.1001C404.955 92.1751 404.925 92.2465 404.883 92.31C404.841 92.3735 404.786 92.4278 404.722 92.4697C404.658 92.5115 404.587 92.54 404.512 92.5535L404.549 92.3268Z" fill="#4E74FF"/>
<path d="M400.016 91.7225H415.618V96.8224C415.618 98.8262 414.822 100.748 413.405 102.165C411.988 103.582 410.067 104.378 408.063 104.378H407.307C405.304 104.378 403.382 103.582 401.965 102.165C400.548 100.748 399.752 98.8262 399.752 96.8224V91.7225H400.016Z" fill="#4E74FF"/>
</g>
<defs>
<linearGradient id="paint0_linear" x1="149.947" y1="240.454" x2="149.603" y2="131.019" gradientUnits="userSpaceOnUse">
<stop stop-color="#4E74FF"/>
<stop offset="1" stop-color="#59C3FF"/>
</linearGradient>
<linearGradient id="paint1_linear" x1="223.937" y1="169.346" x2="223.682" y2="88.0428" gradientUnits="userSpaceOnUse">
<stop stop-color="#4E74FF"/>
<stop offset="1" stop-color="#59C3FF"/>
</linearGradient>
<linearGradient id="paint2_linear" x1="446.86" y1="259.384" x2="407.342" y2="263.066" gradientUnits="userSpaceOnUse">
<stop stop-color="#36446E"/>
<stop offset="1" stop-color="#6474A3"/>
</linearGradient>
<linearGradient id="paint3_linear" x1="467.43" y1="266.318" x2="427.526" y2="270.237" gradientUnits="userSpaceOnUse">
<stop stop-color="#36446E"/>
<stop offset="1" stop-color="#6474A3"/>
</linearGradient>
<linearGradient id="paint4_linear" x1="414.055" y1="203.263" x2="413.829" y2="160.507" gradientUnits="userSpaceOnUse">
<stop stop-color="#4E74FF"/>
<stop offset="1" stop-color="#59C3FF"/>
</linearGradient>
<linearGradient id="paint5_linear" x1="449.635" y1="242.62" x2="449.188" y2="152.024" gradientUnits="userSpaceOnUse">
<stop stop-color="#4E74FF"/>
<stop offset="1" stop-color="#59C3FF"/>
</linearGradient>
<linearGradient id="paint6_linear" x1="395.814" y1="203.52" x2="395.756" y2="180.676" gradientUnits="userSpaceOnUse">
<stop stop-color="#4E74FF"/>
<stop offset="1" stop-color="#59C3FF"/>
</linearGradient>
<linearGradient id="paint7_linear" x1="474.325" y1="234.87" x2="473.824" y2="163.17" gradientUnits="userSpaceOnUse">
<stop stop-color="#4E74FF"/>
<stop offset="1" stop-color="#59C3FF"/>
</linearGradient>
<linearGradient id="paint8_linear" x1="213.698" y1="250.092" x2="161.229" y2="256.746" gradientUnits="userSpaceOnUse">
<stop stop-color="#36446E"/>
<stop offset="1" stop-color="#6474A3"/>
</linearGradient>
<linearGradient id="paint9_linear" x1="200.801" y1="234.916" x2="120.714" y2="255.666" gradientUnits="userSpaceOnUse">
<stop stop-color="#36446E"/>
<stop offset="1" stop-color="#6474A3"/>
</linearGradient>
<linearGradient id="paint10_linear" x1="3460.43" y1="-12042.2" x2="5967.38" y2="-10585.2" gradientUnits="userSpaceOnUse">
<stop offset="0.01"/>
<stop offset="0.08" stop-opacity="0.69"/>
<stop offset="0.21" stop-opacity="0.32"/>
<stop offset="1" stop-opacity="0"/>
</linearGradient>
<linearGradient id="paint11_linear" x1="3622.58" y1="-16638.8" x2="6433.4" y2="-15401" gradientUnits="userSpaceOnUse">
<stop offset="0.01"/>
<stop offset="0.08" stop-opacity="0.69"/>
<stop offset="0.21" stop-opacity="0.32"/>
<stop offset="1" stop-opacity="0"/>
</linearGradient>
<linearGradient id="paint12_linear" x1="339.599" y1="239.595" x2="245.487" y2="252.329" gradientUnits="userSpaceOnUse">
<stop offset="0.01"/>
<stop offset="0.13" stop-opacity="0.69"/>
<stop offset="0.25" stop-opacity="0.32"/>
<stop offset="1" stop-opacity="0"/>
</linearGradient>
<linearGradient id="paint13_linear" x1="-59791.2" y1="80698.5" x2="-58391.6" y2="80994" gradientUnits="userSpaceOnUse">
<stop offset="0.01"/>
<stop offset="0.13" stop-opacity="0.69"/>
<stop offset="0.25" stop-opacity="0.32"/>
<stop offset="1" stop-opacity="0"/>
</linearGradient>
<linearGradient id="paint14_linear" x1="410.135" y1="91.0334" x2="409.99" y2="51.2984" gradientUnits="userSpaceOnUse">
<stop stop-color="#59C3FF"/>
<stop offset="1" stop-color="#4E74FF"/>
</linearGradient>
<linearGradient id="paint15_linear" x1="407.572" y1="105.851" x2="409.461" y2="46.277" gradientUnits="userSpaceOnUse">
<stop offset="0.01" stop-color="white"/>
<stop offset="1" stop-color="white" stop-opacity="0"/>
</linearGradient>
<linearGradient id="paint16_linear" x1="3510.2" y1="1492.31" x2="3258.62" y2="1339.64" gradientUnits="userSpaceOnUse">
<stop offset="0.01" stop-color="white"/>
<stop offset="1" stop-color="white" stop-opacity="0"/>
</linearGradient>
<clipPath id="clip0">
<rect width="597.059" height="450" fill="white" transform="translate(0.830078)"/>
</clipPath>
</defs>
</svg>
