<svg width="316" height="238" viewBox="0 0 316 238" fill="none" xmlns="http://www.w3.org/2000/svg">
<path d="M219.384 38.433C225.179 49.1945 231.078 60.9366 235.563 72.1884C240.12 83.6331 249.941 93.3097 258.982 101.323C268.964 110.163 279.814 118.032 289.21 127.491C298.605 136.951 306.626 148.387 309.238 161.439C312.195 176.211 307.904 191.683 300.55 204.839C298.262 209.169 295.317 213.119 291.822 216.549C288.189 219.941 283.785 222.408 279.356 224.634C267.494 230.566 255.02 235.171 241.848 236.947C228.136 238.796 214.192 237.976 200.505 236.28C182.1 234.006 163.864 230.156 145.347 229.047C131.998 228.243 118.6 228.902 105.267 229.907C91.0009 230.976 76.4539 232.422 62.5418 229.103C44.2817 224.755 28.4568 212.161 18.7883 196.023C10.3575 181.99 0.881857 155.307 8.25983 139.571C16.12 122.814 37.4261 111.441 51.3784 100.455C57.0043 96.0101 62.6302 91.1156 65.845 84.686C69.4295 77.517 69.6947 69.2147 71.1816 61.3786C76.0038 35.8611 95.2926 13.5986 119.91 5.22404C154.469 -6.55822 196.213 1.26179 216.579 33.6268C217.568 35.1699 218.5 36.7934 219.384 38.433Z" fill="#F3F7FF"/>
<path d="M240.602 195.468H234.22V194.914H240.039V142.85H217.6V65.8874H197.001V65.3328H218.154V142.295H240.602V195.468Z" fill="#4E74FF"/>
<path d="M112.821 106.482H112.259V88.0776H126.621V71.4651H127.175V88.6402H112.821V106.482Z" fill="#4E74FF"/>
<path d="M182.446 183.919H108.586C103.956 183.919 100.203 187.672 100.203 192.302V207.017C100.203 211.647 103.956 215.4 108.586 215.4H182.446C187.075 215.4 190.828 211.647 190.828 207.017V192.302C190.828 187.672 187.075 183.919 182.446 183.919Z" fill="#4E74FF"/>
<path d="M182.446 146.475H108.586C103.956 146.475 100.203 150.228 100.203 154.857V169.573C100.203 174.203 103.956 177.956 108.586 177.956H182.446C187.075 177.956 190.828 174.203 190.828 169.573V154.857C190.828 150.228 187.075 146.475 182.446 146.475Z" fill="#4E74FF"/>
<path d="M182.446 183.919H108.586C103.956 183.919 100.203 187.672 100.203 192.302V207.017C100.203 211.647 103.956 215.4 108.586 215.4H182.446C187.075 215.4 190.828 211.647 190.828 207.017V192.302C190.828 187.672 187.075 183.919 182.446 183.919Z" fill="url(#paint0_linear)"/>
<path d="M182.446 146.475H108.586C103.956 146.475 100.203 150.228 100.203 154.857V169.573C100.203 174.203 103.956 177.956 108.586 177.956H182.446C187.075 177.956 190.828 174.203 190.828 169.573V154.857C190.828 150.228 187.075 146.475 182.446 146.475Z" fill="url(#paint1_linear)"/>
<path d="M191.376 183.919H117.515C112.886 183.919 109.133 187.672 109.133 192.302V207.017C109.133 211.647 112.886 215.4 117.515 215.4H191.376C196.005 215.4 199.758 211.647 199.758 207.017V192.302C199.758 187.672 196.005 183.919 191.376 183.919Z" fill="url(#paint2_linear)"/>
<path d="M199.758 154.857V169.565C199.761 170.669 199.546 171.762 199.125 172.783C198.704 173.803 198.086 174.73 197.305 175.511C196.525 176.291 195.597 176.91 194.577 177.331C193.557 177.752 192.463 177.967 191.359 177.964H117.523C116.421 177.964 115.33 177.746 114.312 177.324C113.294 176.902 112.369 176.283 111.59 175.503C110.812 174.723 110.194 173.797 109.774 172.778C109.354 171.759 109.139 170.667 109.141 169.565V154.857C109.141 152.634 110.024 150.502 111.596 148.93C113.168 147.358 115.3 146.475 117.523 146.475H191.359C192.461 146.472 193.553 146.688 194.572 147.108C195.591 147.528 196.517 148.145 197.297 148.924C198.077 149.703 198.696 150.627 199.118 151.645C199.541 152.664 199.758 153.755 199.758 154.857Z" fill="url(#paint3_linear)"/>
<path d="M199.757 157.325V169.565C199.756 170.851 199.46 172.12 198.891 173.273C198.323 174.427 197.497 175.435 196.478 176.22C196.414 173.616 196.269 166.366 196.478 163.151C196.568 162 196.908 160.882 197.474 159.876C198.041 158.87 198.82 157.999 199.757 157.325Z" fill="#37446F"/>
<path d="M182.446 106.482H108.586C103.956 106.482 100.203 110.235 100.203 114.865V129.581C100.203 134.21 103.956 137.963 108.586 137.963H182.446C187.075 137.963 190.828 134.21 190.828 129.581V114.865C190.828 110.235 187.075 106.482 182.446 106.482Z" fill="#4E74FF"/>
<path d="M182.446 106.482H108.586C103.956 106.482 100.203 110.235 100.203 114.865V129.581C100.203 134.21 103.956 137.963 108.586 137.963H182.446C187.075 137.963 190.828 134.21 190.828 129.581V114.865C190.828 110.235 187.075 106.482 182.446 106.482Z" fill="url(#paint4_linear)"/>
<path d="M191.376 106.482H117.515C112.886 106.482 109.133 110.235 109.133 114.865V129.581C109.133 134.21 112.886 137.963 117.515 137.963H191.376C196.005 137.963 199.758 134.21 199.758 129.581V114.865C199.758 110.235 196.005 106.482 191.376 106.482Z" fill="url(#paint5_linear)"/>
<path d="M175.366 128.014C175.035 128.161 174.764 128.416 174.596 128.737C174.428 129.058 174.374 129.426 174.441 129.782C174.522 130.497 174.859 131.172 174.972 131.879C175.301 133.945 173.581 135.946 171.564 136.468C168.92 137.144 166.211 135.809 163.865 134.419C163.572 134.266 163.302 134.074 163.061 133.848C162.687 133.35 162.459 132.757 162.402 132.137C162.148 130.971 162.006 129.784 161.976 128.592C161.976 125.868 163.173 123.264 163.238 120.555C163.258 118.691 162.763 116.857 161.807 115.256C160.851 113.655 159.472 112.349 157.821 111.481C156.451 110.877 155.041 110.37 153.601 109.962C152.339 109.524 151.114 108.986 149.937 108.355C149.197 107.969 148.385 107.423 148.329 106.595C149.569 106.039 150.929 105.807 152.283 105.92H175.591C175.883 105.892 176.178 105.945 176.443 106.072C176.709 106.275 176.906 106.556 177.005 106.876C178.564 110.613 178.379 114.752 178.701 118.715C178.827 120.65 179.186 122.563 179.77 124.413C180.099 125.418 181.176 127.338 180.501 128.391C179.231 130.352 176.796 127.628 175.366 128.014Z" fill="url(#paint6_linear)"/>
<path d="M196.984 60.9286C196.984 62.3129 196.711 63.6837 196.181 64.9626C195.651 66.2415 194.874 67.4034 193.895 68.3819C192.916 69.3604 191.753 70.1363 190.474 70.6654C189.195 71.1944 187.824 71.4662 186.439 71.4651H114.203C112.794 71.504 111.392 71.2601 110.079 70.7479C108.766 70.2357 107.569 69.4655 106.559 68.4829C105.549 67.5003 104.746 66.3251 104.198 65.0269C103.65 63.7287 103.367 62.3338 103.367 60.9246C103.367 59.5153 103.65 58.1204 104.198 56.8222C104.746 55.524 105.549 54.3489 106.559 53.3662C107.569 52.3836 108.766 51.6134 110.079 51.1012C111.392 50.589 112.794 50.3451 114.203 50.384H116.614C115.746 47.2955 115.606 44.0481 116.204 40.8962C116.801 37.7444 118.12 34.7737 120.058 32.217C121.996 29.6604 124.499 27.5872 127.372 26.1599C130.246 24.7326 133.41 23.9901 136.618 23.9905H142.766C146.571 23.9873 150.304 25.0308 153.556 27.0069C156.808 28.9829 159.453 31.8153 161.203 35.1941C162.959 34.2934 164.904 33.825 166.877 33.8278H168.485C171.799 33.8278 174.978 35.1445 177.322 37.4882C179.666 39.832 180.982 43.0108 180.982 46.3253V46.9442C180.983 48.1077 180.82 49.2655 180.5 50.384H186.48C189.269 50.3968 191.939 51.5131 193.907 53.489C195.876 55.4648 196.982 58.1396 196.984 60.9286Z" fill="white"/>
<path d="M144.663 61.009C145.043 60.3856 145.34 59.7156 145.548 59.0158C146.329 56.8968 147.234 54.8251 148.256 52.8112C148.673 51.8401 149.292 50.9689 150.072 50.2554C151.527 49.066 153.577 49.0338 155.457 49.0579C156.711 49.0579 158.142 49.1785 158.897 50.1751C159.301 50.8371 159.505 51.6019 159.484 52.3772C159.888 58.8301 159.173 65.3042 157.37 71.5133C153.914 71.6902 150.453 71.8429 146.986 71.9714C144.631 72.0679 139.93 73.1931 138.001 71.5053C133.074 67.2135 143.032 63.3397 144.663 61.009Z" fill="url(#paint7_linear)"/>
<path d="M223.868 176.236C223.374 176.236 222.9 176.042 222.547 175.697C222.193 175.351 221.99 174.881 221.979 174.387V162.147C221.979 160.015 221.133 157.971 219.625 156.464C218.118 154.956 216.074 154.11 213.942 154.11C211.811 154.11 209.767 154.956 208.259 156.464C206.752 157.971 205.905 160.015 205.905 162.147V174.387C205.905 174.888 205.706 175.368 205.352 175.723C204.998 176.077 204.518 176.276 204.017 176.276C203.516 176.276 203.035 176.077 202.681 175.723C202.327 175.368 202.128 174.888 202.128 174.387V162.147C202.128 159.013 203.373 156.008 205.588 153.793C207.804 151.577 210.809 150.332 213.942 150.332C217.076 150.332 220.081 151.577 222.296 153.793C224.512 156.008 225.757 159.013 225.757 162.147V174.387C225.746 174.881 225.543 175.351 225.19 175.697C224.836 176.042 224.362 176.236 223.868 176.236Z" fill="white"/>
<path d="M225.757 162.147V174.387C225.755 174.713 225.668 175.033 225.504 175.315C225.341 175.596 225.107 175.831 224.825 175.994C224.536 176.169 224.205 176.261 223.868 176.26C223.37 176.26 222.892 176.063 222.538 175.712C222.185 175.361 221.984 174.885 221.98 174.387V162.147C221.98 160.181 221.259 158.283 219.954 156.812C218.65 155.341 216.851 154.4 214.899 154.166C214.581 154.131 214.262 154.112 213.943 154.11C211.811 154.11 209.767 154.956 208.26 156.464C206.752 157.971 205.906 160.015 205.906 162.147V174.387C205.902 174.713 205.814 175.032 205.651 175.313C205.487 175.595 205.254 175.83 204.973 175.994C204.682 176.169 204.348 176.261 204.009 176.26C203.509 176.258 203.029 176.058 202.676 175.704C202.322 175.35 202.122 174.871 202.12 174.371V162.147C202.124 159.013 203.372 156.009 205.588 153.794C207.804 151.58 210.809 150.334 213.943 150.332C214.262 150.332 214.581 150.348 214.899 150.38C217.855 150.621 220.613 151.964 222.625 154.144C224.637 156.324 225.755 159.18 225.757 162.147Z" fill="#37446F"/>
<path d="M225.757 162.147V174.387C225.853 174.551 225.905 174.737 225.906 174.927C225.907 175.116 225.858 175.303 225.764 175.468C225.67 175.633 225.533 175.769 225.369 175.865C225.205 175.96 225.019 176.01 224.829 176.01C224.639 176.01 224.453 175.96 224.289 175.865C224.124 175.769 223.988 175.633 223.894 175.468C223.8 175.303 223.751 175.116 223.752 174.927C223.753 174.737 223.804 174.551 223.901 174.387V162.147C223.901 160.015 223.054 157.971 221.547 156.464C220.039 154.956 217.995 154.11 215.864 154.11C215.541 154.112 215.219 154.131 214.899 154.166C214.582 154.131 214.262 154.112 213.943 154.11C211.811 154.11 209.767 154.956 208.26 156.464C206.752 157.971 205.906 160.015 205.906 162.147V174.387C206 174.551 206.05 174.736 206.05 174.926C206.05 175.115 206.001 175.301 205.906 175.464C205.812 175.628 205.676 175.764 205.512 175.859C205.348 175.953 205.163 176.003 204.973 176.003C204.784 176.003 204.599 175.953 204.435 175.859C204.271 175.764 204.135 175.628 204.041 175.464C203.946 175.301 203.896 175.115 203.896 174.926C203.897 174.736 203.946 174.551 204.041 174.387V162.147C203.912 160.643 204.096 159.13 204.582 157.701C205.069 156.273 205.847 154.961 206.867 153.849C207.887 152.738 209.127 151.85 210.508 151.243C211.89 150.635 213.382 150.322 214.891 150.322C216.4 150.322 217.892 150.635 219.274 151.243C220.655 151.85 221.895 152.738 222.915 153.849C223.935 154.961 224.713 156.273 225.2 157.701C225.686 159.13 225.871 160.643 225.741 162.147H225.757Z" fill="#B4C4E4"/>
<path d="M226.955 174.339H199.79C195.777 174.339 192.524 177.592 192.524 181.604V208.769C192.524 212.782 195.777 216.035 199.79 216.035H226.955C230.968 216.035 234.22 212.782 234.22 208.769V181.604C234.22 177.592 230.968 174.339 226.955 174.339Z" fill="#4E74FF"/>
<path d="M226.955 174.347H199.782C195.774 174.347 192.524 177.596 192.524 181.604V208.777C192.524 212.786 195.774 216.035 199.782 216.035H226.955C230.963 216.035 234.212 212.786 234.212 208.777V181.604C234.212 177.596 230.963 174.347 226.955 174.347Z" fill="url(#paint8_linear)"/>
<path d="M226.962 174.347H207.014C203.006 174.347 199.757 177.596 199.757 181.604V208.777C199.757 212.786 203.006 216.035 207.014 216.035H226.962C230.97 216.035 234.22 212.786 234.22 208.777V181.604C234.22 177.596 230.97 174.347 226.962 174.347Z" fill="#4E74FF"/>
<path d="M216.95 193.829C216.346 193.637 215.832 193.236 215.498 192.698C215.165 192.159 215.035 191.52 215.132 190.894C215.229 190.269 215.547 189.699 216.028 189.287C216.508 188.875 217.12 188.649 217.753 188.649C218.386 188.649 218.998 188.875 219.479 189.287C219.96 189.699 220.277 190.269 220.374 190.894C220.471 191.52 220.341 192.159 220.008 192.698C219.675 193.236 219.16 193.637 218.557 193.829L220.622 200.387H215.085L216.95 193.829Z" fill="#37446F"/>
<path d="M123.334 126.125C125.3 126.125 126.894 124.531 126.894 122.564C126.894 120.598 125.3 119.004 123.334 119.004C121.367 119.004 119.773 120.598 119.773 122.564C119.773 124.531 121.367 126.125 123.334 126.125Z" fill="white"/>
<path d="M134.039 126.125C136.005 126.125 137.599 124.531 137.599 122.564C137.599 120.598 136.005 119.004 134.039 119.004C132.073 119.004 130.479 120.598 130.479 122.564C130.479 124.531 132.073 126.125 134.039 126.125Z" fill="white"/>
<path d="M144.752 126.125C146.718 126.125 148.312 124.531 148.312 122.564C148.312 120.598 146.718 119.004 144.752 119.004C142.785 119.004 141.191 120.598 141.191 122.564C141.191 124.531 142.785 126.125 144.752 126.125Z" fill="white"/>
<path d="M123.334 165.779C125.3 165.779 126.894 164.185 126.894 162.219C126.894 160.253 125.3 158.659 123.334 158.659C121.367 158.659 119.773 160.253 119.773 162.219C119.773 164.185 121.367 165.779 123.334 165.779Z" fill="white"/>
<path d="M134.039 165.779C136.005 165.779 137.599 164.185 137.599 162.219C137.599 160.253 136.005 158.659 134.039 158.659C132.073 158.659 130.479 160.253 130.479 162.219C130.479 164.185 132.073 165.779 134.039 165.779Z" fill="white"/>
<path d="M144.752 165.779C146.718 165.779 148.312 164.185 148.312 162.219C148.312 160.253 146.718 158.659 144.752 158.659C142.785 158.659 141.191 160.253 141.191 162.219C141.191 164.185 142.785 165.779 144.752 165.779Z" fill="white"/>
<path d="M123.334 205.434C125.3 205.434 126.894 203.84 126.894 201.874C126.894 199.907 125.3 198.313 123.334 198.313C121.367 198.313 119.773 199.907 119.773 201.874C119.773 203.84 121.367 205.434 123.334 205.434Z" fill="white"/>
<path d="M134.039 205.434C136.005 205.434 137.599 203.84 137.599 201.874C137.599 199.907 136.005 198.313 134.039 198.313C132.073 198.313 130.479 199.907 130.479 201.874C130.479 203.84 132.073 205.434 134.039 205.434Z" fill="white"/>
<path d="M144.752 205.434C146.718 205.434 148.312 203.84 148.312 201.874C148.312 199.907 146.718 198.313 144.752 198.313C142.785 198.313 141.191 199.907 141.191 201.874C141.191 203.84 142.785 205.434 144.752 205.434Z" fill="white"/>
<path d="M177.697 120.242C177.54 121.214 177.595 122.21 177.858 123.159C178.23 124.058 178.866 124.823 179.682 125.353C181.419 126.568 183.559 127.063 185.653 126.736C185.937 126.721 186.206 126.604 186.409 126.406C186.536 126.236 186.606 126.031 186.61 125.819C186.604 124.687 186.17 123.6 185.396 122.773C184.627 121.953 183.999 121.011 183.54 119.985C182.865 117.991 184.199 113.097 180.566 113.434C177.56 113.716 177.922 118.128 177.697 120.242Z" fill="#FFBBAB"/>
<path d="M164.507 93.1007C167.27 93.1999 170.024 93.4683 172.753 93.9044C177.575 94.6438 180.662 96.6933 181.851 101.532C182.944 105.952 184.037 110.429 184.021 114.986C184.135 116.061 183.827 117.139 183.161 117.991C182.044 119.117 180.019 118.699 178.918 117.573C177.817 116.448 177.366 114.833 176.916 113.314C176.161 110.734 175.205 104.618 172.472 103.935C167.843 102.777 163.085 105.695 158.552 103.935C156.933 103.368 155.391 102.601 153.963 101.652C152.533 100.69 151.429 99.3167 150.796 97.714C150.509 96.8606 150.35 95.9697 150.322 95.0698C150.266 94.3306 150.282 93.5876 150.37 92.8516C150.515 91.9997 150.659 92.0961 151.519 92.1041C152.974 92.1041 154.421 92.2167 155.867 92.3533C158.745 92.5944 161.622 93.0204 164.507 93.1007Z" fill="url(#paint9_linear)"/>
<path d="M176.797 123.553C176.797 123.553 176.138 124.718 176.66 125.522C177.183 126.326 183.01 131.092 187.687 128.48C192.365 125.868 182.367 124.14 182.367 124.14L176.797 123.553Z" fill="#4E74FF"/>
<path d="M177.423 120.716C177.629 120.645 177.854 120.651 178.056 120.732C178.258 120.813 178.424 120.964 178.524 121.158C178.877 121.684 179.356 122.112 179.918 122.403C180.48 122.694 181.107 122.838 181.739 122.822C183.17 122.669 183.941 121.142 184.633 121.214C185.324 121.287 188.603 124.919 188.651 126.294C188.699 127.668 186.674 128.415 184.568 128.279C182.463 128.142 177.938 126.077 177.182 124.863C176.884 124.204 176.751 123.482 176.793 122.76C176.835 122.038 177.051 121.336 177.423 120.716Z" fill="white"/>
<path d="M167.513 125.209C167.197 126.144 167.087 127.136 167.192 128.118C167.409 129.065 167.911 129.924 168.631 130.577C170.143 132.065 172.175 132.907 174.297 132.924C174.58 132.956 174.865 132.884 175.1 132.723C175.253 132.575 175.356 132.385 175.398 132.177C175.576 131.055 175.327 129.908 174.699 128.962C174.073 128.028 173.608 126.996 173.324 125.908C172.979 123.834 175.1 119.221 171.46 118.956C168.414 118.747 168.052 123.175 167.513 125.209Z" fill="#FFBBAB"/>
<path d="M158.906 96.2754C161.625 96.8121 164.308 97.5126 166.943 98.3731C171.548 99.892 174.281 102.392 174.666 107.391C175.012 111.931 175.358 116.529 174.602 121.053C174.536 122.132 174.055 123.143 173.26 123.874C171.974 124.799 170.045 124.059 169.137 122.765C168.229 121.471 168.06 119.816 167.867 118.241C167.538 115.572 167.602 109.4 165.014 108.259C162.281 107.069 159.235 107.455 156.334 107.294C154.823 107.214 153.232 106.916 151.753 106.884C146.81 106.78 145.781 103.099 145.613 102.52C145 100.669 144.691 98.7314 144.696 96.7817C144.756 95.8286 144.91 94.8838 145.154 93.9607C145.339 93.1008 145.347 93.0043 146.28 93.157C147.718 93.3981 149.133 93.7437 150.531 94.1134C153.312 94.8207 156.069 95.7208 158.906 96.2754Z" fill="url(#paint10_linear)"/>
<path d="M166.05 128.327C166.05 128.327 165.247 129.372 165.592 130.248C165.938 131.124 170.937 136.782 175.984 134.966C181.031 133.149 171.451 129.814 171.451 129.814L166.05 128.327Z" fill="#4E74FF"/>
<path d="M167.128 125.635C167.344 125.599 167.566 125.641 167.753 125.755C167.94 125.869 168.081 126.045 168.149 126.253C168.411 126.833 168.816 127.337 169.326 127.716C169.837 128.096 170.436 128.339 171.066 128.423C172.505 128.504 173.477 127.121 174.184 127.314C174.892 127.507 177.496 131.622 177.295 132.94C177.094 134.258 174.996 134.708 172.947 134.226C170.897 133.744 166.766 130.971 166.22 129.653C166.038 128.96 166.025 128.232 166.183 127.533C166.341 126.834 166.665 126.182 167.128 125.635Z" fill="white"/>
<path d="M176.611 90.8182L164.146 95.3672L172.986 100.84L185.588 93.7276L176.611 90.8182Z" fill="#4E74FF"/>
<path d="M176.611 90.8182L164.146 95.3672L172.986 100.84L185.588 93.7276L176.611 90.8182Z" fill="url(#paint11_linear)"/>
<path d="M163.583 96.629L173.268 103.34L189.454 96.629L195.667 84.1154L176.949 89.7413L172.986 100.84L164.146 95.3672L163.583 96.629Z" fill="#4E74FF"/>
<path d="M165.64 82.9258C164.676 83.5045 163.663 83.7296 162.843 83.1429L162.643 82.9741C161.341 81.6962 161.132 78.9556 161.188 76.9543C161.21 76.1125 161.28 75.2727 161.397 74.4388L166.315 68.4592L168.855 79.8959C167.953 81.0715 166.867 82.0945 165.64 82.9258Z" fill="white"/>
<path d="M165.681 80.0647C165.592 80.6112 165.584 81.1898 165.504 81.7524C165.062 84.8226 163.896 87.8766 164.338 91.0191C164.549 91.7025 164.532 92.4358 164.29 93.1087C163.948 93.6253 163.427 93.9973 162.828 94.1535C159.902 95.2385 156.711 95.2305 153.593 95.2064C151.254 95.2064 147.895 95.3912 145.958 93.8401C145.239 93.1209 144.832 92.1482 144.825 91.1316C144.479 87.8428 144.479 84.5269 144.825 81.2381L144.921 79.9521C145.189 76.9892 145.564 74.0423 146.046 71.1114C146.408 68.9897 146.914 66.7072 148.546 65.3007C150.716 63.4281 154.509 62.544 157.306 62.4395C158.215 62.3835 159.128 62.462 160.015 62.6726C161.255 63.0643 162.421 63.662 163.462 64.4407C164.716 65.3087 165.833 66.0481 166.3 67.4867C166.803 69.1367 167.074 70.8492 167.103 72.5742C167.124 74.2021 166.918 75.825 166.492 77.3964C166.291 78.1599 165.978 78.9073 165.785 79.6709C165.729 79.7834 165.705 79.92 165.681 80.0647Z" fill="white"/>
<path d="M150.595 95.6244C149.663 95.753 147.734 94.6358 147.067 94.4108C146.673 94.2822 146.328 94.025 145.942 93.8643C143.981 93.0606 144.584 87.3141 144.608 85.7469C144.688 81.6078 144.495 77.2839 145.05 73.2011C145.193 71.6173 145.609 70.0701 146.28 68.6281C146.618 67.9086 147.112 67.2727 147.724 66.7657C148.337 66.2586 149.054 65.8929 149.824 65.6946C150.122 65.6018 150.442 65.6018 150.74 65.6946C151.93 66.1929 151.889 68.2744 151.954 69.2951C151.974 70.3229 152.19 71.3374 152.589 72.2849C153.055 73.2895 153.802 73.6592 154.525 74.4067C156.221 76.0032 157.57 77.932 158.488 80.0728C158.906 81.198 159.123 82.3874 159.492 83.5367C160.447 86.0561 161.804 88.4039 163.511 90.4887C164.09 91.2924 164.708 92.2569 164.371 93.1731C164.222 93.4876 164.008 93.767 163.744 93.9928C163.479 94.2186 163.17 94.3858 162.836 94.4831C162.009 94.8186 161.111 94.9429 160.224 94.8448C158.126 94.5715 156.543 92.8757 154.67 91.9033C154.019 91.5657 152.773 90.9951 152.034 91.3166C151.295 91.638 151.037 92.6266 150.925 93.2937C150.861 93.7196 151.214 95.102 151.013 95.3752C150.966 95.4443 150.903 95.5022 150.831 95.5452C150.759 95.5882 150.679 95.6152 150.595 95.6244Z" fill="#E4EBF9"/>
<path d="M162.153 60.5508C161.774 60.8565 161.297 61.0136 160.81 60.9929C160.402 60.9794 159.995 60.9256 159.597 60.8321H159.38C159.353 60.8199 159.325 60.8136 159.295 60.8136C159.266 60.8136 159.237 60.8199 159.211 60.8321C159.183 60.8512 159.159 60.8762 159.141 60.9053C159.123 60.9344 159.111 60.967 159.107 61.0009C158.904 61.7917 158.77 62.5983 158.705 63.412V63.8541C158.713 64.0084 158.677 64.1619 158.6 64.2961C158.459 64.4448 158.266 64.5339 158.062 64.5452C157.692 64.6054 157.315 64.6054 156.945 64.5452C156.161 64.353 155.437 63.9691 154.839 63.4281C155.096 62.0607 155.225 60.6723 155.225 59.281C155.225 57.4807 155.032 55.6563 155.482 53.9123C155.546 53.4992 155.698 53.1046 155.927 52.755C156.156 52.4053 156.457 52.1087 156.81 51.8849C157.164 51.6612 157.56 51.5155 157.974 51.4576C158.388 51.3998 158.81 51.431 159.211 51.5494C160.484 51.7114 161.684 52.2359 162.667 53.0603C162.81 53.213 162.917 53.3949 162.982 53.5934C163.048 53.7918 163.069 54.0021 163.045 54.2096C163.045 54.9249 163.085 55.6402 163.045 56.3555C163.004 57.0708 162.94 57.9629 162.836 58.7666C162.824 59.4231 162.583 60.0547 162.153 60.5508Z" fill="#FFBBAB"/>
<path d="M161.783 53.3496C160.866 53.3496 159.894 53.0683 158.994 53.2934C158.378 53.5029 157.858 53.9285 157.532 54.4915C157.205 55.0544 157.094 55.7166 157.218 56.3555C156.848 56.4278 156.88 55.7929 156.655 55.5036C156.43 55.2142 155.771 55.5035 155.666 55.8893C155.626 56.3254 155.695 56.7646 155.867 57.1672C156.074 57.9706 156.003 58.8202 155.666 59.5783C155.586 59.7551 155.417 59.9561 155.241 59.8837C155.064 59.8114 154.967 59.4658 154.879 59.3051C154.73 59.0776 154.566 58.8602 154.389 58.6541C154.027 58.2281 153.585 57.8504 153.239 57.4164C152.871 57.0736 152.585 56.6519 152.402 56.1828C152.22 55.7138 152.146 55.2095 152.186 54.7079C152.267 54.3065 152.459 53.9361 152.741 53.639C152.974 53.3763 153.262 53.1678 153.585 53.0282C153.713 52.9639 153.866 52.8996 153.914 52.771C153.93 52.6914 153.93 52.6094 153.914 52.5299C153.897 52.0033 154.032 51.483 154.303 51.0312C154.574 50.5793 154.969 50.2151 155.441 49.9821C156.392 49.5309 157.436 49.3106 158.487 49.3392C159.171 49.3392 159.854 49.3392 160.537 49.3392C161.096 49.392 161.659 49.343 162.201 49.1945C162.12 48.811 161.993 48.4386 161.823 48.0854C162.273 48.2947 162.692 48.5651 163.069 48.8891C163.082 48.6531 163.054 48.4167 162.988 48.1899C163.713 48.4883 164.341 48.9805 164.805 49.6124C165.026 50.0425 165.113 50.5292 165.054 51.0094C164.996 51.4895 164.794 51.9409 164.475 52.3048C164.162 52.628 163.787 52.8855 163.373 53.0622C162.959 53.2388 162.514 53.3311 162.064 53.3336L161.783 53.3496Z" fill="#FE8A35"/>
<path d="M159.597 60.8321H159.38C159.353 60.8198 159.324 60.8135 159.295 60.8135C159.266 60.8135 159.237 60.8198 159.211 60.8321C159.182 60.8512 159.158 60.8761 159.14 60.9052C159.122 60.9343 159.111 60.9669 159.106 61.0009C158.904 61.7916 158.769 62.5983 158.704 63.412C158.027 63.0803 157.486 62.5243 157.172 61.8386C156.859 61.1529 156.793 60.3798 156.985 59.6506C157.805 60.1444 158.675 60.5511 159.581 60.8642L159.597 60.8321Z" fill="#E0A194"/>
<path d="M180.509 87.1614C179.97 86.9364 179.512 86.4301 178.901 86.4542C178.29 86.4783 177.8 87.1936 177.294 87.6597C176.742 88.1519 176.023 88.4136 175.285 88.3911C175.051 88.3805 174.819 88.3455 174.593 88.2866C173.64 88.0066 172.808 87.4152 172.23 86.6069C172.23 86.6069 173.725 84.9272 173.918 84.8146C174.577 84.4369 175.469 84.469 176.177 84.0913C176.893 83.6385 177.633 83.2253 178.395 82.8536C179.162 82.5374 179.993 82.4054 180.821 82.4682C181.648 82.531 182.45 82.7869 183.161 83.2153C183.338 83.3197 183.531 83.5126 183.434 83.7055C183.393 83.7786 183.327 83.8353 183.249 83.8663C182.423 84.1941 181.523 84.2913 180.645 84.1476C181.162 84.3992 181.643 84.7181 182.076 85.0959C182.269 85.2647 182.446 85.5862 182.237 85.7389C182.181 85.7628 182.121 85.7751 182.06 85.7751C181.999 85.7751 181.939 85.7628 181.883 85.7389L179.938 85.2647C180.441 85.6528 180.86 86.1396 181.168 86.6953C181.225 86.7866 181.253 86.8931 181.248 87.0007C181.152 87.2498 180.766 87.274 180.509 87.1614Z" fill="#FFBBAB"/>
<path d="M180.509 87.1614C179.97 86.9364 179.512 86.43 178.901 86.4541C178.29 86.4782 177.8 87.1935 177.294 87.6597C176.742 88.1518 176.023 88.4136 175.285 88.3911C175.097 88.3053 174.92 88.2002 174.754 88.0776C174.63 87.9988 174.536 87.8796 174.489 87.7401C174.476 87.6128 174.509 87.4851 174.581 87.3794C174.653 87.2737 174.76 87.1965 174.883 87.1614C175.147 87.0982 175.416 87.0579 175.686 87.0408C176.113 86.9637 176.495 86.7283 176.755 86.3818C176.972 86.0925 177.109 85.7228 177.422 85.5781C177.629 85.4838 177.854 85.4345 178.081 85.4334L178.966 85.3772C179.101 85.3793 179.235 85.3519 179.359 85.2968C179.42 85.2675 179.471 85.2201 179.504 85.1612C179.537 85.1022 179.551 85.0345 179.544 84.9673C179.544 84.8146 179.359 84.7342 179.215 84.678C178.925 84.5735 177.953 84.5172 178.58 84.1716C179.034 83.9784 179.518 83.8643 180.01 83.8341C180.997 83.7378 181.99 83.7378 182.976 83.8341C183.082 83.8457 183.186 83.8645 183.289 83.8903C182.463 84.2181 181.563 84.3153 180.685 84.1716C181.202 84.4232 181.683 84.7421 182.116 85.12C182.309 85.2888 182.486 85.6102 182.277 85.763C182.221 85.7868 182.161 85.7991 182.1 85.7991C182.039 85.7991 181.979 85.7868 181.923 85.763L179.978 85.2888C180.481 85.6768 180.9 86.1637 181.208 86.7194C181.265 86.8106 181.293 86.9172 181.288 87.0248C181.152 87.2498 180.766 87.2739 180.509 87.1614Z" fill="#E0A194"/>
<path d="M172.327 87.1774C170.341 87.1523 168.374 86.7796 166.516 86.0763C165.196 85.5613 164.028 84.7176 163.125 83.6251C163.006 83.4831 162.916 83.3193 162.86 83.1428C162.759 82.8429 162.759 82.5185 162.86 82.2186C163.109 81.3365 163.626 80.5533 164.338 79.9763C166.259 78.5457 168.871 79.8959 168.871 79.8959C168.871 79.8959 173.766 83.7054 173.902 84.4609C173.983 84.8708 173.509 85.6423 173.05 86.2532C172.592 86.864 172.327 87.1774 172.327 87.1774Z" fill="white"/>
<path d="M149.249 65.6683L149.242 65.6698C146.842 66.1419 145.279 68.47 145.751 70.8698L148.069 82.6512C148.541 85.051 150.869 86.6136 153.269 86.1415L153.277 86.1399C155.677 85.6678 157.239 83.3397 156.767 80.94L154.449 69.1585C153.977 66.7588 151.649 65.1962 149.249 65.6683Z" fill="white"/>
<path d="M172.326 87.1775C170.34 87.1523 168.374 86.7797 166.516 86.0764C166.283 85.988 165.085 85.2727 164.908 85.345C164.835 85.4009 164.784 85.4805 164.764 85.5701L164.113 87.4266C163.918 87.2989 163.757 87.1265 163.642 86.9238C163.527 86.7211 163.463 86.4939 163.454 86.2613C163.405 85.7951 163.454 85.329 163.405 84.8709C163.254 84.1603 163.014 83.4717 162.69 82.8214C161.814 80.5871 161.975 78.0957 162.144 75.7006L163.928 80.3701C164.074 80.8162 164.279 81.2406 164.539 81.6319C164.777 81.9277 165.047 82.1972 165.342 82.4356C166.613 83.5695 168.074 84.4701 169.658 85.0959C169.931 85.2084 172.937 86.4863 173.098 86.2532C172.68 86.7837 172.326 87.1775 172.326 87.1775Z" fill="#E4EBF9"/>
<path d="M173.219 96.9907C172.736 96.5647 172.415 95.8735 171.796 95.7128C171.177 95.552 170.542 96.1468 169.94 96.5165C169.598 96.6874 169.224 96.7823 168.842 96.7948C168.461 96.8073 168.081 96.737 167.729 96.5888C167.495 96.5007 167.272 96.3875 167.062 96.2513C166.156 95.6107 165.464 94.7115 165.077 93.6714C165.077 93.6714 166.918 92.3533 167.135 92.297C167.874 92.1122 168.742 92.4337 169.546 92.297C170.356 92.0463 171.18 91.8424 172.013 91.6862C172.889 91.6198 173.769 91.7622 174.579 92.1017C175.389 92.4412 176.107 92.9682 176.675 93.6392C176.827 93.816 176.972 94.0893 176.843 94.2581C176.789 94.3227 176.711 94.3631 176.626 94.3706C175.708 94.4428 174.789 94.2533 173.974 93.8241C174.44 94.266 174.848 94.7657 175.188 95.3109C175.348 95.552 175.453 95.9539 175.188 96.0503C175.075 96.0503 174.947 96.0503 174.834 95.9459L173.002 94.7966C173.423 95.3836 173.734 96.0427 173.918 96.7415C173.954 96.8539 173.954 96.9747 173.918 97.0871C173.837 97.2961 173.444 97.2318 173.219 96.9907Z" fill="#FFBBAB"/>
<path d="M173.219 96.9906C172.736 96.5647 172.415 95.8735 171.796 95.7128C171.177 95.552 170.542 96.1468 169.94 96.5165C169.598 96.6873 169.224 96.7823 168.842 96.7948C168.461 96.8072 168.081 96.737 167.729 96.5888C167.56 96.4357 167.407 96.266 167.271 96.0825C167.159 95.9572 167.088 95.7998 167.07 95.6324C167.078 95.4987 167.137 95.3731 167.234 95.2806C167.331 95.1882 167.459 95.1359 167.593 95.1341C167.864 95.1498 168.133 95.1902 168.396 95.2546C168.611 95.2873 168.83 95.2725 169.038 95.2114C169.247 95.1503 169.439 95.0444 169.602 94.901C169.883 94.6599 170.1 94.3063 170.406 94.2098C170.635 94.1726 170.869 94.1919 171.089 94.2661L171.989 94.4992C172.121 94.5269 172.258 94.5269 172.391 94.4992C172.461 94.4864 172.525 94.4499 172.572 94.3958C172.619 94.3417 172.645 94.2733 172.648 94.2018C172.636 94.1183 172.607 94.0383 172.561 93.9675C172.515 93.8967 172.454 93.8368 172.383 93.7919C172.118 93.5829 171.161 93.1972 171.86 93.0364C172.358 92.9725 172.862 93.0052 173.347 93.1329C174.362 93.3644 175.35 93.6983 176.297 94.1295C176.403 94.1752 176.505 94.2289 176.602 94.2902C175.684 94.3624 174.765 94.1729 173.95 93.7437C174.416 94.1856 174.824 94.6853 175.164 95.2305C175.324 95.4716 175.429 95.8735 175.164 95.9699C175.051 95.9699 174.922 95.9699 174.81 95.8655L172.978 94.7162C173.399 95.3032 173.71 95.9623 173.894 96.6611C173.929 96.7735 173.929 96.8943 173.894 97.0067C173.837 97.296 173.444 97.2317 173.219 96.9906Z" fill="#E0A194"/>
<path d="M159.814 83.5688L168.124 90.9548L165.375 95.9458C165.375 95.9458 149.567 88.5437 148.763 84.9672C147.959 81.3907 152.138 81.5274 152.138 81.5274C152.138 81.5274 155.594 78.843 159.814 83.5688Z" fill="white"/>
<path d="M237.869 91.7505H204.041V125.578H237.869V91.7505Z" fill="#4E74FF"/>
<path opacity="0.18" d="M97.9282 76.0784H73.126V109.906H97.9282V76.0784Z" fill="#4E74FF"/>
<path d="M91.8842 81.5596H67.082V115.387H91.8842V81.5596Z" fill="white"/>
<path d="M55.1719 176.284C55.3546 178.009 55.9531 179.663 56.9159 181.106C60.7737 187.921 65.0976 194.632 71.0691 199.688C79.8535 207.114 91.3465 210.32 102.454 213.35C101.465 212.868 100.268 207.725 99.8255 206.623C98.9655 204.421 98.1618 202.195 97.3421 199.977C96.032 196.481 93.3236 193.668 90.6231 191.088C84.5799 185.249 77.236 180.93 69.1965 178.486C64.6487 177.095 59.9271 176.353 55.1719 176.284Z" fill="#37446F"/>
<path d="M98.6284 180.101C97.7202 173.76 96.7879 167.339 94.2402 161.463C91.6925 155.588 87.2721 150.212 81.2685 148.018C81.0916 157.094 80.9175 166.168 80.7461 175.239C80.6416 180.479 80.5532 185.824 82.0561 190.847C84.7003 199.688 93.8544 209.983 102.671 212.892C103.981 208.665 101.787 202.259 101.16 197.863L98.6284 180.101Z" fill="#4E74FF"/>
<path d="M190.82 160.78H162.956V163.65H190.82V160.78Z" fill="white"/>
<path d="M190.82 200.435H162.956V203.304H190.82V200.435Z" fill="white"/>
<path d="M212.255 103.01L220.774 98.5579L228.948 102.986C228.948 102.986 227.429 113.925 220.975 117.059C220.959 117.059 212.954 113.997 212.255 103.01Z" fill="white"/>
<defs>
<linearGradient id="paint0_linear" x1="158.037" y1="200.813" x2="31.8162" y2="189.183" gradientUnits="userSpaceOnUse">
<stop offset="0.01"/>
<stop offset="0.13" stop-opacity="0.69"/>
<stop offset="0.25" stop-opacity="0.32"/>
<stop offset="1" stop-opacity="0"/>
</linearGradient>
<linearGradient id="paint1_linear" x1="158.037" y1="163.368" x2="31.8162" y2="151.739" gradientUnits="userSpaceOnUse">
<stop offset="0.01"/>
<stop offset="0.13" stop-opacity="0.69"/>
<stop offset="0.25" stop-opacity="0.32"/>
<stop offset="1" stop-opacity="0"/>
</linearGradient>
<linearGradient id="paint2_linear" x1="158.047" y1="214.823" x2="158.013" y2="183.3" gradientUnits="userSpaceOnUse">
<stop stop-color="#4E74FF"/>
<stop offset="1" stop-color="#59C3FF"/>
</linearGradient>
<linearGradient id="paint3_linear" x1="158.051" y1="177.387" x2="158.017" y2="145.855" gradientUnits="userSpaceOnUse">
<stop stop-color="#4E74FF"/>
<stop offset="1" stop-color="#59C3FF"/>
</linearGradient>
<linearGradient id="paint4_linear" x1="158.037" y1="123.376" x2="31.8162" y2="111.747" gradientUnits="userSpaceOnUse">
<stop offset="0.01"/>
<stop offset="0.13" stop-opacity="0.69"/>
<stop offset="0.25" stop-opacity="0.32"/>
<stop offset="1" stop-opacity="0"/>
</linearGradient>
<linearGradient id="paint5_linear" x1="158.047" y1="137.386" x2="158.013" y2="105.863" gradientUnits="userSpaceOnUse">
<stop stop-color="#4E74FF"/>
<stop offset="1" stop-color="#59C3FF"/>
</linearGradient>
<linearGradient id="paint6_linear" x1="7497.05" y1="4049.89" x2="6120.69" y2="6049.75" gradientUnits="userSpaceOnUse">
<stop offset="0.01"/>
<stop offset="0.13" stop-opacity="0.69"/>
<stop offset="0.25" stop-opacity="0.32"/>
<stop offset="1" stop-opacity="0"/>
</linearGradient>
<linearGradient id="paint7_linear" x1="6695.62" y1="2199.97" x2="2279.82" y2="1730.68" gradientUnits="userSpaceOnUse">
<stop offset="0.01"/>
<stop offset="0.13" stop-opacity="0.69"/>
<stop offset="0.25" stop-opacity="0.32"/>
<stop offset="1" stop-opacity="0"/>
</linearGradient>
<linearGradient id="paint8_linear" x1="6675.01" y1="8877.54" x2="19076.3" y2="12981.7" gradientUnits="userSpaceOnUse">
<stop stop-opacity="0.32"/>
<stop offset="1" stop-opacity="0"/>
</linearGradient>
<linearGradient id="paint9_linear" x1="184.044" y1="97.9099" x2="148.257" y2="114.187" gradientUnits="userSpaceOnUse">
<stop stop-color="#36446E"/>
<stop offset="1" stop-color="#6474A3"/>
</linearGradient>
<linearGradient id="paint10_linear" x1="175.054" y1="99.9241" x2="140.413" y2="111.989" gradientUnits="userSpaceOnUse">
<stop stop-color="#36446E"/>
<stop offset="1" stop-color="#6474A3"/>
</linearGradient>
<linearGradient id="paint11_linear" x1="4968.39" y1="1392.09" x2="4569.12" y2="616.757" gradientUnits="userSpaceOnUse">
<stop offset="0.01"/>
<stop offset="0.13" stop-opacity="0.69"/>
<stop offset="0.25" stop-opacity="0.32"/>
<stop offset="1" stop-opacity="0"/>
</linearGradient>
</defs>
</svg>
