<?xml version="1.0" standalone="no"?>
<!DOCTYPE svg PUBLIC "-//W3C//DTD SVG 20010904//EN"
 "http://www.w3.org/TR/2001/REC-SVG-20010904/DTD/svg10.dtd">
<svg version="1.0" xmlns="http://www.w3.org/2000/svg"
 width="500.000000pt" height="614.000000pt" viewBox="0 0 500.000000 614.000000"
 preserveAspectRatio="xMidYMid meet">

<g transform="translate(0.000000,614.000000) scale(0.100000,-0.100000)"
fill="#000000" stroke="none">
<path d="M2450 6131 c-23 -8 -700 -261 -1890 -707 -256 -96 -476 -182 -490
-192 -14 -10 -35 -38 -48 -63 l-23 -44 4 -1135 c4 -1232 2 -1179 61 -1425 201
-833 887 -1638 1988 -2334 131 -82 354 -205 402 -221 57 -19 95 -8 229 66 763
421 1447 1011 1836 1584 248 365 382 682 453 1075 22 118 22 139 26 1235 2
613 0 1134 -3 1157 -4 29 -17 54 -43 82 -36 38 -70 52 -867 349 -456 171 -989
370 -1183 442 -353 132 -405 147 -452 131z m364 -467 c171 -64 570 -213 886
-330 316 -118 659 -247 763 -286 l187 -71 0 -1018 c0 -1116 0 -1122 -60 -1356
-153 -592 -631 -1208 -1365 -1760 -171 -129 -472 -329 -619 -412 l-108 -61
-92 52 c-423 241 -881 590 -1213 924 -437 440 -703 892 -810 1375 l-27 124 -3
1066 -4 1066 408 153 c224 83 667 248 983 366 316 118 613 230 660 248 47 19
89 34 94 35 6 1 150 -51 320 -115z"/>
<path d="M1705 4728 c-125 -78 -283 -214 -381 -329 -499 -583 -550 -1418 -125
-2050 249 -370 627 -625 1066 -719 129 -28 411 -38 550 -21 482 61 918 327
1193 729 34 50 65 97 68 106 4 11 -24 2 -88 -29 -459 -217 -1007 -214 -1463
10 -484 237 -819 675 -927 1207 -20 97 -23 143 -22 328 0 184 3 230 23 320 27
129 65 244 124 378 25 56 42 102 39 101 -4 0 -29 -14 -57 -31z"/>
<path d="M2499 4618 l-44 -93 -100 -14 c-55 -8 -102 -16 -104 -18 -3 -2 28
-37 69 -78 l74 -75 -16 -97 c-9 -54 -15 -99 -13 -101 1 -2 44 17 94 42 l91 46
90 -45 c49 -25 91 -45 93 -45 2 0 -4 45 -13 99 l-17 100 74 73 c40 40 73 75
73 78 0 4 -46 13 -102 21 l-103 14 -45 92 c-25 51 -48 93 -51 93 -3 0 -25 -42
-50 -92z"/>
<path d="M3505 4287 c-36 -75 -69 -138 -74 -141 -8 -6 -269 -46 -294 -46 -6 0
39 -51 100 -112 l112 -113 -26 -143 c-13 -79 -23 -145 -21 -148 2 -2 64 28
137 66 l132 69 133 -70 c73 -38 135 -69 138 -69 2 0 -8 66 -22 148 l-27 147
109 111 110 111 -39 6 c-21 3 -89 14 -151 23 l-114 17 -69 140 -69 140 -65
-136z"/>
<path d="M2707 3463 c-39 -76 -42 -78 -130 -89 -31 -3 -59 -10 -62 -14 -3 -4
21 -31 51 -60 l56 -53 -12 -74 c-6 -41 -9 -77 -6 -80 3 -3 34 11 70 31 l65 37
70 -36 c39 -19 72 -35 74 -35 2 0 -2 35 -9 77 l-14 78 55 55 c30 31 55 58 55
62 0 3 -31 9 -68 13 -38 4 -73 10 -79 13 -6 4 -26 38 -45 77 l-36 69 -35 -71z"/>
</g>
</svg>
