<?xml version="1.0" encoding="utf-8"?>
<!-- Generator: Adobe Illustrator 24.0.2, SVG Export Plug-In . SVG Version: 6.00 Build 0)  -->
<svg version="1.1" id="Layer_1" xmlns="http://www.w3.org/2000/svg" xmlns:xlink="http://www.w3.org/1999/xlink" x="0px" y="0px"
	 viewBox="0 0 4000 4000" style="enable-background:new 0 0 4000 4000;" xml:space="preserve">
<style type="text/css">
	.st0{fill:none;stroke:#000000;stroke-width:10;stroke-miterlimit:10;}
	.st1{fill:#FFFFFF;}
	.st2{fill:#B4B4B4;stroke:#000000;stroke-width:20;stroke-miterlimit:10;}
	.st3{fill:#B4B4B4;}
	.st4{fill:none;stroke:#000000;stroke-width:20;stroke-miterlimit:10;}
	.st5{fill:#F9B208;}
	.st6{fill:#FFFFFF;stroke:#000000;stroke-miterlimit:10;}
	.st7{opacity:0.5;}
	.st8{fill:#FC5404;}
	.st9{fill:#FFE5E2;}
	.st10{fill:#E93B81;}
	.st11{opacity:0.25;}
	.st12{fill:#8BE9FF;}
	.st13{clip-path:url(#SVGID_2_);fill:#FFFFFF;}
	.st14{clip-path:url(#SVGID_2_);fill:#FEFEFE;}
	.st15{clip-path:url(#SVGID_2_);fill:#FDFDFD;}
	.st16{clip-path:url(#SVGID_2_);fill:#FCFCFC;}
	.st17{clip-path:url(#SVGID_2_);fill:#FBFBFB;}
	.st18{clip-path:url(#SVGID_2_);fill:#FAFAFA;}
	.st19{clip-path:url(#SVGID_2_);fill:#F9F9F9;}
	.st20{clip-path:url(#SVGID_2_);fill:#F8F8F8;}
	.st21{clip-path:url(#SVGID_2_);fill:#F7F7F7;}
	.st22{clip-path:url(#SVGID_2_);fill:#F6F6F6;}
	.st23{clip-path:url(#SVGID_2_);fill:#F5F5F5;}
	.st24{clip-path:url(#SVGID_2_);fill:#F4F4F4;}
	.st25{clip-path:url(#SVGID_2_);fill:#F3F3F3;}
	.st26{clip-path:url(#SVGID_2_);fill:#F2F2F2;}
	.st27{clip-path:url(#SVGID_2_);fill:#F1F1F1;}
	.st28{clip-path:url(#SVGID_2_);fill:#F0F0F0;}
	.st29{clip-path:url(#SVGID_2_);fill:#EFEFEF;}
	.st30{clip-path:url(#SVGID_2_);fill:#EEEEEE;}
	.st31{clip-path:url(#SVGID_2_);fill:#EDEDED;}
	.st32{clip-path:url(#SVGID_2_);fill:#ECECEC;}
	.st33{clip-path:url(#SVGID_2_);fill:#EBEBEB;}
	.st34{clip-path:url(#SVGID_2_);fill:#EAEAEA;}
	.st35{clip-path:url(#SVGID_2_);fill:#E9E9E9;}
	.st36{clip-path:url(#SVGID_2_);fill:#E8E8E8;}
	.st37{clip-path:url(#SVGID_2_);fill:#E7E7E7;}
	.st38{clip-path:url(#SVGID_2_);fill:#E6E6E6;}
	.st39{clip-path:url(#SVGID_2_);fill:#E5E5E5;}
	.st40{clip-path:url(#SVGID_2_);fill:#E4E4E4;}
	.st41{clip-path:url(#SVGID_2_);fill:#E3E3E3;}
	.st42{clip-path:url(#SVGID_2_);fill:#E2E2E2;}
	.st43{clip-path:url(#SVGID_2_);fill:#E1E1E1;}
	.st44{clip-path:url(#SVGID_2_);fill:#E0E0E0;}
	.st45{clip-path:url(#SVGID_2_);fill:#DFDFDF;}
	.st46{clip-path:url(#SVGID_2_);fill:#DEDEDE;}
	.st47{clip-path:url(#SVGID_2_);fill:#DDDDDD;}
	.st48{clip-path:url(#SVGID_2_);fill:#DCDCDC;}
	.st49{clip-path:url(#SVGID_2_);fill:#DBDBDB;}
	.st50{clip-path:url(#SVGID_2_);fill:#DADADA;}
	.st51{clip-path:url(#SVGID_2_);fill:#D9D9D9;}
	.st52{clip-path:url(#SVGID_2_);fill:#D8D8D8;}
	.st53{clip-path:url(#SVGID_2_);fill:#D7D7D7;}
	.st54{clip-path:url(#SVGID_2_);fill:#D6D6D6;}
	.st55{clip-path:url(#SVGID_2_);fill:#D5D5D5;}
	.st56{clip-path:url(#SVGID_2_);fill:#D4D4D4;}
	.st57{clip-path:url(#SVGID_2_);fill:#D3D3D3;}
	.st58{clip-path:url(#SVGID_2_);fill:#D2D2D2;}
	.st59{clip-path:url(#SVGID_2_);fill:#D1D1D1;}
	.st60{clip-path:url(#SVGID_2_);fill:#D0D0D0;}
	.st61{clip-path:url(#SVGID_2_);fill:#CFCFCF;}
	.st62{clip-path:url(#SVGID_2_);fill:#CECECE;}
	.st63{clip-path:url(#SVGID_2_);fill:#CDCDCD;}
	.st64{clip-path:url(#SVGID_2_);fill:#CCCCCC;}
	.st65{clip-path:url(#SVGID_2_);fill:#CBCBCB;}
	.st66{clip-path:url(#SVGID_2_);fill:#CACACA;}
	.st67{clip-path:url(#SVGID_2_);fill:#C9C9C9;}
	.st68{clip-path:url(#SVGID_2_);fill:#C8C8C8;}
	.st69{clip-path:url(#SVGID_2_);fill:#C7C7C7;}
	.st70{clip-path:url(#SVGID_2_);fill:#C6C6C6;}
	.st71{clip-path:url(#SVGID_2_);fill:#C5C5C5;}
	.st72{clip-path:url(#SVGID_2_);fill:#C4C4C4;}
	.st73{clip-path:url(#SVGID_2_);fill:#C3C3C3;}
	.st74{clip-path:url(#SVGID_2_);fill:#C2C2C2;}
	.st75{clip-path:url(#SVGID_2_);fill:#C1C1C1;}
	.st76{clip-path:url(#SVGID_2_);fill:#C0C0C0;}
	.st77{clip-path:url(#SVGID_2_);fill:#BFBFBF;}
	.st78{clip-path:url(#SVGID_2_);fill:#BEBEBE;}
	.st79{clip-path:url(#SVGID_2_);fill:#BDBDBD;}
	.st80{clip-path:url(#SVGID_2_);fill:#BCBCBC;}
	.st81{clip-path:url(#SVGID_2_);fill:#BBBBBB;}
	.st82{clip-path:url(#SVGID_2_);fill:#BABABA;}
	.st83{clip-path:url(#SVGID_2_);fill:#B9B9B9;}
	.st84{clip-path:url(#SVGID_2_);fill:#B8B8B8;}
	.st85{clip-path:url(#SVGID_2_);fill:#B7B7B7;}
	.st86{clip-path:url(#SVGID_2_);fill:#B6B6B6;}
	.st87{clip-path:url(#SVGID_2_);fill:#B5B5B5;}
	.st88{clip-path:url(#SVGID_2_);fill:#B4B4B4;}
	.st89{clip-path:url(#SVGID_2_);fill:#B3B3B3;}
	.st90{clip-path:url(#SVGID_2_);fill:#B2B2B2;}
	.st91{clip-path:url(#SVGID_2_);fill:#B1B1B1;}
	.st92{clip-path:url(#SVGID_2_);fill:#B0B0B0;}
	.st93{clip-path:url(#SVGID_2_);fill:#AFAFAF;}
	.st94{clip-path:url(#SVGID_2_);fill:#AEAEAE;}
	.st95{clip-path:url(#SVGID_2_);fill:#ADADAD;}
	.st96{clip-path:url(#SVGID_2_);fill:#ACACAC;}
	.st97{clip-path:url(#SVGID_2_);fill:#ABABAB;}
	.st98{clip-path:url(#SVGID_2_);fill:#AAAAAA;}
	.st99{clip-path:url(#SVGID_2_);fill:#A9A9A9;}
	.st100{clip-path:url(#SVGID_2_);fill:#A8A8A8;}
	.st101{clip-path:url(#SVGID_2_);fill:#A7A7A7;}
	.st102{clip-path:url(#SVGID_2_);fill:#A6A6A6;}
	.st103{clip-path:url(#SVGID_2_);fill:#A5A5A5;}
	.st104{clip-path:url(#SVGID_2_);fill:#A4A4A4;}
	.st105{clip-path:url(#SVGID_2_);fill:#A3A3A3;}
	.st106{clip-path:url(#SVGID_2_);fill:#A2A2A2;}
	.st107{clip-path:url(#SVGID_2_);fill:#A1A1A1;}
	.st108{clip-path:url(#SVGID_2_);fill:#A0A0A0;}
	.st109{clip-path:url(#SVGID_2_);fill:#9F9F9F;}
	.st110{clip-path:url(#SVGID_2_);fill:#9E9E9E;}
	.st111{clip-path:url(#SVGID_2_);fill:#9D9D9D;}
	.st112{clip-path:url(#SVGID_2_);fill:#9C9C9C;}
	.st113{clip-path:url(#SVGID_2_);fill:#9B9B9B;}
	.st114{clip-path:url(#SVGID_2_);fill:#9A9A9A;}
	.st115{clip-path:url(#SVGID_2_);fill:#999999;}
	.st116{clip-path:url(#SVGID_2_);fill:#989898;}
	.st117{clip-path:url(#SVGID_2_);fill:#979797;}
	.st118{clip-path:url(#SVGID_2_);fill:#969696;}
	.st119{clip-path:url(#SVGID_2_);fill:#959595;}
	.st120{clip-path:url(#SVGID_2_);fill:#949494;}
	.st121{clip-path:url(#SVGID_2_);fill:#939393;}
	.st122{clip-path:url(#SVGID_2_);fill:#929292;}
	.st123{clip-path:url(#SVGID_2_);fill:#919191;}
	.st124{clip-path:url(#SVGID_2_);fill:#909090;}
	.st125{clip-path:url(#SVGID_2_);fill:#8F8F8F;}
	.st126{clip-path:url(#SVGID_2_);fill:#8E8E8E;}
	.st127{clip-path:url(#SVGID_2_);fill:#8D8D8D;}
	.st128{clip-path:url(#SVGID_2_);fill:#8C8C8C;}
	.st129{clip-path:url(#SVGID_2_);fill:#8B8B8B;}
	.st130{clip-path:url(#SVGID_2_);fill:#8A8A8A;}
	.st131{clip-path:url(#SVGID_2_);fill:#898989;}
	.st132{clip-path:url(#SVGID_2_);fill:#888888;}
	.st133{clip-path:url(#SVGID_2_);fill:#878787;}
	.st134{clip-path:url(#SVGID_2_);fill:#868686;}
	.st135{clip-path:url(#SVGID_2_);fill:#858585;}
	.st136{clip-path:url(#SVGID_2_);fill:#848484;}
	.st137{clip-path:url(#SVGID_2_);fill:#838383;}
	.st138{clip-path:url(#SVGID_2_);fill:#828282;}
	.st139{clip-path:url(#SVGID_2_);fill:#818181;}
	.st140{clip-path:url(#SVGID_2_);fill:#808080;}
	.st141{clip-path:url(#SVGID_2_);fill:#7E7E7E;}
	.st142{clip-path:url(#SVGID_2_);fill:#7D7D7D;}
	.st143{clip-path:url(#SVGID_2_);fill:#7C7C7C;}
	.st144{clip-path:url(#SVGID_2_);fill:#7B7B7B;}
	.st145{clip-path:url(#SVGID_2_);fill:#7A7A7A;}
	.st146{clip-path:url(#SVGID_2_);fill:#797979;}
	.st147{clip-path:url(#SVGID_2_);fill:#787878;}
	.st148{clip-path:url(#SVGID_2_);fill:#777777;}
	.st149{clip-path:url(#SVGID_2_);fill:#767676;}
	.st150{clip-path:url(#SVGID_2_);fill:#757575;}
	.st151{clip-path:url(#SVGID_2_);fill:#747474;}
	.st152{clip-path:url(#SVGID_2_);fill:#737373;}
	.st153{clip-path:url(#SVGID_2_);fill:#727272;}
	.st154{clip-path:url(#SVGID_2_);fill:#717171;}
	.st155{clip-path:url(#SVGID_2_);fill:#707070;}
	.st156{clip-path:url(#SVGID_2_);fill:#6F6F6F;}
	.st157{clip-path:url(#SVGID_2_);fill:#6E6E6E;}
	.st158{clip-path:url(#SVGID_2_);fill:#6D6D6D;}
	.st159{clip-path:url(#SVGID_2_);fill:#6C6C6C;}
	.st160{clip-path:url(#SVGID_2_);fill:#6B6B6B;}
	.st161{clip-path:url(#SVGID_2_);fill:#6A6A6A;}
	.st162{clip-path:url(#SVGID_2_);fill:#696969;}
	.st163{clip-path:url(#SVGID_2_);fill:#686868;}
	.st164{clip-path:url(#SVGID_2_);fill:#676767;}
	.st165{clip-path:url(#SVGID_2_);fill:#666666;}
	.st166{clip-path:url(#SVGID_2_);fill:#656565;}
	.st167{clip-path:url(#SVGID_2_);fill:#646464;}
	.st168{clip-path:url(#SVGID_2_);fill:#636363;}
	.st169{clip-path:url(#SVGID_2_);fill:#626262;}
	.st170{clip-path:url(#SVGID_2_);fill:#616161;}
	.st171{clip-path:url(#SVGID_2_);fill:#606060;}
	.st172{clip-path:url(#SVGID_2_);fill:#5F5F5F;}
	.st173{clip-path:url(#SVGID_2_);fill:#5E5E5E;}
	.st174{clip-path:url(#SVGID_2_);fill:#5D5D5D;}
	.st175{clip-path:url(#SVGID_2_);fill:#5C5C5C;}
	.st176{clip-path:url(#SVGID_2_);fill:#5B5B5B;}
	.st177{clip-path:url(#SVGID_2_);fill:#5A5A5A;}
	.st178{clip-path:url(#SVGID_2_);fill:#595959;}
	.st179{clip-path:url(#SVGID_2_);fill:#585858;}
	.st180{clip-path:url(#SVGID_2_);fill:#575757;}
	.st181{clip-path:url(#SVGID_2_);fill:#565656;}
	.st182{clip-path:url(#SVGID_2_);fill:#555555;}
	.st183{clip-path:url(#SVGID_2_);fill:#545454;}
	.st184{clip-path:url(#SVGID_2_);fill:#535353;}
	.st185{clip-path:url(#SVGID_2_);fill:#525252;}
	.st186{clip-path:url(#SVGID_2_);fill:#515151;}
	.st187{clip-path:url(#SVGID_2_);fill:#505050;}
	.st188{clip-path:url(#SVGID_2_);fill:#4F4F4F;}
	.st189{clip-path:url(#SVGID_2_);fill:#4E4E4E;}
	.st190{clip-path:url(#SVGID_2_);fill:#4D4D4D;}
	.st191{clip-path:url(#SVGID_2_);fill:#4C4C4C;}
	.st192{clip-path:url(#SVGID_2_);fill:#4B4B4B;}
	.st193{clip-path:url(#SVGID_2_);fill:#4A4A4A;}
	.st194{clip-path:url(#SVGID_2_);fill:#494949;}
	.st195{clip-path:url(#SVGID_2_);fill:#484848;}
	.st196{clip-path:url(#SVGID_2_);fill:#474747;}
	.st197{clip-path:url(#SVGID_2_);fill:#464646;}
	.st198{clip-path:url(#SVGID_2_);fill:#454545;}
	.st199{clip-path:url(#SVGID_2_);fill:#444444;}
	.st200{clip-path:url(#SVGID_2_);fill:#434343;}
	.st201{clip-path:url(#SVGID_2_);fill:#424242;}
	.st202{clip-path:url(#SVGID_2_);fill:#414141;}
	.st203{clip-path:url(#SVGID_2_);fill:#404040;}
	.st204{clip-path:url(#SVGID_2_);fill:#3F3F3F;}
	.st205{clip-path:url(#SVGID_2_);fill:#3E3E3E;}
	.st206{clip-path:url(#SVGID_2_);fill:#3D3D3D;}
	.st207{clip-path:url(#SVGID_2_);fill:#3C3C3C;}
	.st208{clip-path:url(#SVGID_2_);fill:#3B3B3B;}
	.st209{clip-path:url(#SVGID_2_);fill:#3A3A3A;}
	.st210{clip-path:url(#SVGID_2_);fill:#393939;}
	.st211{clip-path:url(#SVGID_2_);fill:#383838;}
	.st212{clip-path:url(#SVGID_2_);fill:#373737;}
	.st213{clip-path:url(#SVGID_2_);fill:#363636;}
	.st214{clip-path:url(#SVGID_2_);fill:#353535;}
	.st215{clip-path:url(#SVGID_2_);fill:#343434;}
	.st216{clip-path:url(#SVGID_2_);fill:#333333;}
	.st217{clip-path:url(#SVGID_2_);fill:#323232;}
	.st218{clip-path:url(#SVGID_2_);fill:#313131;}
	.st219{clip-path:url(#SVGID_2_);fill:#303030;}
	.st220{clip-path:url(#SVGID_2_);fill:#2F2F2F;}
	.st221{clip-path:url(#SVGID_2_);fill:#2E2E2E;}
	.st222{clip-path:url(#SVGID_2_);fill:#2D2D2D;}
	.st223{clip-path:url(#SVGID_2_);fill:#2C2C2C;}
	.st224{clip-path:url(#SVGID_2_);fill:#2B2B2B;}
	.st225{clip-path:url(#SVGID_2_);fill:#2A2A2A;}
	.st226{clip-path:url(#SVGID_2_);fill:#292929;}
	.st227{clip-path:url(#SVGID_2_);fill:#282828;}
	.st228{clip-path:url(#SVGID_2_);fill:#272727;}
	.st229{clip-path:url(#SVGID_2_);fill:#262626;}
	.st230{clip-path:url(#SVGID_2_);fill:#252525;}
	.st231{clip-path:url(#SVGID_2_);fill:#242424;}
	.st232{clip-path:url(#SVGID_2_);fill:#232323;}
	.st233{clip-path:url(#SVGID_2_);fill:#222222;}
	.st234{clip-path:url(#SVGID_2_);fill:#212121;}
	.st235{clip-path:url(#SVGID_2_);fill:#202020;}
	.st236{clip-path:url(#SVGID_2_);fill:#1F1F1F;}
	.st237{clip-path:url(#SVGID_2_);fill:#1E1E1E;}
	.st238{clip-path:url(#SVGID_2_);fill:#1D1D1D;}
	.st239{clip-path:url(#SVGID_2_);fill:#1C1C1C;}
	.st240{clip-path:url(#SVGID_2_);fill:#1B1B1B;}
	.st241{clip-path:url(#SVGID_2_);fill:#1A1A1A;}
	.st242{clip-path:url(#SVGID_2_);fill:#191919;}
	.st243{clip-path:url(#SVGID_2_);fill:#181818;}
	.st244{clip-path:url(#SVGID_2_);fill:#171717;}
	.st245{clip-path:url(#SVGID_2_);fill:#161616;}
	.st246{clip-path:url(#SVGID_2_);fill:#151515;}
	.st247{clip-path:url(#SVGID_2_);fill:#141414;}
	.st248{clip-path:url(#SVGID_2_);fill:#131313;}
	.st249{clip-path:url(#SVGID_2_);fill:#121212;}
	.st250{clip-path:url(#SVGID_2_);fill:#111111;}
	.st251{clip-path:url(#SVGID_2_);fill:#101010;}
	.st252{clip-path:url(#SVGID_2_);fill:#0F0F0F;}
	.st253{clip-path:url(#SVGID_2_);fill:#0E0E0E;}
	.st254{clip-path:url(#SVGID_2_);fill:#0D0D0D;}
	.st255{clip-path:url(#SVGID_2_);fill:#0C0C0C;}
	.st256{clip-path:url(#SVGID_2_);fill:#0B0B0B;}
	.st257{clip-path:url(#SVGID_2_);fill:#0A0A0A;}
	.st258{clip-path:url(#SVGID_2_);fill:#090909;}
	.st259{clip-path:url(#SVGID_2_);fill:#080808;}
	.st260{clip-path:url(#SVGID_2_);fill:#070707;}
	.st261{clip-path:url(#SVGID_2_);fill:#060606;}
	.st262{clip-path:url(#SVGID_2_);fill:#050505;}
	.st263{clip-path:url(#SVGID_2_);fill:#040404;}
	.st264{clip-path:url(#SVGID_2_);fill:#030303;}
	.st265{clip-path:url(#SVGID_2_);fill:#020202;}
	.st266{clip-path:url(#SVGID_2_);fill:#010101;}
	.st267{clip-path:url(#SVGID_2_);}
	.st268{fill:none;stroke:#000000;stroke-width:30;stroke-miterlimit:10;}
	.st269{fill:#F7FD04;}
	.st270{opacity:0.6;}
	.st271{opacity:0.1;}
	.st272{opacity:0.15;}
	.st273{opacity:0.2;}
	.st274{fill:#A7A7A7;}
	.st275{fill:#DDDDDD;stroke:#000000;stroke-width:20;stroke-miterlimit:10;}
	.st276{fill:#4C4C4C;stroke:#000000;stroke-width:20;stroke-miterlimit:10;}
	.st277{fill:none;stroke:#000000;stroke-width:11;stroke-miterlimit:10;}
	.st278{fill:#FFFFFF;stroke:#000000;stroke-width:25;stroke-miterlimit:10;}
</style>
<g>
	<path d="M4000,1279.32"/>
</g>
<path class="st0" d="M0,3990"/>
<g>
	<g>
		<g>
			<path class="st1" d="M3554,1533.01"/>
		</g>
	</g>
</g>
<g>
	<g>
		<g>
			<path class="st2" d="M972.77,2000.18"/>
		</g>
	</g>
</g>
<g>
	<g>
		<g>
			<path class="st2" d="M3699.35,1631.45"/>
		</g>
	</g>
</g>
<g>
	<g>
		<g>
			<path d="M3789.74,1764.35"/>
		</g>
	</g>
</g>
<g>
	<g>
		<g>
			<path d="M3779.97,1550.24"/>
		</g>
	</g>
</g>
<g>
	<g>
		<g>
			<path d="M3761.04,1489.33"/>
		</g>
	</g>
</g>
<g>
	<g>
		<g>
			<path d="M3745.16,1537.94"/>
		</g>
	</g>
</g>
<g>
	<g>
		<g>
			<path class="st3" d="M3856.92,572"/>
		</g>
	</g>
</g>
<g>
	<g>
		<g>
			<path d="M3699.35,804.56"/>
		</g>
	</g>
</g>
<g>
	<g>
		<g>
			<path class="st1" d="M1818.35,1736.33c55.29,18.09,83.17,39.73,96.75,52.64c5.78,5.5,18.07,17.2,15.7,22.56
				c-2.8,6.34-24.26-0.33-24.26-0.33C1877.15,1786.24,1847.75,1761.29,1818.35,1736.33z"/>
		</g>
	</g>
</g>
<g>
	<g>
		<g>
			<polygon class="st1" points="1859.32,1622.85 1923.87,1562.97 2016.57,1652.76 1988.62,1688.8 1863.15,1650.59 			"/>
		</g>
	</g>
</g>
<g>
	<g>
		<g>
			<path class="st3" d="M1896.66,1685.44"/>
		</g>
	</g>
</g>
<g>
	<g>
		<g>
			<path class="st3" d="M1859.23,1868.57"/>
		</g>
	</g>
</g>
<g>
	<g>
		<g>
			<path class="st3" d="M1877.85,1877.96"/>
		</g>
	</g>
</g>
<g>
	<g>
		<g>
			<path class="st1" d="M2086.3,1453.6"/>
		</g>
	</g>
</g>
<g>
	<g>
		<g>
			<path class="st1" d="M1910.48,1413.08"/>
		</g>
	</g>
</g>
<g>
	<g>
		<g>
			<path class="st1" d="M1891.94,1393.93"/>
		</g>
	</g>
</g>
<g>
	<g>
		<g>
			<path d="M1951.55,1397.23"/>
		</g>
	</g>
</g>
<g>
	<g>
		<g>
			<path d="M1875.92,1405.68"/>
		</g>
	</g>
</g>
<g>
	<g>
		<g>
			<path d="M1900.66,1838.54"/>
		</g>
	</g>
</g>
<g>
	<g>
		<g>
			<path d="M1963.03,1858.33"/>
		</g>
	</g>
</g>
<g>
	<g>
		<g>
			<path d="M1957.02,1888.33"/>
		</g>
	</g>
</g>
<g>
	<g>
		<g>
			<path d="M1800.39,2058.52"/>
		</g>
	</g>
</g>
<g>
	<g>
		<g>
			<path d="M2096.84,1629.62"/>
		</g>
	</g>
</g>
<g>
	<g>
		<path class="st4" d="M1841.64,2168.74"/>
	</g>
</g>
<g>
	<g>
		<path class="st1" d="M1692.3,1431.16"/>
	</g>
</g>
<g>
	<g>
		<path class="st1" d="M1905.51,1437.07"/>
	</g>
</g>
<g>
	<g>
		<path class="st1" d="M2014.46,1479.41"/>
	</g>
</g>
<g>
	<g>
		<path class="st5" d="M1893.82,1717"/>
	</g>
</g>
<g>
	<g>
		<path class="st5" d="M1998.16,1641.2"/>
	</g>
</g>
<g>
	<g>
		<path class="st5" d="M1949.23,1660.64"/>
	</g>
</g>
<g>
	<ellipse class="st1" cx="2012.31" cy="3579.78" rx="1427.87" ry="10.92"/>
	<path d="M2012.31,3602.07c-381.42,0-740.02-1.14-1009.74-3.2c-131.17-1-234.17-2.17-306.12-3.47c-36.52-0.66-64.59-1.35-83.42-2.06
		c-9.68-0.36-17.1-0.73-22.07-1.11c-2.76-0.21-4.83-0.42-6.36-0.65c-10.7-1.61-11.54-9.45-11.54-11.81c0-2.36,0.83-10.2,11.54-11.81
		c1.52-0.23,3.6-0.44,6.36-0.65c4.96-0.37,12.39-0.75,22.07-1.11c18.83-0.7,46.9-1.4,83.42-2.06c71.96-1.3,174.95-2.47,306.12-3.47
		c269.72-2.06,628.32-3.2,1009.74-3.2s740.02,1.14,1009.74,3.2c131.17,1,234.17,2.17,306.12,3.47c36.52,0.66,64.59,1.35,83.42,2.06
		c9.68,0.36,17.1,0.73,22.07,1.11c2.75,0.21,4.83,0.42,6.36,0.65c10.7,1.61,11.54,9.45,11.54,11.81c0,2.36-0.83,10.2-11.54,11.81
		c-1.52,0.23-3.6,0.44-6.36,0.65c-4.96,0.37-12.39,0.75-22.07,1.11c-18.83,0.7-46.9,1.4-83.42,2.06
		c-71.96,1.3-174.95,2.47-306.12,3.47C2752.33,3600.94,2393.73,3602.07,2012.31,3602.07z"/>
</g>
<g>
	<g>
		<path class="st6" d="M1935.67,2190.3"/>
	</g>
</g>
<g>
	<g>
		<path class="st6" d="M1893.6,2189.54"/>
	</g>
</g>
<g>
	<g>
		<path d="M2008.61,1370.86"/>
	</g>
</g>
<g>
	<g>
		<path d="M1961.27,1636.06"/>
	</g>
</g>
<g>
	<g>
		<path d="M1917.86,1455.73"/>
	</g>
</g>
<g>
	<g>
		<path d="M1900.59,1490.34"/>
	</g>
</g>
<g>
	<g>
		<path class="st5" d="M1974.49,2267.43"/>
	</g>
</g>
<g>
	<g>
		<path class="st1" d="M1954.22,2238.72"/>
	</g>
</g>
<g>
	<g>
		<path class="st5" d="M1929.44,2200.8"/>
	</g>
</g>
<g>
	<path class="st1" d="M2077.83,1338.43"/>
</g>
<g>
	<path class="st1" d="M2022.82,1305.61"/>
</g>
<g class="st7">
	<path class="st1" d="M1987.33,2007.53c1.51,1.61-30.4,53.09-87.85,68.21c-41.74,10.99-80.55-1.54-80.41-3.62
		c0.13-1.98,35.34,6.45,77.7-5.6C1955.25,2049.88,1985.9,2006,1987.33,2007.53z"/>
</g>
<g>
	<path class="st1" d="M1874.89,2365.77c-24.46,51.43-30.08,94.43-30.94,122.86c0,0-2.61,86.1,61.88,232.88
		c0.3,0.67,2.16,4.9,4.58,10.72c2.72,6.55,6.22,15.33,9.98,25.8c0,0,12.89,35.93,20.93,73.9c10.5,49.58,25,175.97-19.01,311.35
		c-9.29,28.58-19.49,52.94-43.66,63.01c-19.31,8.04-46.82,6.96-85.84-15.12c0,0,31.33-73.83-31.33-133.68
		c-62.66-59.86-121.14-31.92-121.14-31.92s29.24-123.71-116.96-223.47c0,0-158.73-87.79-309.11,43.9c0,0-66.84,75.82-58.48,159.62
		c0,0-137.85-35.92-225.57,51.88s-45.95,179.58-45.95,179.58s-87.72-11.97-91.9,71.83c0,0-133.67,27.93-121.14,143.66
		c12.53,115.73,125.32,127.7,125.32,127.7h2422.79c0,0,171.27-19.95,162.91-143.66c-8.35-123.71-112.78-123.71-112.78-123.71
		s0-79.81-96.08-79.81c0,0,45.95-127.7-79.37-203.52c-125.32-75.82-200.51,0-200.51,0c3.44-18,14.27-85.79-23.76-151.72
		c-57.98-100.53-174.82-101.82-181.29-101.77c-16.27-3.35-98.81-18.52-175.32,36.82c-53.7,38.85-75.72,91.67-83.31,112.92
		c0,0-16.71,47.89-12.53,95.77c0,0-104.43-11.97-142.03,67.84c-37.59,79.81-4.18,111.74-4.18,111.74
		c-17.93,4.83-80.99,19.74-125.55-13.51c-23.64-17.64-32.72-41.84-37.7-57.51c-50.72-159.55,13.65-378.19,13.65-378.19
		c8.47-28.77,18.59-59.11,34.36-110.54c19.66-64.1,21.8-65.88,23.88-79.86c6.86-46.11-4.33-55.95-6.37-144.8
		c-0.93-40.6,1.26-45.09-3.64-59.15c-13.8-39.64-51.58-62.68-81.9-75.99c-55.87,8.55-111.74,17.1-167.61,25.65
		C1905.12,2326.75,1890,2346.26,1874.89,2365.77z"/>
	<path d="M3220.01,3591.61H795.96l-0.6-0.06c-1.25-0.13-31-3.46-62.51-21.95c-29.41-17.25-65.93-51.35-72.91-115.83
		c-5.61-51.78,15.43-95.31,60.83-125.89c23.94-16.12,48.5-24.47,60.97-28.01c2.76-23.21,12.03-41.5,27.64-54.45
		c19.01-15.77,43-19.65,59.01-20.25c-2.85-10.86-5.67-26.48-5.38-45.16c0.51-33.05,11.19-82.53,59.2-130.58
		c37.91-37.94,90.9-59.45,153.23-62.18c28.96-1.28,53.52,1.72,68.31,4.27c-0.06-32.43,9.54-67.54,28.15-102.5
		c16.11-30.26,33.16-49.75,33.88-50.56l0.49-0.55l0.55-0.49c35.57-31.15,74.64-52.95,116.11-64.79c33.24-9.49,68.03-12.62,103.4-9.3
		c60.15,5.64,100.9,27.86,102.61,28.81l0.47,0.26l0.44,0.3c34.5,23.54,62.38,50.43,82.88,79.91c16.55,23.8,28.34,49.32,35.04,75.85
		c6.45,25.53,6.94,47.05,6.06,61.28c6.57-1.29,14.67-2.23,23.89-2.03c22.5,0.5,56.67,8.11,91.67,41.56
		c35.27,33.7,42.68,71.63,42.68,97.51c0,16.5-2.92,30.25-5.39,38.92c27.44,13.98,50.17,17.38,67.65,10.1
		c18.38-7.65,27.56-26.34,37.21-56.02c48.06-147.83,24.01-280.4,18.7-305.48c-7.78-36.72-20.38-72.06-20.51-72.41
		c-3.05-8.51-6.34-17.02-9.78-25.27c-1.47-3.54-3.05-7.24-4.45-10.41l-0.04-0.1c-64.79-147.44-62.95-234.18-62.84-237.8
		c1.29-42.55,12.07-85.41,32.04-127.4l0.53-1.11l48.87-63.1l175.37-26.83l3.03,1.33c46.45,20.38,76.08,48.19,88.08,82.67
		c4.02,11.56,4.02,18.23,4,34.35c-0.01,7.1-0.02,15.93,0.27,28.28c0.91,39.59,3.61,62.87,5.78,81.58
		c2.68,23.1,4.45,38.37,0.47,65.16c-1.4,9.42-2.84,13.89-8.21,30.52c-3.33,10.33-8.36,25.94-16.05,51
		c-7.36,24.01-13.44,43.25-18.8,60.23c-6.16,19.52-11.03,34.93-15.52,50.19c-0.16,0.54-16.02,54.96-25.53,127.91
		c-8.71,66.81-13.73,163.31,11.81,243.62c5.19,16.31,13.7,36.94,33.66,51.83c31.16,23.25,74.06,20.23,100.74,15.1
		c-8.12-18.38-14.27-53.52,11.89-109.06c16.92-35.92,49.04-60.16,92.89-70.1c18.97-4.3,36.19-5.04,47.42-4.9
		c-0.86-44.92,13.15-85.65,13.8-87.52c9.94-27.83,34.47-80.11,87.38-118.38c34.04-24.63,73.06-38.94,115.96-42.54
		c28.56-2.4,52.13,0.55,67.19,3.56c14.14,0.18,130.75,4.79,189.97,107.46c28.27,49.02,31.05,99.56,28.56,132.81
		c9.22-5.31,21.15-10.84,35.58-14.81c21.53-5.92,44.3-7.21,67.69-3.84c28.8,4.15,58.57,15.42,88.46,33.51
		c68.75,41.6,88.04,98.43,92.11,138.78c2.7,26.74-0.73,49.69-3.89,63.72c45.04,3.97,67.77,26.01,79.07,44.79
		c7.94,13.19,11.26,26.39,12.64,35.21c11.07,1.42,29.55,5.34,48.51,16.14c27.2,15.49,60.59,48.42,65.25,117.36
		c3.75,55.57-25.53,100.25-84.67,129.2c-43.03,21.07-86.45,26.31-88.27,26.52L3220.01,3591.61z M797.26,3568.86h2421.36
		c5.23-0.7,43.82-6.31,80.78-24.51c50.56-24.91,74.61-60.91,71.5-107c-3.19-47.26-21.29-80.61-53.81-99.13
		c-24.25-13.81-47.4-13.97-47.63-13.97h-11.38v-11.38c-0.03-2.75-1.58-68.44-84.7-68.44h-16.18l5.48-15.23
		c0.1-0.28,10.7-30.69,6.6-69.21c-5.4-50.79-32.7-91.41-81.16-120.72c-48.72-29.48-94.87-38.74-137.17-27.51
		c-31.53,8.36-49.23,25.65-49.4,25.82l-26.25,26.47l7.04-36.65c4.53-23.71,11.42-85.2-22.44-143.9
		c-22.77-39.49-57.71-67.59-103.82-83.53c-36.47-12.61-66.29-12.54-67.54-12.55l-1.2,0.01l-1.17-0.24
		c-21.58-4.44-97.33-15.04-166.36,34.9c-47.91,34.66-70.21,82.19-79.24,107.48c-0.55,1.6-15.78,46.81-11.93,91l1.21,13.88
		l-13.84-1.59c-0.23-0.03-25.09-2.69-53.74,3.93c-36.96,8.53-62.76,27.87-76.7,57.46c-17.52,37.2-18.2,62.29-15.69,76.78
		c2.49,14.35,8.36,21.09,9.15,21.94l15.72,13.94l-20.68,5.21c-18.74,5.05-37.99,7.79-55.67,7.92c-0.47,0-0.93,0.01-1.4,0.01
		c-31.21,0-57.53-7.83-78.25-23.3c-25.16-18.77-35.52-43.62-41.74-63.18c-11.89-37.41-18.56-81-19.8-129.56
		c-0.99-38.57,1.42-80.39,7.16-124.29c9.76-74.63,25.55-128.73,26.21-131c4.55-15.47,9.45-30.98,15.65-50.61
		c5.35-16.93,11.41-36.13,18.75-60.05c7.73-25.22,12.8-40.92,16.15-51.31c5.16-15.99,6.23-19.32,7.35-26.88
		c3.54-23.81,2-37.12-0.56-59.18c-2.11-18.16-5-43.04-5.93-83.68c-0.29-12.63-0.28-21.99-0.27-28.83
		c0.01-15.3,0.02-18.93-2.74-26.85c-9.59-27.55-34.05-50.41-72.74-67.98l-159.82,24.45l-41.8,53.96
		c-18.27,38.77-28.14,78.2-29.32,117.22c-0.02,0.82-1.53,85.81,60.93,227.95l0.04,0.09c1.48,3.36,3.08,7.11,4.63,10.84
		c3.57,8.6,7,17.45,10.18,26.32c0.54,1.5,13.25,37.1,21.35,75.39c5.52,26.07,30.53,163.88-19.32,317.22
		c-9.35,28.75-20.91,57.84-50.1,69.99c-26.01,10.83-58.25,5.54-95.82-15.72l-8.83-5l3.96-9.34c0.06-0.14,7.1-17.31,6.93-40.83
		c-0.23-30.84-12.22-57.81-35.64-80.19c-23.51-22.46-48.85-34.31-75.31-35.23c-19.8-0.7-33,5.31-33.13,5.37l-21.44,10.24l5.53-23.15
		c0.06-0.26,6.58-29.67-3.93-70.14c-14.06-54.17-50.35-101.59-107.88-140.97c-4.27-2.24-41.64-21.18-94.24-25.93
		c-73.78-6.67-141.35,16.25-200.86,68.12c-5.59,6.61-62.67,76.15-55.26,150.47l1.62,16.26l-15.81-4.12
		c-0.32-0.08-33.87-8.61-77.19-6.6c-57.05,2.64-103.3,21.31-137.47,55.51c-33.92,33.94-51.59,72.23-52.52,113.79
		c-0.7,31.23,8.8,52.85,8.9,53.07l8.36,18.68l-20.27-2.73c-0.33-0.04-35.98-4.47-58.95,14.69c-12.28,10.24-19.02,25.87-20.05,46.44
		l-0.44,8.77l-8.6,1.8c-0.3,0.06-32.14,6.96-61.78,27.1c-38.11,25.89-55.06,60.95-50.38,104.21c4.76,43.92,25.31,76.97,61.09,98.24
		C768.89,3564.55,793.42,3568.34,797.26,3568.86z"/>
</g>
<g>
	<path d="M1809.5,1723.84"/>
</g>
<g>
	<path class="st8" d="M1872.51,2307.93c-18.83,49.37-39.43,124.03-35.39,214.82c9.44,211.95,145.95,349.96,183.83,385.86
		c43.7-47.36,147.32-172.99,165.39-359.93c7.99-82.69-3.11-153.07-15.97-203.62l-106.16-116.97L1872.51,2307.93z"/>
	<path d="M2021.61,2928.04l-10.04-9.52c-39.72-37.64-75.97-82.49-104.84-129.7c-51.11-83.59-79.12-172.9-83.24-265.47
		c-3.31-74.39,8.89-148.51,36.27-220.3l2.09-5.48l206.01-85.79l114.91,126.62l0.84,3.29c17.53,68.91,23.02,138.99,16.32,208.3
		c-7.98,82.56-33.12,162.51-74.73,237.61c-25.91,46.77-57.61,90.59-94.22,130.26L2021.61,2928.04z M1883.22,2318.26
		c-24.6,66.57-35.52,135.14-32.46,203.89c8.13,182.64,114.33,311.66,169.55,366.8c54.08-61.38,136.8-179.63,152.45-341.57
		c6.29-65.06,1.31-130.87-14.78-195.66l-97.4-107.31L1883.22,2318.26z"/>
</g>
<g>
	<path class="st5" d="M1900.83,2375.32c-11.6,35.12-21.85,81.45-20.59,135.75c3.76,162.1,107.2,271.71,138.9,302.9
		c34.6-47.11,57.71-89.99,72.8-121.95c20.76-43.95,42.51-90.97,49.14-153.8c3.13-29.68,2.25-56.74,1.82-66.43
		c-1.27-28.75-4.78-47.91-10.4-79.6c-21.06-118.79-23.02-135.97-37.68-142.42c-28.47-12.52-62.45,16.66-62.45,16.66
		C1988.53,2302.74,1944.68,2339.03,1900.83,2375.32z"/>
</g>
<g>
	<path class="st9" d="M1830.54,2301.67l-0.23,51.28c0,0,166.49,161.19,356.56,0.34l5.63-54.99l-186.97-59.28L1830.54,2301.67z"/>
	<path d="M2010.17,2438.35c-25.57,0-51.29-3.96-76.87-11.86c-67.72-20.92-110.68-61.99-112.47-63.73l-4.18-4.05l0.29-66.67
		l188.33-67.43l201.95,64.03l-7.32,71.51l-4.2,3.56c-45.22,38.27-93.11,62.1-142.33,70.83
		C2039.05,2437.08,2024.63,2438.35,2010.17,2438.35z M1844,2346.87c11.83,10.15,47.97,38.5,98.35,53.83
		c80.16,24.4,158.03,6.12,231.52-54.33l3.93-38.41l-172-54.54l-161.64,57.87L1844,2346.87z"/>
</g>
<g>
	<path class="st9" d="M2004.53,1391.36c0,0-226.7,138.77-222.87,633.41l3.32,229.22c0,0,38.42,88.65,218.75,94.48
		c0,0,134.73,2.96,242.32-86.76l-7.17-90.24l-9.22-60.7c0,0,18.96-211.59-41.23-404.45
		C2188.44,1706.32,2147.46,1522.59,2004.53,1391.36z"/>
	<path d="M2005.37,2362.13c-1.11,0-1.76-0.01-1.94-0.02l-0.14,0c-186.82-6.05-229.12-98.76-230.83-102.7l-1.08-2.5l-3.36-232.04
		c-0.88-113.98,10.43-218.64,33.62-311.07c18.64-74.3,44.96-140.94,78.23-198.09c57.27-98.37,115.11-134.5,117.54-135.99l8.78-5.37
		l7.58,6.96c75.53,69.35,122.59,153.1,148.76,211.14c27,59.87,37.76,104.51,39.1,110.33c31.41,100.91,41.07,206.63,43.63,277.6
		c2.54,70.33-1.07,120.18-1.86,129.94l9.05,59.59l0.04,0.49l7.73,97.28l-5.42,4.52c-57.68,48.1-122.81,69.98-167.29,79.87
		C2045.15,2361.47,2013.41,2362.13,2005.37,2362.13z M2004.07,2334.82c1.34,0.02,33.89,0.37,78.31-9.59
		c39.9-8.95,97.63-28.25,149.49-69.58l-6.56-82.61l-9.39-61.85l0.15-1.64c0.05-0.52,4.65-53.27,1.9-128.64
		c-2.53-69.31-11.96-172.5-42.56-270.52l-0.17-0.54l-0.12-0.55c-0.1-0.44-10.43-45.81-37.77-106.29
		c-24.15-53.42-66.74-129.53-133.99-194.03c-17.44,13.44-59.57,50.57-101.03,122.43c-49.89,86.46-108.95,242.21-107.01,493.22
		l3.27,225.95c3.24,5.7,13.94,22.04,37.94,38.66C1864.27,2308.44,1915.85,2331.95,2004.07,2334.82z"/>
</g>
<g>
	<path class="st10" d="M1781.96,2045.06c0,0-110.18,54.25-117.37,316.03c0,0,44.32-115.07,120.39-107.11
		C1784.98,2253.98,1806.58,2194.25,1781.96,2045.06z"/>
	<path d="M1648.78,2439.75l2.16-79.03c7.32-266.94,120.18-325.53,124.98-327.9l16.5-8.13l3,18.15
		c24.92,150.97,3.33,213.21,2.4,215.78l-3.63,10.05l-10.63-1.11c-64.73-6.79-105.83,97.39-106.24,98.45L1648.78,2439.75z
		 M1771.91,2069.48c-9.7,8.83-22.66,23.11-35.77,44.97c-20.37,33.97-44.53,92.38-54.08,186.35c20.71-29.29,51.8-59.48,92.42-60.83
		C1778.65,2219.81,1785.7,2166.13,1771.91,2069.48z"/>
</g>
<g>
	<path class="st10" d="M2230.78,2045.71c0,0,115,45.04,147.02,305.24c0,0-55.11-111.01-130.2-96.87
		C2247.6,2254.08,2220.4,2196.34,2230.78,2045.71z"/>
	<path d="M2401.11,2428.6l-35.53-71.58c-0.5-1.01-51.44-101.59-115.45-89.52l-10.38,1.95l-4.5-9.55
		c-1.17-2.49-28.6-62.7-18.09-215.13l1.28-18.55l17.32,6.78c5.01,1.96,122.95,51.06,155.59,316.28L2401.11,2428.6z M2261.02,2239.16
		c38.7,0,70.98,26.49,93.58,52.97c-18.46-92.67-48.07-148.82-71.6-180.97c-15.14-20.68-29.41-33.86-39.92-41.87
		c-4.63,98.26,7.52,150.55,13.62,169.98C2258.15,2239.2,2259.59,2239.16,2261.02,2239.16z"/>
</g>
<g>
	<path class="st10" d="M2001.44,2051.68c-2.67-5.4-93.25,199.79,10.23,380.34C2011.67,2432.03,2107.73,2266.43,2001.44,2051.68z"/>
	<path d="M2011.6,2459.35l-11.77-20.54c-23.01-40.16-38.48-84.61-45.97-132.13c-6.1-38.73-6.94-79.49-2.5-121.15
		c7.79-72.97,29.71-127.65,36.81-139.31c3.49-5.74,8.1-8.53,13.72-8.28c5.03,0.22,9.54,3.17,11.78,7.69v0
		c24.91,50.34,40.98,102.26,47.74,154.32c5.42,41.74,4.91,83.65-1.52,124.56c-11,69.96-35.39,112.59-36.42,114.37L2011.6,2459.35z
		 M2001.46,2084.41c-7.89,22.57-17.92,58.83-22.71,101.83c-6.21,55.75-4.96,136.12,32.21,214.91c7.38-18.37,16.69-46.57,22.17-82.13
		C2041.59,2264.01,2042.2,2180.45,2001.46,2084.41z M1989.2,2057.74c0,0.01,0.01,0.02,0.01,0.03
		C1989.21,2057.76,1989.2,2057.74,1989.2,2057.74L1989.2,2057.74z"/>
</g>
<g>
	<path class="st10" d="M1847.17,1615.35c0,0,133.87,111.93,312.24,4.31c0,0-65.74-157.81-160.51-226.28
		C1998.9,1393.38,1918.05,1440.81,1847.17,1615.35z"/>
	<path d="M2002.81,1680.04c-23.53,0-46.9-3-69.85-8.98c-58.06-15.13-93.08-44.03-94.54-45.25l-7.64-6.39l3.75-9.22
		c71.8-176.8,154-226.57,157.47-228.61l7.68-4.51l7.22,5.22c40.84,29.51,81.07,77.6,119.56,142.96
		c28.43,48.27,44.87,87.5,45.55,89.14l4.52,10.86l-10.07,6.08c-42.34,25.54-85.88,41.22-129.42,46.58
		C2025.62,1679.34,2014.2,1680.04,2002.81,1680.04z M1863.87,1610.67c12.65,8.61,39.79,24.74,77.16,34.29
		c66.5,16.98,134.04,6.57,200.94-30.94c-16.07-35.14-70.8-146.48-143.37-203.75c-8.07,6.2-22.34,18.46-39.93,39.04
		C1934.14,1478.03,1898.17,1529.03,1863.87,1610.67z"/>
</g>
<g class="st11">
	
		<ellipse transform="matrix(0.8438 -0.5367 0.5367 0.8438 -689.6176 1373.8555)" cx="2015.21" cy="1871.56" rx="134.61" ry="135.6"/>
	<path d="M2016.35,2020.48c-49.31,0-97.74-24.55-126.24-69.36c-44.17-69.44-23.98-161.63,45-205.5
		c33.43-21.26,73.19-28.14,111.97-19.36c38.73,8.77,71.84,32.11,93.23,65.74c21.38,33.62,28.49,73.51,20.01,112.31
		c-8.49,38.84-31.58,71.93-65.01,93.2C2070.84,2013.06,2043.46,2020.48,2016.35,2020.48z M2014.08,1749.85
		c-22.63,0-44.8,6.39-64.31,18.81c-56.28,35.79-72.7,111.07-36.61,167.81c23.3,36.63,62.88,56.72,103.16,56.72
		c22.1,0,44.41-6.05,64.35-18.73c27.25-17.33,46.06-44.32,52.99-75.99c6.93-31.71,1.12-64.32-16.37-91.82v0
		c-17.49-27.5-44.56-46.59-76.22-53.76C2032.08,1750.85,2023.04,1749.85,2014.08,1749.85z"/>
</g>
<g>
	
		<ellipse transform="matrix(0.8438 -0.5367 0.5367 0.8438 -683.3328 1364.1586)" class="st10" cx="2001.7" cy="1855.91" rx="134.61" ry="135.6"/>
	<path d="M2002.88,2004.93c-10.99,0-22.06-1.23-33.06-3.72c-38.74-8.77-71.84-32.11-93.23-65.74
		c-21.39-33.62-28.49-73.51-20.01-112.31c8.49-38.84,31.58-71.93,65.01-93.2c68.98-43.87,161.03-23.07,205.2,46.37v0
		c21.38,33.62,28.49,73.51,20.01,112.31c-8.49,38.84-31.58,71.93-65.01,93.2C2057.85,1997.08,2030.64,2004.93,2002.88,2004.93z
		 M2000.6,1734.28c-22.1,0-44.41,6.05-64.35,18.73c-27.25,17.33-46.06,44.32-52.99,75.99c-6.93,31.71-1.12,64.32,16.37,91.82
		c17.49,27.5,44.56,46.59,76.22,53.76c31.62,7.16,64.04,1.56,91.29-15.77c27.25-17.33,46.06-44.32,52.99-75.99
		c6.93-31.71,1.12-64.32-16.37-91.82C2080.46,1754.37,2040.87,1734.28,2000.6,1734.28z"/>
</g>
<g class="st7">
	
		<ellipse transform="matrix(0.8438 -0.5366 0.5366 0.8438 -685.6691 1368.2338)" class="st12" cx="2007.66" cy="1862.03" rx="82.27" ry="81.79"/>
	<path class="st1" d="M2007.15,1957.66c-13.91,0-27.75-3.06-40.69-9.16c-23.03-10.84-40.43-29.99-49.01-53.93
		c-17.75-49.53,8.25-104.44,57.97-122.41c24.18-8.73,50.26-7.53,73.44,3.38c23.03,10.84,40.44,29.99,49.01,53.93
		c17.75,49.53-8.25,104.45-57.97,122.41C2029.22,1955.74,2018.16,1957.66,2007.15,1957.66z M2008.14,1793.71
		c-7.88,0-15.8,1.37-23.45,4.14c-35.59,12.86-54.23,52.12-41.54,87.52c6.11,17.06,18.52,30.71,34.94,38.44
		c16.57,7.8,35.23,8.65,52.53,2.4c35.59-12.86,54.23-52.12,41.54-87.52l0,0c-6.11-17.06-18.52-30.71-34.94-38.44
		C2027.98,1795.9,2018.08,1793.71,2008.14,1793.71z"/>
</g>
<g>
	
		<ellipse transform="matrix(0.8438 -0.5367 0.5367 0.8438 -682.6797 1364.0382)" class="st12" cx="2001.83" cy="1854.74" rx="82.27" ry="82.88"/>
	<path d="M2002.47,1951.1c-39.5,0-76.73-24.6-90.97-63.98c-8.8-24.35-7.6-50.6,3.38-73.93c10.89-23.14,30.13-40.62,54.17-49.23
		c49.79-17.83,105.01,8.36,123.1,58.38c8.8,24.35,7.6,50.6-3.38,73.93c-10.89,23.14-30.13,40.62-54.17,49.22
		C2024.01,1949.3,2013.15,1951.1,2002.47,1951.1z M2001.22,1785.68c-7.64,0-15.39,1.29-22.97,4c-17.16,6.14-30.89,18.63-38.67,35.15
		c-7.87,16.71-8.72,35.54-2.4,53.01c12.98,35.91,52.56,54.73,88.22,41.96c17.16-6.14,30.89-18.63,38.67-35.15
		c7.87-16.71,8.72-35.54,2.4-53.01C2056.25,1803.36,2029.53,1785.68,2001.22,1785.68z"/>
</g>
<g class="st11">
	<path d="M2244.27,2060.75c0,0-2.4,120.93,71.03,187.35c73.43,66.42,55.84,114.42,55.84,114.42s-8.95-67.6-76.73-101.87
		c-67.78-34.26-46.81-6.57-46.81-6.57s-24.59-155.11-15.52-192.08C2241.15,2025.02,2244.27,2060.75,2244.27,2060.75z"/>
</g>
<g class="st11">
	<path d="M1772,2059.46c0,0,23.21,103.75-95.66,260.15c0,0,55.34-76.9,108.46-78.16C1784.8,2241.45,1802.66,2086.65,1772,2059.46z"
		/>
</g>
<g class="st11">
	<path d="M1783.14,2052.38c0,0,57.86,491.1,200.59,10.68c0,0-42.88,208.19-13.36,258.32c29.51,50.13-2.49,16.62-2.49,16.62
		s-146.2-8.47-184.93-86.18"/>
</g>
<g class="st11">
	<path d="M1995.85,2070.66c0,0,61.8,238.96,15.89,361.53C2011.74,2432.19,2095.8,2216.33,1995.85,2070.66z"/>
</g>
<g>
	<path class="st1" d="M1982.29,2242.84c0.98,21.36,4.21,38.59,7.2,38.47c2.99-0.12,4.62-17.54,3.64-38.9
		c-0.99-21.36-4.21-38.59-7.2-38.47C1982.93,2204.06,1981.3,2221.48,1982.29,2242.84z"/>
</g>
<g>
	<g>
		<defs>
			<path id="SVGID_1_" d="M759.52,2168.74"/>
		</defs>
		<clipPath id="SVGID_2_">
			<use xlink:href="#SVGID_1_"  style="overflow:visible;"/>
		</clipPath>
		<path class="st13" d="M759.52,2168.74L759.52,2168.74L759.52,2168.74z"/>
		<path class="st13" d="M759.52,2168.74L759.52,2168.74L759.52,2168.74z"/>
		<path class="st14" d="M759.52,2168.74L759.52,2168.74L759.52,2168.74z"/>
		<path class="st15" d="M759.52,2168.74L759.52,2168.74L759.52,2168.74z"/>
		<path class="st16" d="M759.52,2168.74L759.52,2168.74L759.52,2168.74z"/>
		<path class="st17" d="M759.52,2168.74L759.52,2168.74L759.52,2168.74z"/>
		<path class="st18" d="M759.52,2168.74L759.52,2168.74L759.52,2168.74z"/>
		<path class="st19" d="M759.52,2168.74L759.52,2168.74L759.52,2168.74z"/>
		<path class="st20" d="M759.52,2168.74L759.52,2168.74L759.52,2168.74z"/>
		<path class="st21" d="M759.52,2168.74L759.52,2168.74L759.52,2168.74z"/>
		<path class="st22" d="M759.52,2168.74L759.52,2168.74L759.52,2168.74z"/>
		<path class="st23" d="M759.52,2168.74L759.52,2168.74L759.52,2168.74z"/>
		<path class="st24" d="M759.52,2168.74L759.52,2168.74L759.52,2168.74z"/>
		<path class="st25" d="M759.52,2168.74L759.52,2168.74L759.52,2168.74z"/>
		<path class="st26" d="M759.52,2168.74L759.52,2168.74L759.52,2168.74z"/>
		<path class="st27" d="M759.52,2168.74L759.52,2168.74L759.52,2168.74z"/>
		<path class="st28" d="M759.52,2168.74L759.52,2168.74L759.52,2168.74z"/>
		<path class="st29" d="M759.52,2168.74L759.52,2168.74L759.52,2168.74z"/>
		<path class="st30" d="M759.52,2168.74L759.52,2168.74L759.52,2168.74z"/>
		<path class="st31" d="M759.52,2168.74L759.52,2168.74L759.52,2168.74z"/>
		<path class="st32" d="M759.52,2168.74L759.52,2168.74L759.52,2168.74z"/>
		<path class="st33" d="M759.52,2168.74L759.52,2168.74L759.52,2168.74z"/>
		<path class="st34" d="M759.52,2168.74L759.52,2168.74L759.52,2168.74z"/>
		<path class="st35" d="M759.52,2168.74L759.52,2168.74L759.52,2168.74z"/>
		<path class="st36" d="M759.52,2168.74L759.52,2168.74L759.52,2168.74z"/>
		<path class="st37" d="M759.52,2168.74L759.52,2168.74L759.52,2168.74z"/>
		<path class="st38" d="M759.52,2168.74L759.52,2168.74L759.52,2168.74z"/>
		<path class="st39" d="M759.52,2168.74L759.52,2168.74L759.52,2168.74z"/>
		<path class="st40" d="M759.52,2168.74L759.52,2168.74L759.52,2168.74z"/>
		<path class="st41" d="M759.52,2168.74L759.52,2168.74L759.52,2168.74z"/>
		<path class="st42" d="M759.52,2168.74L759.52,2168.74L759.52,2168.74z"/>
		<path class="st43" d="M759.52,2168.74L759.52,2168.74L759.52,2168.74z"/>
		<path class="st44" d="M759.52,2168.74L759.52,2168.74L759.52,2168.74z"/>
		<path class="st45" d="M759.52,2168.74L759.52,2168.74L759.52,2168.74z"/>
		<path class="st46" d="M759.52,2168.74L759.52,2168.74L759.52,2168.74z"/>
		<path class="st47" d="M759.52,2168.74L759.52,2168.74L759.52,2168.74z"/>
		<path class="st48" d="M759.52,2168.74L759.52,2168.74L759.52,2168.74z"/>
		<path class="st49" d="M759.52,2168.74L759.52,2168.74L759.52,2168.74z"/>
		<path class="st50" d="M759.52,2168.74L759.52,2168.74L759.52,2168.74z"/>
		<path class="st51" d="M759.52,2168.74L759.52,2168.74L759.52,2168.74z"/>
		<path class="st52" d="M759.52,2168.74L759.52,2168.74L759.52,2168.74z"/>
		<path class="st53" d="M759.52,2168.74L759.52,2168.74L759.52,2168.74z"/>
		<path class="st54" d="M759.52,2168.74L759.52,2168.74L759.52,2168.74z"/>
		<path class="st55" d="M759.52,2168.74L759.52,2168.74L759.52,2168.74z"/>
		<path class="st56" d="M759.52,2168.74L759.52,2168.74L759.52,2168.74z"/>
		<path class="st57" d="M759.52,2168.74L759.52,2168.74L759.52,2168.74z"/>
		<path class="st58" d="M759.52,2168.74L759.52,2168.74L759.52,2168.74z"/>
		<path class="st59" d="M759.52,2168.74L759.52,2168.74L759.52,2168.74z"/>
		<path class="st60" d="M759.52,2168.74L759.52,2168.74L759.52,2168.74z"/>
		<path class="st61" d="M759.52,2168.74L759.52,2168.74L759.52,2168.74z"/>
		<path class="st62" d="M759.52,2168.74L759.52,2168.74L759.52,2168.74z"/>
		<path class="st63" d="M759.52,2168.74L759.52,2168.74L759.52,2168.74z"/>
		<path class="st64" d="M759.52,2168.74L759.52,2168.74L759.52,2168.74z"/>
		<path class="st65" d="M759.52,2168.74L759.52,2168.74L759.52,2168.74z"/>
		<path class="st66" d="M759.52,2168.74L759.52,2168.74L759.52,2168.74z"/>
		<path class="st67" d="M759.52,2168.74L759.52,2168.74L759.52,2168.74z"/>
		<path class="st68" d="M759.52,2168.74L759.52,2168.74L759.52,2168.74z"/>
		<path class="st69" d="M759.52,2168.74L759.52,2168.74L759.52,2168.74z"/>
		<path class="st70" d="M759.52,2168.74L759.52,2168.74L759.52,2168.74z"/>
		<path class="st71" d="M759.52,2168.74L759.52,2168.74L759.52,2168.74z"/>
		<path class="st72" d="M759.52,2168.74L759.52,2168.74L759.52,2168.74z"/>
		<path class="st73" d="M759.52,2168.74L759.52,2168.74L759.52,2168.74z"/>
		<path class="st74" d="M759.52,2168.74L759.52,2168.74L759.52,2168.74z"/>
		<path class="st75" d="M759.52,2168.74L759.52,2168.74L759.52,2168.74z"/>
		<path class="st76" d="M759.52,2168.74L759.52,2168.74L759.52,2168.74z"/>
		<path class="st77" d="M759.52,2168.74L759.52,2168.74L759.52,2168.74z"/>
		<path class="st78" d="M759.52,2168.74L759.52,2168.74L759.52,2168.74z"/>
		<path class="st79" d="M759.52,2168.74L759.52,2168.74L759.52,2168.74z"/>
		<path class="st80" d="M759.52,2168.74L759.52,2168.74L759.52,2168.74z"/>
		<path class="st81" d="M759.52,2168.74L759.52,2168.74L759.52,2168.74z"/>
		<path class="st82" d="M759.52,2168.74L759.52,2168.74L759.52,2168.74z"/>
		<path class="st83" d="M759.52,2168.74L759.52,2168.74L759.52,2168.74z"/>
		<path class="st84" d="M759.52,2168.74L759.52,2168.74L759.52,2168.74z"/>
		<path class="st85" d="M759.52,2168.74L759.52,2168.74L759.52,2168.74z"/>
		<path class="st86" d="M759.52,2168.74L759.52,2168.74L759.52,2168.74z"/>
		<path class="st87" d="M759.52,2168.74L759.52,2168.74L759.52,2168.74z"/>
		<path class="st88" d="M759.52,2168.74L759.52,2168.74L759.52,2168.74z"/>
		<path class="st89" d="M759.52,2168.74L759.52,2168.74L759.52,2168.74z"/>
		<path class="st90" d="M759.52,2168.74L759.52,2168.74L759.52,2168.74z"/>
		<path class="st91" d="M759.52,2168.74L759.52,2168.74L759.52,2168.74z"/>
		<path class="st92" d="M759.52,2168.74L759.52,2168.74L759.52,2168.74z"/>
		<path class="st93" d="M759.52,2168.74L759.52,2168.74L759.52,2168.74z"/>
		<path class="st94" d="M759.52,2168.74L759.52,2168.74L759.52,2168.74z"/>
		<path class="st95" d="M759.52,2168.74L759.52,2168.74L759.52,2168.74z"/>
		<path class="st96" d="M759.52,2168.74L759.52,2168.74L759.52,2168.74z"/>
		<path class="st97" d="M759.52,2168.74L759.52,2168.74L759.52,2168.74z"/>
		<path class="st98" d="M759.52,2168.74L759.52,2168.74L759.52,2168.74z"/>
		<path class="st99" d="M759.52,2168.74L759.52,2168.74L759.52,2168.74z"/>
		<path class="st100" d="M759.52,2168.74L759.52,2168.74L759.52,2168.74z"/>
		<path class="st101" d="M759.52,2168.74L759.52,2168.74L759.52,2168.74z"/>
		<path class="st102" d="M759.52,2168.74L759.52,2168.74L759.52,2168.74z"/>
		<path class="st103" d="M759.52,2168.74L759.52,2168.74L759.52,2168.74z"/>
		<path class="st104" d="M759.52,2168.74L759.52,2168.74L759.52,2168.74z"/>
		<path class="st105" d="M759.52,2168.74L759.52,2168.74L759.52,2168.74z"/>
		<path class="st106" d="M759.52,2168.74L759.52,2168.74L759.52,2168.74z"/>
		<path class="st107" d="M759.52,2168.74L759.52,2168.74L759.52,2168.74z"/>
		<path class="st108" d="M759.52,2168.74L759.52,2168.74L759.52,2168.74z"/>
		<path class="st109" d="M759.52,2168.74L759.52,2168.74L759.52,2168.74z"/>
		<path class="st110" d="M759.52,2168.74L759.52,2168.74L759.52,2168.74z"/>
		<path class="st111" d="M759.52,2168.74L759.52,2168.74L759.52,2168.74z"/>
		<path class="st112" d="M759.52,2168.74L759.52,2168.74L759.52,2168.74z"/>
		<path class="st113" d="M759.52,2168.74L759.52,2168.74L759.52,2168.74z"/>
		<path class="st114" d="M759.52,2168.74L759.52,2168.74L759.52,2168.74z"/>
		<path class="st115" d="M759.52,2168.74L759.52,2168.74L759.52,2168.74z"/>
		<path class="st116" d="M759.52,2168.74L759.52,2168.74L759.52,2168.74z"/>
		<path class="st117" d="M759.52,2168.74L759.52,2168.74L759.52,2168.74z"/>
		<path class="st118" d="M759.52,2168.74L759.52,2168.74L759.52,2168.74z"/>
		<path class="st119" d="M759.52,2168.74L759.52,2168.74L759.52,2168.74z"/>
		<path class="st120" d="M759.52,2168.74L759.52,2168.74L759.52,2168.74z"/>
		<path class="st121" d="M759.52,2168.74L759.52,2168.74L759.52,2168.74z"/>
		<path class="st122" d="M759.52,2168.74L759.52,2168.74L759.52,2168.74z"/>
		<path class="st123" d="M759.52,2168.74L759.52,2168.74L759.52,2168.74z"/>
		<path class="st124" d="M759.52,2168.74L759.52,2168.74L759.52,2168.74z"/>
		<path class="st125" d="M759.52,2168.74L759.52,2168.74L759.52,2168.74z"/>
		<path class="st126" d="M759.52,2168.74L759.52,2168.74L759.52,2168.74z"/>
		<path class="st127" d="M759.52,2168.74L759.52,2168.74L759.52,2168.74z"/>
		<path class="st128" d="M759.52,2168.74L759.52,2168.74L759.52,2168.74z"/>
		<path class="st129" d="M759.52,2168.74L759.52,2168.74L759.52,2168.74z"/>
		<path class="st130" d="M759.52,2168.74L759.52,2168.74L759.52,2168.74z"/>
		<path class="st131" d="M759.52,2168.74L759.52,2168.74L759.52,2168.74z"/>
		<path class="st132" d="M759.52,2168.74L759.52,2168.74L759.52,2168.74z"/>
		<path class="st133" d="M759.52,2168.74L759.52,2168.74L759.52,2168.74z"/>
		<path class="st134" d="M759.52,2168.74L759.52,2168.74L759.52,2168.74z"/>
		<path class="st135" d="M759.52,2168.74L759.52,2168.74L759.52,2168.74z"/>
		<path class="st136" d="M759.52,2168.74L759.52,2168.74L759.52,2168.74z"/>
		<path class="st137" d="M759.52,2168.74L759.52,2168.74L759.52,2168.74z"/>
		<path class="st138" d="M759.52,2168.74L759.52,2168.74L759.52,2168.74z"/>
		<path class="st139" d="M759.52,2168.74L759.52,2168.74L759.52,2168.74z"/>
		<path class="st140" d="M759.52,2168.74L759.52,2168.74L759.52,2168.74z"/>
		<path class="st141" d="M759.52,2168.74L759.52,2168.74L759.52,2168.74z"/>
		<path class="st142" d="M759.52,2168.74L759.52,2168.74L759.52,2168.74z"/>
		<path class="st143" d="M759.52,2168.74L759.52,2168.74L759.52,2168.74z"/>
		<path class="st144" d="M759.52,2168.74L759.52,2168.74L759.52,2168.74z"/>
		<path class="st145" d="M759.52,2168.74L759.52,2168.74L759.52,2168.74z"/>
		<path class="st146" d="M759.52,2168.74L759.52,2168.74L759.52,2168.74z"/>
		<path class="st147" d="M759.52,2168.74L759.52,2168.74L759.52,2168.74z"/>
		<path class="st148" d="M759.52,2168.74L759.52,2168.74L759.52,2168.74z"/>
		<path class="st149" d="M759.52,2168.74L759.52,2168.74L759.52,2168.74z"/>
		<path class="st150" d="M759.52,2168.74L759.52,2168.74L759.52,2168.74z"/>
		<path class="st151" d="M759.52,2168.74L759.52,2168.74L759.52,2168.74z"/>
		<path class="st152" d="M759.52,2168.74L759.52,2168.74L759.52,2168.74z"/>
		<path class="st153" d="M759.52,2168.74L759.52,2168.74L759.52,2168.74z"/>
		<path class="st154" d="M759.52,2168.74L759.52,2168.74L759.52,2168.74z"/>
		<path class="st155" d="M759.52,2168.74L759.52,2168.74L759.52,2168.74z"/>
		<path class="st156" d="M759.52,2168.74L759.52,2168.74L759.52,2168.74z"/>
		<path class="st157" d="M759.52,2168.74L759.52,2168.74L759.52,2168.74z"/>
		<path class="st158" d="M759.52,2168.74L759.52,2168.74L759.52,2168.74z"/>
		<path class="st159" d="M759.52,2168.74L759.52,2168.74L759.52,2168.74z"/>
		<path class="st160" d="M759.52,2168.74L759.52,2168.74L759.52,2168.74z"/>
		<path class="st161" d="M759.52,2168.74L759.52,2168.74L759.52,2168.74z"/>
		<path class="st162" d="M759.52,2168.74L759.52,2168.74L759.52,2168.74z"/>
		<path class="st163" d="M759.52,2168.74L759.52,2168.74L759.52,2168.74z"/>
		<path class="st164" d="M759.52,2168.74L759.52,2168.74L759.52,2168.74z"/>
		<path class="st165" d="M759.52,2168.74L759.52,2168.74L759.52,2168.74z"/>
		<path class="st166" d="M759.52,2168.74L759.52,2168.74L759.52,2168.74z"/>
		<path class="st167" d="M759.52,2168.74L759.52,2168.74L759.52,2168.74z"/>
		<path class="st168" d="M759.52,2168.74L759.52,2168.74L759.52,2168.74z"/>
		<path class="st169" d="M759.52,2168.74L759.52,2168.74L759.52,2168.74z"/>
		<path class="st170" d="M759.52,2168.74L759.52,2168.74L759.52,2168.74z"/>
		<path class="st171" d="M759.52,2168.74L759.52,2168.74L759.52,2168.74z"/>
		<path class="st172" d="M759.52,2168.74L759.52,2168.74L759.52,2168.74z"/>
		<path class="st173" d="M759.52,2168.74L759.52,2168.74L759.52,2168.74z"/>
		<path class="st174" d="M759.52,2168.74L759.52,2168.74L759.52,2168.74z"/>
		<path class="st175" d="M759.52,2168.74L759.52,2168.74L759.52,2168.74z"/>
		<path class="st176" d="M759.52,2168.74L759.52,2168.74L759.52,2168.74z"/>
		<path class="st177" d="M759.52,2168.74L759.52,2168.74L759.52,2168.74z"/>
		<path class="st178" d="M759.52,2168.74L759.52,2168.74L759.52,2168.74z"/>
		<path class="st179" d="M759.52,2168.74L759.52,2168.74L759.52,2168.74z"/>
		<path class="st180" d="M759.52,2168.74L759.52,2168.74L759.52,2168.74z"/>
		<path class="st181" d="M759.52,2168.74L759.52,2168.74L759.52,2168.74z"/>
		<path class="st182" d="M759.52,2168.74L759.52,2168.74L759.52,2168.74z"/>
		<path class="st183" d="M759.52,2168.74L759.52,2168.74L759.52,2168.74z"/>
		<path class="st184" d="M759.52,2168.74L759.52,2168.74L759.52,2168.74z"/>
		<path class="st185" d="M759.52,2168.74L759.52,2168.74L759.52,2168.74z"/>
		<path class="st186" d="M759.52,2168.74L759.52,2168.74L759.52,2168.74z"/>
		<path class="st187" d="M759.52,2168.74L759.52,2168.74L759.52,2168.74z"/>
		<path class="st188" d="M759.52,2168.74L759.52,2168.74L759.52,2168.74z"/>
		<path class="st189" d="M759.52,2168.74L759.52,2168.74L759.52,2168.74z"/>
		<path class="st190" d="M759.52,2168.74L759.52,2168.74L759.52,2168.74z"/>
		<path class="st191" d="M759.52,2168.74L759.52,2168.74L759.52,2168.74z"/>
		<path class="st192" d="M759.52,2168.74L759.52,2168.74L759.52,2168.74z"/>
		<path class="st193" d="M759.52,2168.74L759.52,2168.74L759.52,2168.74z"/>
		<path class="st194" d="M759.52,2168.74L759.52,2168.74L759.52,2168.74z"/>
		<path class="st195" d="M759.52,2168.74L759.52,2168.74L759.52,2168.74z"/>
		<path class="st196" d="M759.52,2168.74L759.52,2168.74L759.52,2168.74z"/>
		<path class="st197" d="M759.52,2168.74L759.52,2168.74L759.52,2168.74z"/>
		<path class="st198" d="M759.52,2168.74L759.52,2168.74L759.52,2168.74z"/>
		<path class="st199" d="M759.52,2168.74L759.52,2168.74L759.52,2168.74z"/>
		<path class="st200" d="M759.52,2168.74L759.52,2168.74L759.52,2168.74z"/>
		<path class="st201" d="M759.52,2168.74L759.52,2168.74L759.52,2168.74z"/>
		<path class="st202" d="M759.52,2168.74L759.52,2168.74L759.52,2168.74z"/>
		<path class="st203" d="M759.52,2168.74L759.52,2168.74L759.52,2168.74z"/>
		<path class="st204" d="M759.52,2168.74L759.52,2168.74L759.52,2168.74z"/>
		<path class="st205" d="M759.52,2168.74L759.52,2168.74L759.52,2168.74z"/>
		<path class="st206" d="M759.52,2168.74L759.52,2168.74L759.52,2168.74z"/>
		<path class="st207" d="M759.52,2168.74L759.52,2168.74L759.52,2168.74z"/>
		<path class="st208" d="M759.52,2168.74L759.52,2168.74L759.52,2168.74z"/>
		<path class="st209" d="M759.52,2168.74L759.52,2168.74L759.52,2168.74z"/>
		<path class="st210" d="M759.52,2168.74L759.52,2168.74L759.52,2168.74z"/>
		<path class="st211" d="M759.52,2168.74L759.52,2168.74L759.52,2168.74z"/>
		<path class="st212" d="M759.52,2168.74L759.52,2168.74L759.52,2168.74z"/>
		<path class="st213" d="M759.52,2168.74L759.52,2168.74L759.52,2168.74z"/>
		<path class="st214" d="M759.52,2168.74L759.52,2168.74L759.52,2168.74z"/>
		<path class="st215" d="M759.52,2168.74L759.52,2168.74L759.52,2168.74z"/>
		<path class="st216" d="M759.52,2168.74L759.52,2168.74L759.52,2168.74z"/>
		<path class="st217" d="M759.52,2168.74L759.52,2168.74L759.52,2168.74z"/>
		<path class="st218" d="M759.52,2168.74L759.52,2168.74L759.52,2168.74z"/>
		<path class="st219" d="M759.52,2168.74L759.52,2168.74L759.52,2168.74z"/>
		<path class="st220" d="M759.52,2168.74L759.52,2168.74L759.52,2168.74z"/>
		<path class="st221" d="M759.52,2168.74L759.52,2168.74L759.52,2168.74z"/>
		<path class="st222" d="M759.52,2168.74L759.52,2168.74L759.52,2168.74z"/>
		<path class="st223" d="M759.52,2168.74L759.52,2168.74L759.52,2168.74z"/>
		<path class="st224" d="M759.52,2168.74L759.52,2168.74L759.52,2168.74z"/>
		<path class="st225" d="M759.52,2168.74L759.52,2168.74L759.52,2168.74z"/>
		<path class="st226" d="M759.52,2168.74L759.52,2168.74L759.52,2168.74z"/>
		<path class="st227" d="M759.52,2168.74L759.52,2168.74L759.52,2168.74z"/>
		<path class="st228" d="M759.52,2168.74L759.52,2168.74L759.52,2168.74z"/>
		<path class="st229" d="M759.52,2168.74L759.52,2168.74L759.52,2168.74z"/>
		<path class="st230" d="M759.52,2168.74L759.52,2168.74L759.52,2168.74z"/>
		<path class="st231" d="M759.52,2168.74L759.52,2168.74L759.52,2168.74z"/>
		<path class="st232" d="M759.52,2168.74L759.52,2168.74L759.52,2168.74z"/>
		<path class="st233" d="M759.52,2168.74L759.52,2168.74L759.52,2168.74z"/>
		<path class="st234" d="M759.52,2168.74L759.52,2168.74L759.52,2168.74z"/>
		<path class="st235" d="M759.52,2168.74L759.52,2168.74L759.52,2168.74z"/>
		<path class="st236" d="M759.52,2168.74L759.52,2168.74L759.52,2168.74z"/>
		<path class="st237" d="M759.52,2168.74L759.52,2168.74L759.52,2168.74z"/>
		<path class="st238" d="M759.52,2168.74L759.52,2168.74L759.52,2168.74z"/>
		<path class="st239" d="M759.52,2168.74L759.52,2168.74L759.52,2168.74z"/>
		<path class="st240" d="M759.52,2168.74L759.52,2168.74L759.52,2168.74z"/>
		<path class="st241" d="M759.52,2168.74L759.52,2168.74L759.52,2168.74z"/>
		<path class="st242" d="M759.52,2168.74L759.52,2168.74L759.52,2168.74z"/>
		<path class="st243" d="M759.52,2168.74L759.52,2168.74L759.52,2168.74z"/>
		<path class="st244" d="M759.52,2168.74L759.52,2168.74L759.52,2168.74z"/>
		<path class="st245" d="M759.52,2168.74L759.52,2168.74L759.52,2168.74z"/>
		<path class="st246" d="M759.52,2168.74L759.52,2168.74L759.52,2168.74z"/>
		<path class="st247" d="M759.52,2168.74L759.52,2168.74L759.52,2168.74z"/>
		<path class="st248" d="M759.52,2168.74L759.52,2168.74L759.52,2168.74z"/>
		<path class="st249" d="M759.52,2168.74L759.52,2168.74L759.52,2168.74z"/>
		<path class="st250" d="M759.52,2168.74L759.52,2168.74L759.52,2168.74z"/>
		<path class="st251" d="M759.52,2168.74L759.52,2168.74L759.52,2168.74z"/>
		<path class="st252" d="M759.52,2168.74L759.52,2168.74L759.52,2168.74z"/>
		<path class="st253" d="M759.52,2168.74L759.52,2168.74L759.52,2168.74z"/>
		<path class="st254" d="M759.52,2168.74L759.52,2168.74L759.52,2168.74z"/>
		<path class="st255" d="M759.52,2168.74L759.52,2168.74L759.52,2168.74z"/>
		<path class="st256" d="M759.52,2168.74L759.52,2168.74L759.52,2168.74z"/>
		<path class="st257" d="M759.52,2168.74L759.52,2168.74L759.52,2168.74z"/>
		<path class="st258" d="M759.52,2168.74L759.52,2168.74L759.52,2168.74z"/>
		<path class="st259" d="M759.52,2168.74L759.52,2168.74L759.52,2168.74z"/>
		<path class="st260" d="M759.52,2168.74L759.52,2168.74L759.52,2168.74z"/>
		<path class="st261" d="M759.52,2168.74L759.52,2168.74L759.52,2168.74z"/>
		<path class="st262" d="M759.52,2168.74L759.52,2168.74L759.52,2168.74z"/>
		<path class="st263" d="M759.52,2168.74L759.52,2168.74L759.52,2168.74z"/>
		<path class="st264" d="M759.52,2168.74L759.52,2168.74L759.52,2168.74z"/>
		<path class="st265" d="M759.52,2168.74L759.52,2168.74L759.52,2168.74z"/>
		<path class="st266" d="M759.52,2168.74L759.52,2168.74L759.52,2168.74z"/>
		<path class="st267" d="M759.52,2168.74L759.52,2168.74L759.52,2168.74z"/>
		<path class="st267" d="M759.52,2168.74L759.52,2168.74L759.52,2168.74z"/>
	</g>
	<path class="st268" d="M759.52,2168.74"/>
</g>
<g>
	<path d="M2169.58,2524.82"/>
</g>
<g class="st7">
	<path class="st1" d="M1935.49,1828.89l104.65,86.07c0,0,19.85-10.83,29.53-37.64l-105.1-83.98
		C1964.57,1793.34,1943.86,1805.61,1935.49,1828.89z"/>
</g>
<g class="st11">
	<path d="M1907.16,1951.84c0,0,217.5,53.96,199.77-179.89c0,0,59.13,107.13-7.79,170.68
		C2032.21,2006.19,1958.97,1990.61,1907.16,1951.84z"/>
</g>
<g>
	<path class="st1" d="M1951.43,1753.03c-1.87-2.21-29.11,11.42-47.08,38.24c-17.95,26.79-20.33,57.33-17.61,58.23
		c2.34,0.78,7.59-20.74,27.13-50.2C1934.24,1768.61,1953.09,1754.98,1951.43,1753.03z"/>
</g>
<g>
	<g>
		<ellipse class="st269" cx="3439.96" cy="675.45" rx="322.49" ry="317.93"/>
	</g>
	<g>
		<path d="M3439.96,999.33c-44.33,0-87.33-8.56-127.82-25.44c-39.11-16.31-74.23-39.65-104.39-69.39
			c-30.17-29.74-53.86-64.38-70.4-102.95c-17.14-39.94-25.82-82.36-25.82-126.1s8.69-86.16,25.82-126.1
			c16.55-38.57,40.23-73.21,70.4-102.95c30.16-29.74,65.29-53.08,104.39-69.39c40.49-16.88,83.49-25.44,127.82-25.44
			c44.33,0,87.33,8.56,127.82,25.44c39.11,16.31,74.23,39.65,104.39,69.39c30.17,29.74,53.86,64.38,70.4,102.95
			c17.14,39.94,25.82,82.37,25.82,126.1s-8.69,86.15-25.82,126.1c-16.55,38.57-40.23,73.21-70.4,102.95
			c-30.16,29.73-65.29,53.08-104.39,69.39C3527.29,990.77,3484.29,999.33,3439.96,999.33z M3439.96,363.47
			c-174.54,0-316.55,139.95-316.55,311.98s142,311.98,316.55,311.98s316.55-139.95,316.55-311.98S3614.51,363.47,3439.96,363.47z"/>
	</g>
</g>
<g class="st270">
	<g>
		<ellipse transform="matrix(0.866 -0.5 0.5 0.866 188.5862 1722.1892)" class="st1" cx="3307.94" cy="509.19" rx="63" ry="41.17"/>
	</g>
	<g>
		<path class="st1" d="M3287.31,561.52c-1.23,0-2.44-0.03-3.65-0.1c-15.85-0.88-28.06-7.4-34.39-18.36l0,0
			c-6.33-10.96-5.87-24.8,1.3-38.96c6.83-13.5,19.05-25.82,34.42-34.69c15.36-8.87,32.14-13.3,47.25-12.46
			c15.85,0.88,28.06,7.4,34.39,18.36c6.33,10.96,5.87,24.8-1.3,38.96c-6.83,13.5-19.05,25.82-34.42,34.69
			C3316.77,557.12,3301.43,561.52,3287.31,561.52z M3328.54,466.37c-12.46,0-26.11,3.95-38.81,11.29
			c-13.78,7.96-24.68,18.88-30.68,30.74c-5.67,11.2-6.22,21.83-1.55,29.91l0,0c4.67,8.09,14.14,12.92,26.68,13.62
			c13.28,0.74,28.18-3.24,41.97-11.2c13.78-7.96,24.68-18.88,30.68-30.74c5.67-11.2,6.22-21.83,1.55-29.91
			c-4.67-8.09-14.14-12.92-26.68-13.62C3330.66,466.39,3329.6,466.37,3328.54,466.37z"/>
	</g>
</g>
<g class="st270">
	<g>
		
			<ellipse transform="matrix(0.9954 -0.0958 0.0958 0.9954 -67.6414 334.8358)" class="st1" cx="3455.06" cy="872.22" rx="55.9" ry="35.41"/>
	</g>
	<g>
		<path class="st1" d="M3449.96,912.64c-12.51,0-24.33-2.57-34-7.46c-12.66-6.41-20.21-16.05-21.28-27.15
			c-1.07-11.1,4.51-22,15.72-30.71c10.57-8.21,25.07-13.57,40.82-15.09c15.75-1.51,31,0.98,42.94,7.03
			c12.66,6.41,20.21,16.05,21.28,27.15v0c1.07,11.1-4.51,22-15.72,30.71c-10.57,8.22-25.07,13.57-40.82,15.09
			C3455.9,912.49,3452.91,912.64,3449.96,912.64z M3460.2,841.31c-2.66,0-5.36,0.13-8.08,0.39c-13.98,1.34-26.72,6.01-35.89,13.13
			c-8.54,6.63-12.83,14.55-12.08,22.28c0.74,7.74,6.47,14.69,16.11,19.57c10.36,5.25,23.76,7.39,37.73,6.05
			c13.98-1.34,26.72-6.01,35.89-13.13c8.54-6.63,12.83-14.55,12.08-22.28v0c-0.74-7.74-6.47-14.69-16.11-19.57
			C3481.52,843.53,3471.2,841.31,3460.2,841.31z"/>
	</g>
</g>
<g class="st270">
	<g>
		
			<ellipse transform="matrix(0.6897 -0.7241 0.7241 0.6897 729.704 2776.332)" class="st1" cx="3604.44" cy="536.7" rx="43.03" ry="58.72"/>
	</g>
	<g>
		<path class="st1" d="M3620.18,592.57c-2.37,0-4.79-0.16-7.27-0.48c-14.63-1.89-29.34-9.28-41.43-20.79
			c-12.08-11.51-20.17-25.85-22.77-40.37c-2.7-15.06,0.77-28.56,9.77-38.01c9-9.45,22.31-13.57,37.49-11.6
			c14.63,1.89,29.34,9.28,41.43,20.79s20.17,25.85,22.77,40.37c2.7,15.06-0.77,28.56-9.77,38.01l0,0
			C3642.87,588.39,3632.32,592.57,3620.18,592.57z M3588.81,490.32c-9.24,0-17.55,2.98-23.44,9.16
			c-14.55,15.28-8.87,44.41,12.68,64.93c21.54,20.52,50.91,24.79,65.47,9.51l0,0c14.55-15.28,8.87-44.41-12.68-64.93
			C3618.01,496.78,3602.41,490.32,3588.81,490.32z"/>
	</g>
</g>
<g>
	<g>
		
			<ellipse transform="matrix(0.866 -0.5 0.5 0.866 187.0764 1724.3269)" class="st269" cx="3311.18" cy="513.07" rx="62.82" ry="36.19"/>
	</g>
	<g>
		<path d="M3285.45,562.2c-15.43,0-27.08-5.45-32.79-15.34l0,0c-5.72-9.91-4.6-22.73,3.14-36.12c7.27-12.56,19.67-24.33,34.91-33.13
			c15.24-8.8,31.63-13.65,46.14-13.67c0.02,0,0.04,0,0.06,0c15.43,0,27.08,5.45,32.79,15.34c5.72,9.91,4.6,22.73-3.14,36.12
			c-7.27,12.56-19.67,24.33-34.91,33.13c-15.24,8.8-31.63,13.65-46.14,13.67C3285.49,562.2,3285.47,562.2,3285.45,562.2z
			 M3260.9,542.1c8.52,14.75,38.74,13.93,66-1.81c27.26-15.74,43.09-41.5,34.57-56.25c-8.52-14.75-38.74-13.93-66,1.81
			C3268.21,501.59,3252.38,527.35,3260.9,542.1L3260.9,542.1z"/>
	</g>
</g>
<g class="st270">
	<g>
		
			<ellipse transform="matrix(0.7401 -0.6725 0.6725 0.7401 436.3079 2437.667)" class="st1" cx="3371.76" cy="654.38" rx="63.62" ry="50.4"/>
	</g>
	<g>
		<path class="st1" d="M3358.47,715.93c-9.63,0-18.7-2.31-26.54-6.87l0,0c-11.36-6.61-19.12-17.54-21.84-30.78
			c-3.51-17.02,1.42-36.16,13.53-52.52c10.6-14.32,25.48-24.95,41.9-29.93c16.72-5.07,33.08-3.69,46.08,3.87
			c11.36,6.61,19.12,17.54,21.84,30.78c3.51,17.02-1.42,36.16-13.53,52.52c-10.6,14.32-25.48,24.95-41.9,29.92
			C3371.38,714.94,3364.8,715.93,3358.47,715.93z M3336.72,700.84c22.41,13.04,56.3,2.5,75.54-23.5
			c10.5-14.18,14.82-30.56,11.86-44.94c-2.21-10.71-8.19-19.17-17.31-24.48c-22.41-13.04-56.3-2.5-75.54,23.5
			c-10.5,14.18-14.82,30.56-11.86,44.94C3321.61,687.07,3327.6,695.53,3336.72,700.84L3336.72,700.84z"/>
	</g>
</g>
<g class="st271">
	<g>
		<ellipse transform="matrix(0.866 -0.5 0.5 0.866 187.0764 1724.3269)" cx="3311.18" cy="513.07" rx="62.82" ry="36.19"/>
	</g>
	<g>
		<path d="M3285.45,562.2c-15.43,0-27.08-5.45-32.79-15.34l0,0c-5.72-9.91-4.6-22.73,3.14-36.12c7.27-12.56,19.67-24.33,34.91-33.13
			c15.24-8.8,31.63-13.65,46.14-13.67c0.02,0,0.04,0,0.06,0c15.43,0,27.08,5.45,32.79,15.34c5.72,9.91,4.6,22.73-3.14,36.12
			c-7.27,12.56-19.67,24.33-34.91,33.13c-15.24,8.8-31.63,13.65-46.14,13.67C3285.49,562.2,3285.47,562.2,3285.45,562.2z
			 M3260.9,542.1c8.52,14.75,38.74,13.93,66-1.81c27.26-15.74,43.09-41.5,34.57-56.25c-8.52-14.75-38.74-13.93-66,1.81
			C3268.21,501.59,3252.38,527.35,3260.9,542.1L3260.9,542.1z"/>
	</g>
</g>
<g class="st271">
	<g>
		<ellipse transform="matrix(0.866 -0.5 0.5 0.866 185.809 1725.9773)" cx="3313.62" cy="516.26" rx="62.78" ry="40.15"/>
	</g>
	<g>
		<path d="M3292.15,567.87c-1,0-2-0.02-2.99-0.07c-15.74-0.72-27.82-7.03-34.02-17.77c-6.2-10.74-5.63-24.36,1.62-38.35
			c6.89-13.29,19.11-25.48,34.41-34.31c15.3-8.83,31.96-13.32,46.92-12.64c15.74,0.72,27.82,7.03,34.02,17.77
			c6.2,10.74,5.63,24.36-1.62,38.35c-6.89,13.29-19.11,25.48-34.41,34.31C3321.79,563.41,3306.31,567.87,3292.15,567.87z
			 M3335.07,474.18c-12.5,0-26.29,4.01-39.15,11.44c-13.74,7.94-24.65,18.75-30.72,30.45c-5.7,11.01-6.35,21.38-1.83,29.21l0,0
			c4.52,7.83,13.83,12.46,26.22,13.02c13.16,0.6,27.98-3.44,41.73-11.38c13.74-7.94,24.65-18.75,30.72-30.45
			c5.7-11.01,6.35-21.38,1.83-29.21c-4.52-7.83-13.83-12.46-26.22-13.02C3336.8,474.19,3335.93,474.18,3335.07,474.18z"/>
	</g>
</g>
<g>
	<g>
		<path d="M3295.07,560.22c-9.82,0-17.78-3.25-21.9-9.84c-8.78-14.01,3.58-37.05,28.15-52.44c11.27-7.06,23.39-11.39,34.14-12.2
			c11.84-0.89,20.83,2.57,25.32,9.74c8.78,14.01-3.58,37.05-28.15,52.44C3319.61,556.08,3306.15,560.22,3295.07,560.22z
			 M3338.98,495.12c-0.9,0-1.84,0.04-2.81,0.11c-9.24,0.69-19.82,4.52-29.8,10.77c-9.98,6.26-18.04,14.11-22.69,22.12
			c-4.04,6.96-4.93,13.24-2.45,17.21s8.52,5.9,16.55,5.3c9.24-0.69,19.82-4.52,29.8-10.77c9.98-6.26,18.04-14.11,22.69-22.12
			c4.04-6.96,4.93-13.24,2.45-17.21C3350.53,497.03,3345.6,495.12,3338.98,495.12z"/>
	</g>
</g>
<g class="st11">
	<g>
		<ellipse transform="matrix(0.8474 -0.531 0.531 0.8474 228.3367 1841.3279)" cx="3316.98" cy="523.49" rx="46.94" ry="24.73"/>
	</g>
	<g>
		<path d="M3295.07,560.78c-9.82,0-17.78-3.25-21.9-9.84c-8.78-14.01,3.58-37.05,28.15-52.44c11.27-7.06,23.39-11.39,34.14-12.2
			c11.84-0.89,20.83,2.57,25.32,9.74c4.49,7.17,3.68,16.77-2.28,27.04c-5.41,9.32-14.6,18.35-25.87,25.41
			C3319.61,556.65,3306.15,560.78,3295.07,560.78z M3338.98,495.68c-0.9,0-1.84,0.04-2.81,0.11c-9.24,0.69-19.82,4.52-29.8,10.77
			c-9.98,6.26-18.04,14.11-22.69,22.12c-4.04,6.96-4.93,13.24-2.45,17.21c2.49,3.97,8.52,5.9,16.55,5.3
			c9.24-0.69,19.82-4.52,29.8-10.77s18.04-14.11,22.69-22.12c4.04-6.96,4.93-13.24,2.45-17.21l0,0
			C3350.53,497.6,3345.6,495.68,3338.98,495.68z"/>
	</g>
</g>
<g>
	<g>
		
			<ellipse transform="matrix(0.7401 -0.6725 0.6725 0.7401 433.9653 2444.7002)" class="st269" cx="3379.7" cy="660.93" rx="63.62" ry="50.4"/>
	</g>
	<g>
		<path d="M3366.41,722.48c-9.63,0-18.7-2.31-26.54-6.87c-11.36-6.61-19.12-17.54-21.84-30.78c-3.51-17.02,1.42-36.16,13.53-52.52
			c10.6-14.32,25.48-24.95,41.9-29.93c16.72-5.07,33.08-3.69,46.08,3.87c11.36,6.61,19.12,17.54,21.84,30.78
			c3.51,17.02-1.42,36.16-13.53,52.52c-10.6,14.32-25.48,24.95-41.9,29.93C3379.31,721.48,3372.74,722.48,3366.41,722.48z
			 M3392.9,608.88c-19.06,0-40.06,10.66-53.7,29.09c-10.5,14.18-14.82,30.56-11.86,44.94c2.21,10.71,8.19,19.17,17.31,24.48
			c22.41,13.04,56.3,2.5,75.54-23.5c10.5-14.18,14.82-30.56,11.86-44.94c-2.21-10.71-8.19-19.17-17.31-24.48
			C3408.22,610.68,3400.72,608.88,3392.9,608.88z"/>
	</g>
</g>
<g class="st271">
	<g>
		<ellipse transform="matrix(0.7401 -0.6725 0.6725 0.7401 433.994 2444.7727)" cx="3379.8" cy="660.93" rx="63.62" ry="50.4"/>
	</g>
	<g>
		<path d="M3366.51,722.48c-9.63,0-18.7-2.31-26.54-6.87c-11.36-6.61-19.12-17.54-21.84-30.78c-3.51-17.02,1.42-36.16,13.53-52.52
			c10.6-14.32,25.48-24.95,41.9-29.93c16.72-5.07,33.08-3.69,46.08,3.87c11.36,6.61,19.11,17.54,21.84,30.78
			c3.51,17.02-1.42,36.16-13.53,52.52c-10.6,14.32-25.48,24.95-41.9,29.93C3379.41,721.48,3372.84,722.48,3366.51,722.48z
			 M3393,608.88c-19.06,0-40.06,10.66-53.7,29.09c-10.5,14.18-14.82,30.56-11.86,44.94c2.21,10.71,8.19,19.17,17.31,24.48l0,0
			c22.41,13.04,56.3,2.5,75.54-23.5c10.5-14.18,14.82-30.56,11.86-44.94c-2.21-10.71-8.19-19.17-17.31-24.48
			C3408.32,610.68,3400.83,608.88,3393,608.88z"/>
	</g>
</g>
<g>
	<g>
		
			<ellipse transform="matrix(0.6897 -0.7241 0.7241 0.6897 727.1657 2786.9287)" class="st269" cx="3615.53" cy="544.97" rx="43.83" ry="58.72"/>
	</g>
	<g>
		<path d="M3630.49,601.18c-2.23,0-4.51-0.14-6.83-0.42c-14.75-1.78-29.54-9.1-41.63-20.62c-12.09-11.52-20.13-25.93-22.62-40.58
			c-2.58-15.16,1.03-28.79,10.17-38.38c9.14-9.59,22.57-13.86,37.84-12.02c14.75,1.78,29.54,9.1,41.63,20.62
			c12.09,11.52,20.13,25.93,22.62,40.58c2.58,15.16-1.03,28.79-10.17,38.38l0,0C3653.75,596.88,3642.91,601.18,3630.49,601.18z
			 M3600.68,498.23c-9.51,0-18.12,3.1-24.22,9.51c-14.86,15.6-9.42,44.99,12.13,65.51c21.54,20.52,51.16,24.53,66.02,8.93l0,0
			c14.86-15.6,9.42-44.99-12.13-65.51C3629.79,504.59,3614.31,498.23,3600.68,498.23z"/>
	</g>
</g>
<g class="st271">
	<g>
		<ellipse transform="matrix(0.7401 -0.6725 0.6725 0.7401 430.685 2451.2561)" cx="3386.53" cy="668.45" rx="63.62" ry="50.4"/>
	</g>
	<g>
		<path d="M3373.24,730c-9.63,0-18.7-2.31-26.54-6.87l0,0c-11.36-6.61-19.12-17.54-21.84-30.78c-3.51-17.02,1.42-36.16,13.53-52.52
			c10.6-14.32,25.48-24.95,41.9-29.92c16.72-5.07,33.08-3.69,46.08,3.87c11.36,6.61,19.12,17.54,21.84,30.78
			c3.51,17.02-1.42,36.16-13.53,52.52c-10.6,14.32-25.48,24.95-41.9,29.92C3386.15,729,3379.57,730,3373.24,730z M3399.74,616.4
			c-19.06,0-40.06,10.66-53.7,29.09c-10.5,14.18-14.82,30.56-11.86,44.94c2.21,10.71,8.19,19.17,17.31,24.48l0,0
			c22.41,13.04,56.3,2.5,75.54-23.5c10.5-14.18,14.82-30.56,11.86-44.94c-2.21-10.71-8.19-19.17-17.31-24.48
			C3415.06,618.2,3407.56,616.4,3399.74,616.4z"/>
	</g>
</g>
<g>
	<g>
		<path d="M3374.69,720.01c-7.21,0-14.03-1.64-20.04-4.9c-9.35-5.07-15.93-13.8-18.52-24.58c-3.45-14.33,0.24-30.81,10.11-45.21
			c8.47-12.35,20.52-21.78,33.92-26.54c13.75-4.89,27.33-4.31,38.25,1.61c9.35,5.07,15.93,13.8,18.52,24.58
			c3.45,14.33-0.24,30.81-10.11,45.21c-8.47,12.35-20.52,21.78-33.92,26.54C3386.72,718.91,3380.57,720.01,3374.69,720.01z
			 M3398.29,624.99c-15.64,0-33.14,9.59-44.2,25.72c-8.35,12.18-11.53,25.88-8.71,37.6c1.98,8.24,6.76,14.62,13.81,18.44
			c17.97,9.76,44.79-0.09,59.78-21.95c8.35-12.18,11.53-25.88,8.71-37.6c-1.98-8.24-6.76-14.62-13.81-18.44
			C3409.16,626.2,3403.84,624.99,3398.29,624.99z"/>
	</g>
</g>
<g class="st272">
	<g>
		<ellipse transform="matrix(0.6897 -0.7241 0.7241 0.6897 566.7044 2659.4302)" cx="3386.53" cy="668.45" rx="52.8" ry="40.81"/>
	</g>
	<g>
		<path d="M3374.69,720.71c-7.21,0-14.03-1.64-20.04-4.9c-9.35-5.07-15.93-13.8-18.52-24.58c-3.45-14.33,0.24-30.81,10.11-45.21
			c8.47-12.35,20.52-21.78,33.92-26.54c13.75-4.88,27.33-4.31,38.25,1.61h0c9.35,5.07,15.93,13.8,18.52,24.58
			c3.45,14.33-0.24,30.81-10.11,45.21c-8.47,12.35-20.52,21.78-33.92,26.54C3386.72,719.62,3380.57,720.71,3374.69,720.71z
			 M3398.29,625.69c-15.64,0-33.14,9.59-44.2,25.72c-8.35,12.18-11.53,25.88-8.71,37.6c1.98,8.24,6.76,14.62,13.81,18.44
			c17.98,9.76,44.79-0.09,59.78-21.95c8.35-12.18,11.53-25.88,8.71-37.6c-1.98-8.24-6.76-14.62-13.81-18.44h0
			C3409.16,626.9,3403.84,625.69,3398.29,625.69z"/>
	</g>
</g>
<g>
	<g>
		<path d="M3625.21,594.15c-9.01,0-18.74-2.65-28.12-7.83c-11.71-6.46-21.4-16.09-27.29-27.12c-6.12-11.46-7.46-23.14-3.79-32.89
			c3.03-8.05,9.1-13.94,17.55-17.06c12.22-4.5,27.52-2.51,41.98,5.46c11.71,6.46,21.4,16.09,27.29,27.12
			c6.12,11.46,7.46,23.14,3.79,32.89l0,0c-3.03,8.05-9.1,13.94-17.55,17.06C3634.78,593.36,3630.1,594.15,3625.21,594.15z
			 M3597.33,516.43c-3.76,0-7.3,0.57-10.48,1.75c-5.78,2.13-9.91,6.1-11.94,11.49c-2.7,7.15-1.53,16.05,3.28,25.05
			c5.03,9.43,13.38,17.7,23.5,23.27c11.86,6.54,24.61,8.36,34.09,4.87c5.78-2.13,9.91-6.1,11.94-11.49l0,0
			c2.7-7.15,1.53-16.05-3.28-25.05c-5.04-9.43-13.38-17.7-23.5-23.27C3613.06,518.69,3604.78,516.43,3597.33,516.43z"/>
	</g>
</g>
<g class="st272">
	<g>
		<ellipse transform="matrix(0.6048 -0.7964 0.7964 0.6048 988.6685 3093.425)" cx="3611.32" cy="550.51" rx="33.11" ry="47.16"/>
	</g>
	<g>
		<path d="M3625.21,594.15c-9.01,0-18.74-2.65-28.12-7.83c-11.71-6.46-21.4-16.09-27.29-27.12c-6.12-11.46-7.46-23.14-3.79-32.89
			c3.03-8.05,9.1-13.94,17.55-17.06c12.22-4.5,27.52-2.51,41.98,5.46c11.71,6.46,21.4,16.09,27.29,27.12
			c6.12,11.46,7.46,23.14,3.79,32.89l0,0c-3.03,8.05-9.1,13.94-17.55,17.06C3634.78,593.36,3630.1,594.15,3625.21,594.15z
			 M3597.33,516.43c-3.76,0-7.3,0.57-10.48,1.75c-5.78,2.13-9.91,6.1-11.94,11.49c-2.7,7.15-1.53,16.05,3.28,25.05
			c5.03,9.43,13.38,17.7,23.5,23.27c11.86,6.54,24.61,8.36,34.09,4.87c5.78-2.13,9.91-6.1,11.94-11.49l0,0
			c2.7-7.15,1.53-16.05-3.28-25.05c-5.04-9.43-13.38-17.7-23.5-23.27C3613.06,518.69,3604.78,516.43,3597.33,516.43z"/>
	</g>
</g>
<g class="st271">
	<g>
		<ellipse transform="matrix(0.6897 -0.7241 0.7241 0.6897 727.8432 2786.9163)" cx="3615.86" cy="544.17" rx="43.03" ry="58.72"/>
	</g>
	<g>
		<path d="M3631.6,600.03c-2.37,0-4.79-0.16-7.27-0.48c-14.63-1.89-29.34-9.28-41.43-20.79c-12.08-11.51-20.17-25.85-22.77-40.37
			c-2.7-15.06,0.77-28.56,9.77-38.01c9-9.45,22.31-13.57,37.49-11.6c14.63,1.89,29.34,9.28,41.43,20.79
			c12.08,11.51,20.17,25.85,22.77,40.37c2.7,15.06-0.77,28.56-9.77,38.01l0,0C3654.29,595.86,3643.73,600.03,3631.6,600.03z
			 M3600.17,497.82c-9.53,0-17.69,3.15-23.38,9.13c-14.55,15.28-8.87,44.41,12.68,64.93c21.54,20.52,50.91,24.79,65.47,9.51l0,0
			c14.55-15.28,8.87-44.41-12.68-64.93c-10.63-10.13-23.45-16.6-36.09-18.24C3604.12,497.95,3602.11,497.82,3600.17,497.82z"/>
	</g>
</g>
<g class="st271">
	<g>
		<ellipse transform="matrix(0.6897 -0.7241 0.7241 0.6897 723.6847 2796.2844)" cx="3624.71" cy="553.71" rx="43.03" ry="58.72"/>
	</g>
	<g>
		<path d="M3640.45,609.57c-2.37,0-4.79-0.16-7.27-0.48c-14.63-1.89-29.34-9.28-41.43-20.79c-12.08-11.51-20.17-25.85-22.77-40.37
			c-2.7-15.06,0.77-28.56,9.77-38.01c9-9.45,22.31-13.57,37.49-11.6c14.63,1.89,29.34,9.28,41.43,20.79
			c12.08,11.51,20.17,25.85,22.77,40.37c2.7,15.06-0.77,28.56-9.77,38.01l0,0C3663.14,605.39,3652.58,609.57,3640.45,609.57z
			 M3609.02,507.36c-9.53,0-17.69,3.15-23.38,9.13c-6.85,7.2-9.44,17.77-7.29,29.77c2.25,12.55,9.34,25.03,19.97,35.16
			c21.54,20.52,50.91,24.79,65.47,9.51c14.55-15.28,8.87-44.41-12.68-64.93c-10.63-10.13-23.45-16.6-36.09-18.24
			C3612.97,507.49,3610.96,507.36,3609.02,507.36z"/>
	</g>
</g>
<g class="st270">
	<g>
		
			<ellipse transform="matrix(0.5755 -0.8178 0.8178 0.5755 908.1387 3290.3909)" class="st1" cx="3623.47" cy="770.45" rx="67.09" ry="38.02"/>
	</g>
	<g>
		<path class="st1" d="M3599.1,834.31c-6.38,0-12.14-1.7-16.98-5.11c-9.77-6.87-14.27-19.62-12.68-35.9
			c1.5-15.3,8.26-32.16,19.04-47.48l0,0c10.78-15.32,24.37-27.37,38.27-33.95c14.78-6.99,28.3-7.06,38.07-0.19
			c9.77,6.87,14.27,19.62,12.68,35.9c-1.5,15.3-8.26,32.16-19.04,47.48c-10.78,15.32-24.37,27.37-38.27,33.95
			C3612.74,832.55,3605.6,834.31,3599.1,834.31z M3596.27,751.3c-19.44,27.63-23.41,59.75-8.67,70.12c3.24,2.28,7.15,3.35,11.5,3.35
			c15.47,0,36.4-13.61,51.58-35.19c19.44-27.63,23.41-59.75,8.67-70.12C3644.6,709.09,3615.71,723.67,3596.27,751.3L3596.27,751.3z"
			/>
	</g>
</g>
<g>
	<g>
		
			<ellipse transform="matrix(0.5755 -0.8178 0.8178 0.5755 905.9153 3299.6667)" class="st269" cx="3631.3" cy="777.23" rx="67.09" ry="39.71"/>
	</g>
	<g>
		<path d="M3608.1,841.46c-6.81,0-12.97-1.83-18.16-5.47c-10.1-7.11-14.95-20.07-13.66-36.49c1.23-15.52,7.85-32.51,18.64-47.85l0,0
			c10.8-15.34,24.56-27.31,38.75-33.7c15.02-6.77,28.86-6.58,38.96,0.53c10.1,7.11,14.96,20.07,13.66,36.49
			c-1.23,15.52-7.85,32.51-18.64,47.85c-10.8,15.34-24.56,27.31-38.75,33.7C3621.6,839.82,3614.56,841.46,3608.1,841.46z
			 M3602.71,757.11c-9.83,13.97-15.84,29.29-16.94,43.13c-1.02,12.94,2.41,22.87,9.65,27.97c7.24,5.1,17.75,4.97,29.58-0.36
			c12.66-5.7,25.05-16.54,34.88-30.51c9.83-13.97,15.84-29.29,16.94-43.13c1.02-12.94-2.41-22.87-9.65-27.96
			c-7.24-5.1-17.75-4.97-29.58,0.36C3624.93,732.31,3612.54,743.15,3602.71,757.11L3602.71,757.11z"/>
	</g>
</g>
<g class="st271">
	<g>
		<ellipse transform="matrix(0.5755 -0.8178 0.8178 0.5755 905.34 3299.5886)" cx="3630.93" cy="777.74" rx="65.42" ry="39.71"/>
	</g>
	<g>
		<path d="M3609.03,840.72c-6.92,0-13.19-1.86-18.48-5.58c-10.09-7.1-15.04-19.9-13.94-36.04c1.04-15.28,7.42-31.95,17.97-46.94l0,0
			c10.55-14.99,24.09-26.63,38.12-32.76c14.83-6.48,28.55-6.14,38.63,0.96c10.09,7.1,15.04,19.9,13.94,36.04
			c-1.04,15.28-7.42,31.95-17.97,46.94c-10.55,14.99-24.09,26.63-38.12,32.76C3622.12,839.18,3615.31,840.72,3609.03,840.72z
			 M3602.35,757.63c-9.56,13.59-15.33,28.54-16.25,42.11c-0.86,12.7,2.67,22.51,9.93,27.62c7.26,5.11,17.68,5.12,29.35,0.02
			c12.46-5.45,24.59-15.93,34.15-29.52c9.56-13.59,15.33-28.54,16.25-42.11c0.86-12.7-2.67-22.51-9.93-27.62
			c-7.26-5.11-17.68-5.12-29.35-0.02C3624.04,733.56,3611.91,744.04,3602.35,757.63L3602.35,757.63z"/>
	</g>
</g>
<g class="st271">
	<g>
		<ellipse transform="matrix(0.5755 -0.8178 0.8178 0.5755 904.0917 3308.8245)" cx="3639.2" cy="783.56" rx="65.42" ry="38.44"/>
	</g>
	<g>
		<path d="M3616.39,846.25c-6.59,0-12.56-1.77-17.57-5.3c-9.83-6.92-14.52-19.56-13.21-35.59c1.24-15.11,7.73-31.69,18.26-46.66
			l3.89,2.74l-3.89-2.74c10.54-14.97,23.94-26.67,37.75-32.95c14.65-6.65,28.13-6.51,37.96,0.41c9.83,6.92,14.52,19.56,13.21,35.59
			c-1.24,15.11-7.73,31.68-18.26,46.66c-10.54,14.97-23.94,26.67-37.75,32.95C3629.61,844.63,3622.71,846.25,3616.39,846.25z
			 M3661.98,730.4c-4.95,0-10.51,1.34-16.41,4.03c-12.29,5.58-24.33,16.15-33.91,29.76c-9.58,13.61-15.46,28.51-16.56,41.96
			c-1.03,12.53,2.24,22.13,9.2,27.03c6.96,4.9,17.1,4.73,28.55-0.47c12.29-5.58,24.33-16.15,33.91-29.76
			c9.58-13.61,15.46-28.51,16.56-41.96c1.03-12.53-2.24-22.13-9.2-27.03C3670.74,731.58,3666.63,730.4,3661.98,730.4z"/>
	</g>
</g>
<g>
	<g>
		<path d="M3606.63,822.4c-5.51,0-10.52-1.49-14.74-4.46c-8.19-5.76-12.12-16.19-11.08-29.36c0.97-12.27,6.19-25.69,14.71-37.79
			c8.52-12.1,19.39-21.55,30.61-26.61c12.05-5.43,23.19-5.25,31.38,0.51c8.18,5.76,12.12,16.19,11.08,29.36
			c-0.97,12.27-6.19,25.69-14.71,37.79c-8.52,12.1-19.39,21.55-30.61,26.61C3617.44,821.09,3611.81,822.4,3606.63,822.4z
			 M3642.74,729.76c-3.82,0-8.12,1.03-12.7,3.1c-9.69,4.37-19.18,12.68-26.73,23.41l0,0c-7.55,10.73-12.17,22.47-13.01,33.07
			c-0.77,9.69,1.74,17.09,7.07,20.83c5.32,3.75,13.14,3.61,22-0.38c9.69-4.37,19.19-12.68,26.74-23.41
			c14.82-21.06,17.54-45.74,5.94-53.9C3649.47,730.66,3646.32,729.76,3642.74,729.76z"/>
	</g>
</g>
<g class="st271">
	<g>
		<ellipse transform="matrix(0.5755 -0.8178 0.8178 0.5755 907.9533 3291.771)" cx="3624.71" cy="771.32" rx="52.26" ry="30.92"/>
	</g>
	<g>
		<path d="M3606.63,822.4c-5.51,0-10.52-1.49-14.74-4.46c-8.19-5.76-12.12-16.19-11.08-29.36c0.97-12.27,6.19-25.69,14.71-37.79
			c8.52-12.1,19.39-21.55,30.61-26.61c12.05-5.43,23.19-5.25,31.38,0.51c8.18,5.76,12.12,16.19,11.08,29.36
			c-0.97,12.27-6.19,25.69-14.71,37.79c-8.52,12.1-19.39,21.55-30.61,26.61C3617.44,821.09,3611.81,822.4,3606.63,822.4z
			 M3642.74,729.76c-3.82,0-8.12,1.03-12.7,3.1c-9.69,4.37-19.18,12.68-26.73,23.41l0,0c-7.55,10.73-12.17,22.47-13.01,33.07
			c-0.77,9.69,1.74,17.09,7.07,20.83c5.32,3.75,13.14,3.61,22-0.38c9.69-4.37,19.19-12.68,26.74-23.41
			c14.82-21.06,17.54-45.74,5.94-53.9C3649.47,730.66,3646.32,729.76,3642.74,729.76z"/>
	</g>
</g>
<g>
	<g>
		
			<ellipse transform="matrix(0.9954 -0.0957 0.0957 0.9954 -68.3094 335.801)" class="st269" cx="3464.85" cy="879.68" rx="56.48" ry="35.41"/>
	</g>
	<g>
		<path d="M3459.58,920.1c-12.59,0-24.49-2.55-34.22-7.42c-12.78-6.4-20.4-16.04-21.47-27.14c-1.07-11.11,4.58-22.02,15.9-30.74
			c10.68-8.22,25.31-13.59,41.21-15.11c15.9-1.53,31.29,0.95,43.33,6.98c12.78,6.4,20.4,16.04,21.47,27.14v0
			c1.07,11.1-4.58,22.02-15.9,30.73c-10.68,8.22-25.31,13.59-41.21,15.11C3465.63,919.96,3462.58,920.1,3459.58,920.1z
			 M3470.17,848.76c-2.72,0-5.47,0.13-8.25,0.4c-14.14,1.36-27.04,6.04-36.32,13.18c-8.63,6.64-12.98,14.56-12.24,22.28
			c0.74,7.73,6.52,14.67,16.26,19.54c10.47,5.24,24.02,7.38,38.17,6.02c14.14-1.36,27.04-6.04,36.32-13.18
			c8.63-6.64,12.98-14.56,12.24-22.29c-0.74-7.73-6.52-14.67-16.26-19.54C3491.67,850.97,3481.27,848.76,3470.17,848.76z"/>
	</g>
</g>
<g class="st270">
	<g>
		
			<ellipse transform="matrix(0.7071 -0.7071 0.7071 0.7071 385.4333 2503.7268)" class="st1" cx="3214.98" cy="786.6" rx="33.01" ry="58.58"/>
	</g>
	<g>
		<path class="st1" d="M3239.71,838.93c-4.11,0-8.54-0.65-13.22-1.95c-13.01-3.63-26.58-12.04-38.21-23.67
			c-11.63-11.63-20.04-25.2-23.67-38.21c-3.9-13.96-1.91-25.78,5.59-33.28c7.5-7.5,19.32-9.49,33.28-5.59
			c13.01,3.63,26.58,12.04,38.21,23.67c11.63,11.63,20.04,25.2,23.67,38.21c3.9,13.96,1.91,25.78-5.59,33.28
			C3254.78,836.38,3247.88,838.93,3239.71,838.93z M3190.28,743.79c-5.62,0-10.2,1.6-13.35,4.76
			c-10.83,10.83-2.55,37.41,18.08,58.04c10.5,10.5,22.59,18.04,34.04,21.24c10.51,2.93,19.03,1.81,23.99-3.15
			c10.83-10.83,2.55-37.41-18.08-58.04c-10.5-10.5-22.59-18.04-34.04-21.24C3197.08,744.32,3193.51,743.79,3190.28,743.79z"/>
	</g>
</g>
<g class="st271">
	<g>
		<ellipse transform="matrix(0.9954 -0.0958 0.0958 0.9954 -68.3071 335.7509)" cx="3464.3" cy="879.62" rx="55.9" ry="35.41"/>
	</g>
	<g>
		<path d="M3459.2,920.04c-12.51,0-24.34-2.57-34-7.46c-12.66-6.41-20.21-16.05-21.28-27.15c-1.07-11.1,4.51-22,15.72-30.71
			c10.57-8.21,25.07-13.57,40.82-15.09c15.75-1.51,31,0.98,42.94,7.03c12.66,6.41,20.21,16.05,21.28,27.15v0
			c1.07,11.1-4.51,22-15.72,30.71c-10.57,8.21-25.07,13.57-40.82,15.09C3465.14,919.9,3462.15,920.04,3459.2,920.04z
			 M3469.44,848.71c-2.66,0-5.36,0.13-8.08,0.39c-13.98,1.34-26.72,6.01-35.89,13.13c-8.54,6.63-12.83,14.55-12.08,22.28
			c0.74,7.74,6.47,14.69,16.11,19.57c10.36,5.24,23.75,7.39,37.73,6.05c13.98-1.34,26.72-6.01,35.89-13.13
			c8.54-6.63,12.83-14.55,12.08-22.28c-0.74-7.74-6.47-14.69-16.11-19.57C3490.76,850.93,3480.44,848.71,3469.44,848.71z"/>
	</g>
</g>
<g class="st271">
	<g>
		<ellipse transform="matrix(0.9954 -0.0958 0.0958 0.9954 -68.4589 336.4641)" cx="3471.61" cy="881.55" rx="54.4" ry="37.85"/>
	</g>
	<g>
		<path d="M3467.68,924.35c-12.53,0-24.43-2.87-34.13-8.33c-12.31-6.92-19.7-17.15-20.83-28.81c-1.12-11.66,4.19-23.11,14.95-32.25
			c10.28-8.72,24.43-14.34,39.85-15.83c15.42-1.48,30.38,1.34,42.13,7.94c12.31,6.92,19.7,17.15,20.83,28.81v0
			c1.12,11.66-4.19,23.11-14.95,32.25c-10.28,8.72-24.43,14.34-39.85,15.83C3473,924.22,3470.33,924.35,3467.68,924.35z
			 M3475.56,848.26c-2.35,0-4.73,0.11-7.12,0.34c-13.5,1.3-25.79,6.13-34.6,13.61c-8.32,7.06-12.45,15.62-11.64,24.08
			c0.81,8.47,6.5,16.08,16.02,21.42c10.07,5.66,23.06,8.06,36.56,6.76c13.5-1.3,25.79-6.13,34.6-13.61
			c8.32-7.06,12.45-15.62,11.64-24.08c-0.81-8.47-6.5-16.08-16.02-21.42C3496.71,850.72,3486.46,848.26,3475.56,848.26z"/>
	</g>
</g>
<g>
	<g>
		<path d="M3452.52,903.39c-9.65,0-18.7-1.36-26.35-4.03c-12.4-4.32-19.87-11.63-21.05-20.58c-1.18-8.95,4.16-17.94,15.02-25.32
			c9.9-6.72,23.5-11.49,38.3-13.44c14.8-1.94,29.17-0.85,40.47,3.09c12.4,4.32,19.87,11.63,21.05,20.58v0
			c1.18,8.95-4.16,17.94-15.02,25.32c-9.9,6.72-23.5,11.49-38.3,13.44C3461.86,903.08,3457.12,903.39,3452.52,903.39z
			 M3472.62,848.59c-4.2,0-8.54,0.29-12.94,0.86c-13.36,1.75-25.5,5.97-34.2,11.87c-7.62,5.17-11.61,11.08-10.93,16.21
			c0.67,5.13,6.05,9.8,14.75,12.83c9.93,3.46,22.75,4.4,36.1,2.64c13.36-1.75,25.5-5.97,34.2-11.87
			c7.62-5.17,11.61-11.08,10.93-16.21v0c-0.67-5.13-6.05-9.8-14.75-12.83C3489.13,849.78,3481.17,848.59,3472.62,848.59z"/>
	</g>
</g>
<g class="st271">
	<g>
		<ellipse transform="matrix(0.9915 -0.1302 0.1302 0.9915 -83.9693 458.3113)" cx="3462.54" cy="871.24" rx="53.16" ry="26.72"/>
	</g>
	<g>
		<path d="M3452.52,903.39c-9.65,0-18.7-1.36-26.35-4.03c-12.4-4.32-19.87-11.63-21.05-20.58c-1.18-8.95,4.16-17.94,15.02-25.32
			c9.9-6.72,23.5-11.49,38.3-13.44c14.8-1.94,29.17-0.85,40.47,3.09c12.4,4.32,19.87,11.63,21.05,20.58v0
			c1.18,8.95-4.16,17.94-15.02,25.32c-9.9,6.72-23.5,11.49-38.3,13.44C3461.86,903.08,3457.12,903.39,3452.52,903.39z
			 M3472.62,848.59c-4.2,0-8.54,0.29-12.94,0.86c-13.36,1.75-25.5,5.97-34.2,11.87c-7.62,5.17-11.61,11.08-10.93,16.21
			c0.67,5.13,6.05,9.8,14.75,12.83c9.93,3.46,22.75,4.4,36.1,2.64c13.36-1.75,25.5-5.97,34.2-11.87
			c7.62-5.17,11.61-11.08,10.93-16.21v0c-0.67-5.13-6.05-9.8-14.75-12.83C3489.13,849.78,3481.17,848.59,3472.62,848.59z"/>
	</g>
</g>
<g>
	<g>
		
			<ellipse transform="matrix(0.7071 -0.7071 0.7071 0.7071 380.4294 2511.5688)" class="st269" cx="3221.95" cy="796.56" rx="33.01" ry="58.58"/>
	</g>
	<g>
		<path d="M3246.67,848.89c-4.11,0-8.54-0.65-13.22-1.95c-13.01-3.63-26.58-12.04-38.21-23.67c-11.63-11.63-20.04-25.2-23.67-38.21
			c-3.9-13.96-1.91-25.78,5.59-33.28c7.5-7.5,19.32-9.49,33.28-5.59c13.01,3.63,26.58,12.04,38.21,23.67
			c11.63,11.63,20.04,25.2,23.67,38.21c3.9,13.96,1.91,25.78-5.59,33.28C3261.75,846.34,3254.84,848.89,3246.67,848.89z
			 M3197.26,753.74c-5.48,0-10.13,1.53-13.37,4.77c-10.83,10.83-2.55,37.41,18.08,58.04c10.5,10.5,22.59,18.04,34.04,21.24
			c10.51,2.93,19.03,1.81,23.99-3.15c4.97-4.97,6.09-13.49,3.15-23.99c-3.2-11.46-10.74-23.55-21.24-34.04
			C3227.47,762.13,3210.09,753.74,3197.26,753.74z"/>
	</g>
</g>
<g class="st271">
	<g>
		<ellipse transform="matrix(0.7071 -0.7071 0.7071 0.7071 380.4294 2511.5688)" cx="3221.95" cy="796.56" rx="33.01" ry="58.58"/>
	</g>
	<g>
		<path d="M3246.67,848.89c-4.11,0-8.54-0.65-13.22-1.95c-13.01-3.63-26.58-12.04-38.21-23.67c-11.63-11.63-20.04-25.2-23.67-38.21
			c-3.9-13.96-1.91-25.78,5.59-33.28c7.5-7.5,19.32-9.49,33.28-5.59c13.01,3.63,26.58,12.04,38.21,23.67
			c11.63,11.63,20.04,25.2,23.67,38.21c3.9,13.96,1.91,25.78-5.59,33.28C3261.75,846.34,3254.84,848.89,3246.67,848.89z
			 M3197.26,753.74c-5.48,0-10.13,1.53-13.37,4.77c-10.83,10.83-2.55,37.41,18.08,58.04c10.5,10.5,22.59,18.04,34.04,21.24
			c10.51,2.93,19.03,1.81,23.99-3.15c4.97-4.97,6.09-13.49,3.15-23.99c-3.2-11.46-10.74-23.55-21.24-34.04
			C3227.47,762.13,3210.09,753.74,3197.26,753.74z"/>
	</g>
</g>
<g class="st271">
	<g>
		<ellipse transform="matrix(0.7071 -0.7071 0.7071 0.7071 374.6032 2522.2522)" cx="3231.93" cy="808.94" rx="33.01" ry="58.58"/>
	</g>
	<g>
		<path d="M3256.65,861.27c-4.11,0-8.54-0.65-13.22-1.95c-13.01-3.63-26.58-12.04-38.21-23.67c-11.63-11.63-20.04-25.2-23.67-38.21
			c-3.9-13.96-1.91-25.78,5.59-33.28c7.5-7.5,19.32-9.49,33.28-5.59c13.01,3.63,26.58,12.04,38.21,23.67s20.04,25.2,23.67,38.21
			c3.9,13.96,1.91,25.78-5.59,33.28C3271.73,858.72,3264.82,861.27,3256.65,861.27z M3207.22,766.12c-5.62,0-10.2,1.6-13.35,4.76
			c-4.97,4.97-6.09,13.49-3.15,23.99c3.2,11.46,10.74,23.55,21.24,34.04c20.63,20.63,47.21,28.91,58.04,18.08
			c10.83-10.83,2.55-37.41-18.08-58.04c-10.5-10.5-22.59-18.04-34.04-21.24C3214.03,766.66,3210.45,766.12,3207.22,766.12z"/>
	</g>
</g>
<g>
	<g>
		<path d="M3248.44,831.17c-3.61,0-7.56-0.66-11.77-2c-10.22-3.25-21.01-10.22-30.4-19.61c-9.39-9.39-16.35-20.19-19.61-30.4
			c-3.6-11.28-2.33-20.75,3.57-26.65c5.9-5.9,15.36-7.17,26.65-3.57c10.22,3.25,21.01,10.22,30.4,19.61h0
			c9.39,9.39,16.35,20.19,19.61,30.4c3.6,11.28,2.33,20.75-3.57,26.65C3259.62,829.29,3254.51,831.17,3248.44,831.17z
			 M3205.15,756.49c-3.53,0-6.37,0.92-8.19,2.75c-6.52,6.52-1.54,26.03,16.03,43.6c17.57,17.57,37.08,22.55,43.6,16.03
			c6.52-6.52,1.54-26.03-16.03-43.6C3227.9,762.61,3214.24,756.49,3205.15,756.49z"/>
	</g>
</g>
<g class="st271">
	<g>
		<ellipse transform="matrix(0.7071 -0.7071 0.7071 0.7071 387.1593 2512.7798)" cx="3226.77" cy="789.05" rx="24.25" ry="46.92"/>
	</g>
	<g>
		<path d="M3248.44,831.17c-3.61,0-7.56-0.66-11.77-2c-10.22-3.25-21.01-10.22-30.4-19.61c-9.39-9.39-16.35-20.19-19.61-30.4
			c-3.6-11.28-2.33-20.75,3.57-26.65c5.9-5.9,15.36-7.17,26.65-3.57c10.22,3.25,21.01,10.22,30.4,19.61h0
			c9.39,9.39,16.35,20.19,19.61,30.4c3.6,11.28,2.33,20.75-3.57,26.65C3259.62,829.29,3254.51,831.17,3248.44,831.17z
			 M3205.15,756.49c-3.53,0-6.37,0.92-8.19,2.75c-6.52,6.52-1.54,26.03,16.03,43.6c17.57,17.57,37.08,22.55,43.6,16.03
			c6.52-6.52,1.54-26.03-16.03-43.6C3227.9,762.61,3214.24,756.49,3205.15,756.49z"/>
	</g>
</g>
<g>
	<g>
		<path d="M3191.84,645.88c-0.54,5.34,1.67,10.96,5.65,14.38c1.66,1.43,4.48,3.13,5.26,2.3c1.34-1.43-5.9-7.76-5.13-16.11
			c0.5-5.41,4.22-9.4,6.18-11.5c5.18-5.56,11.07-7.1,10.82-7.73c-0.23-0.57-5.33,0.17-10.3,2.93
			C3201.57,631.68,3192.78,636.56,3191.84,645.88z"/>
	</g>
</g>
<g>
	<g>
		<path d="M3504.36,650.16c-0.24,7,3.15,14.7,9.02,18.62c0.62,0.41,3.86,2.57,4.92,1.65c1.92-1.67-7.02-10.11-6.08-20.07
			c0.85-9.02,9.4-14.81,10.38-15.45c13.38-8.8,31.55-0.51,31.85-1.74c0.3-1.21-16.81-12.19-32.82-5.47
			C3513.55,631.1,3504.72,639.45,3504.36,650.16z"/>
	</g>
</g>
<g class="st273">
	<g>
		<ellipse cx="3453.49" cy="477.99" rx="24.22" ry="24.76"/>
	</g>
</g>
<g class="st11">
	<g>
		<ellipse cx="3534.44" cy="650.74" rx="30.16" ry="24.72"/>
	</g>
</g>
<g class="st273">
	<g>
		<ellipse cx="3221.95" cy="647.91" rx="30.16" ry="21.88"/>
	</g>
</g>
<g>
	<g>
		<path d="M3473.11,463.74c0.78-1.34-10.6-15.1-23.86-12.92c-14.34,2.35-20.24,21.59-19.11,22.44c0.98,0.73,7.06-12.37,19.82-14.9
			C3462.27,455.91,3472.42,464.94,3473.11,463.74z"/>
	</g>
</g>
<g class="st273">
	<g>
		<ellipse cx="3348.84" cy="797.89" rx="24.22" ry="24.76"/>
	</g>
</g>
<g>
	<g>
		<path d="M3368.47,783.64c0.78-1.34-10.6-15.1-23.86-12.92c-14.34,2.35-20.24,21.59-19.11,22.44c0.98,0.73,7.06-12.37,19.82-14.9
			C3357.62,775.8,3367.77,784.84,3368.47,783.64z"/>
	</g>
</g>
<g class="st11">
	<g>
		<path d="M3159.33,839.61c139.97,87.51,313.76,83.22,433.96-8.36c132.84-101.21,140.17-263.26,140.84-286.28
			c0,0,96.86,182.38-74.39,364.09C3659.74,909.06,3414.29,1135.48,3159.33,839.61z"/>
	</g>
</g>
<g class="st270">
	<g>
		<path class="st1" d="M3175.18,846.51c0,0-102.43-238.08,91.65-403.62c0,0,103.31-94.18,267.61-64.69c0,0-169-62.62-312.49,72.39
			c-143.49,135.01-87.36,304.35-87.36,304.35S3147.94,808.11,3175.18,846.51z"/>
	</g>
</g>
<g>
	<g>
		<g>
			<path class="st274" d="M3386.9,347.97"/>
		</g>
	</g>
</g>
<g>
	<g>
		<path class="st275" d="M3204.58,367.74"/>
	</g>
</g>
<g class="st7">
	<g>
		<path class="st1" d="M3274.92,525.82c0,0-11.73-9.83,0-19.66c0,0-7.41,0.41-8.56,10.11
			C3266.35,516.26,3266.04,523.6,3274.92,525.82z"/>
	</g>
</g>
<g>
	<g>
		<path class="st276" d="M3025.43,410.72"/>
	</g>
</g>
<g>
	<g>
		<path class="st276" d="M3791.58,537.25"/>
	</g>
</g>
<g>
	<path class="st5" d="M2466.88,2682.92"/>
</g>
<g>
	<path class="st5" d="M2554.25,2644.7"/>
</g>
<g>
	<path class="st5" d="M2406.82,2562.79"/>
</g>
<g class="st11">
	<path d="M776,3326.33c-9.9,52.96,11.49,104.23,52.03,127.85c36.87,21.49,75.91,12.12,85.48,9.54c0,0,62.66-11.23,79.37-44.92
		c0,0,35.51,57.55,131.58,29.48c0,0,33.42-14.04,50.13-36.5c0,0,37.59,92.65,150.38,78.61c112.78-14.04,116.96-98.26,116.96-98.26
		s41.77,22.46,83.54,11.23c41.77-11.23,50.13-28.07,50.13-28.07s125.32,140.38,284.05,42.11c0,0,29.24-19.65,41.77-33.69
		c0,0,87.72,87.03,217.22,8.42c0,0,33.42-22.46,41.77-56.15c0,0,20.89,101.07,158.73,106.68c137.85,5.61,150.38-67.38,150.38-67.38
		s20.89,44.92,96.08,22.46c0,0,16.71-5.61,33.42-14.04c0,0,0,101.07,133.67,109.49c133.67,8.42,133.67-75.8,133.67-75.8
		s33.42,53.34,125.32,36.5c0,0,37.59-5.61,58.48-33.69c0,0,37.59,56.15,121.14,44.92c31.75-4.27,54.6-23.37,63.21-30.77
		c10.29-8.84,26.71-22.94,35.03-47.96c9.15-27.52,2.97-51.58,0-60.97c15.96,4.61,45.16,15.48,70.98,41.86
		c5.98,6.1,58.07,60.66,43.82,111.88c-16.9,60.74-121.21,95.67-121.21,95.67l0,0l-45.88,5.4h-284.05H832.06
		c-58.13,8.13-114.52-18.16-142.06-65.72c-32.73-56.53-8.86-115.71-5.92-122.66C714.73,3370.01,745.37,3348.17,776,3326.33z"/>
</g>
<g>
	<path class="st277" d="M1795.72,2799.86"/>
</g>
<g>
	<path class="st278" d="M2893.24,2690.66"/>
</g>
<g class="st11">
	<path d="M2029.87,2121.58c0,0,78.45,166.38,113.03,129.98c34.58-36.4,141-460.23-155.19-847.59c0,0,139.72,72.22,201.61,313.38
		s40.95,342.18,40.95,342.18s-9.1,138.33,15.47,197.48c0,0-141.02,85.54-202.92,85.09
		C2042.81,2342.11,2073.37,2224.57,2029.87,2121.58z"/>
</g>
<g class="st11">
	<path d="M1844.4,2404.45c16.97,14.3,74.13,58.83,159.26,60.97c68.57,1.73,118.87-24.97,139.24-37.31
		c2.19,35.34,2.08,74.25-1.93,116.03c-14.68,152.81-74.52,270.75-121.83,344.45c0.3,6.67,0.61,13.35,0.91,20.02
		c0,0,148.34-177.46,169.27-360.38s-22.84-178.82-22.84-178.82s-141.88,128.77-304.78,14.1l-14.56-9.1
		C1846.22,2384.42,1845.31,2394.44,1844.4,2404.45z"/>
</g>
<g class="st11">
	<path class="st1" d="M1860.79,2394.44c0,0-60.97,220.23,109.21,437.73c0,0-140.15-201.12-98.29-432.27l0,0l-10.01-6.37
		L1860.79,2394.44L1860.79,2394.44z"/>
</g>
<g>
	<path d="M1625.08,2620.13"/>
</g>
</svg>
