<?xml version="1.0" encoding="utf-8"?>
<!-- Generator: Adobe Illustrator 24.1.1, SVG Export Plug-In . SVG Version: 6.00 Build 0)  -->
<svg version="1.1" id="Layer_1" xmlns="http://www.w3.org/2000/svg" xmlns:xlink="http://www.w3.org/1999/xlink" x="0px" y="0px"
	 viewBox="0 0 1364 960" enable-background="new 0 0 1364 960" xml:space="preserve">
<rect fill="#2E0A66" width="1364" height="960"/>
<linearGradient id="SVGID_1_" gradientUnits="userSpaceOnUse" x1="545.4559" y1="423.0212" x2="375.8315" y2="1077.0453">
	<stop  offset="1.200000e-07" style="stop-color:#F490D1"/>
	<stop  offset="0.1049" style="stop-color:#E888CC"/>
	<stop  offset="0.2928" style="stop-color:#C973BD"/>
	<stop  offset="0.5423" style="stop-color:#9750A5"/>
	<stop  offset="0.8404" style="stop-color:#522085"/>
	<stop  offset="1" style="stop-color:#2A0572"/>
</linearGradient>
<path fill="url(#SVGID_1_)" d="M925.24,766.638V960H0V524.826c9.64,6.245,18.28,13.578,25.56,21.945
	c13.87,15.936,21.09,33.623,22.2,51.273c33.81-3.777,68.88,7.606,87.29,30.718c8.66,10.858,12.46,22.839,11.89,34.569
	c14.39-5.477,30.03-7.465,45.43-4.997c21.58,3.459,38.68,15.034,49.05,31.043c18.66-19.188,46.05-32.588,78.35-35.921
	c65.94-6.815,127.84,30.858,140.57,84.696c22.9-5.581,47.98-1.996,66.37,9.062c7.34-12.314,19.79-23.09,36.67-30.437
	c28.75-12.513,63.05-11.885,90.15-0.562c5.9-3.991,12.46-7.598,19.63-10.717c55.45-24.14,126.88-10.488,159.53,30.511
	c2.23,2.794,4.22,5.647,5.98,8.544c29.92-11.02,66.71-3.208,83.94,18.411C923.57,764.169,924.45,765.396,925.24,766.638z"/>
<linearGradient id="SVGID_2_" gradientUnits="userSpaceOnUse" x1="4527.7866" y1="288.1416" x2="4122.6411" y2="939.0217" gradientTransform="matrix(-1 0 0 1 5056 0)">
	<stop  offset="1.200000e-07" style="stop-color:#F490D1"/>
	<stop  offset="0.1036" style="stop-color:#ED8BCE"/>
	<stop  offset="0.2529" style="stop-color:#DA7EC5"/>
	<stop  offset="0.4297" style="stop-color:#BB69B6"/>
	<stop  offset="0.6277" style="stop-color:#8F4BA2"/>
	<stop  offset="0.8405" style="stop-color:#582588"/>
	<stop  offset="1" style="stop-color:#2A0572"/>
</linearGradient>
<path fill="url(#SVGID_2_)" d="M0,836.39V960h1364V110.41c-1.84-0.24-3.71-0.4-5.6-0.47c-33.92-1.33-62.71,23.89-66.36,57.12
	c-4.25-0.64-8.57-1.06-12.96-1.23c-64.31-2.54-118.49,47.54-121.02,111.84c-0.33,8.32,0.23,16.47,1.58,24.36
	c-27.55,14.5-46.82,42.89-48.13,76.23c-0.77,19.57,4.76,37.93,14.79,53.12c-22.52,7.37-40.17,25.84-46.21,49.18
	c-68.15-28.69-144.5-4.2-172.42,56.24c-13.68,29.6-13.25,62.45-1.51,92.19c-23.83-3-46.25,2.91-61.86,18.53
	c-11.14,11.14-17.34,25.75-18.89,41.86c-13.04-9.06-28.73-14.63-45.77-15.3c-36.26-1.43-68.18,19.73-82.17,50.94
	c-20.69-11.99-44.72-18.86-70.35-18.86c-63.26,0-116.75,41.82-134.34,99.32c-8.57-5.24-18.65-8.27-29.43-8.27
	c-17.28,0-32.73,7.77-43.09,20c-13.93-30.93-45.02-52.47-81.14-52.47c-25.13,0-47.82,10.43-64,27.19
	c-19.29-13.42-42.73-21.28-68-21.28c-48.46,0-90.16,28.89-108.84,70.38c-15.68-9.28-33.97-14.62-53.52-14.62
	C28.75,826.41,13.58,829.99,0,836.39z"/>
<linearGradient id="SVGID_3_" gradientUnits="userSpaceOnUse" x1="668.2073" y1="520.2753" x2="667.3739" y2="977.6678">
	<stop  offset="0" style="stop-color:#FFFFFF"/>
	<stop  offset="1" style="stop-color:#000000"/>
</linearGradient>
<polygon fill="url(#SVGID_3_)" points="784.647,944.765 550.221,944.765 624.204,624.919 710.663,624.919 "/>
<linearGradient id="SVGID_4_" gradientUnits="userSpaceOnUse" x1="4288.3506" y1="514.3973" x2="3697.4707" y2="1102.1975" gradientTransform="matrix(-1 0 0 1 5056 0)">
	<stop  offset="1.200000e-07" style="stop-color:#F490D1"/>
	<stop  offset="0.1049" style="stop-color:#E888CC"/>
	<stop  offset="0.2928" style="stop-color:#C973BD"/>
	<stop  offset="0.5423" style="stop-color:#9750A5"/>
	<stop  offset="0.8404" style="stop-color:#522085"/>
	<stop  offset="1" style="stop-color:#2A0572"/>
</linearGradient>
<path fill="url(#SVGID_4_)" d="M347,960h1017V243.58c-23.66,22.73-37.63,55.27-35.64,90.6c0.46,8.32,1.8,16.37,3.9,24.1
	c-26.04,17.06-42.52,47.16-40.64,80.48c1.1,19.55,8.36,37.3,19.8,51.46c-21.72,9.49-37.52,29.56-41.31,53.37
	c-70.58-22.06-144.24,9.61-166.26,72.44c-10.79,30.77-7.23,63.43,7.3,91.91c-24.01-0.71-45.77,7.32-59.81,24.35
	c-10.03,12.16-14.81,27.29-14.81,43.48c-13.85-7.78-30-11.82-47.02-10.86c-36.23,2.03-65.99,26.14-76.93,58.55
	c-21.74-9.96-46.32-14.51-71.83-12.06c-62.97,6.04-112.23,52.77-124.25,111.69c-9.03-4.4-19.35-6.45-30.08-5.42
	c-17.21,1.65-31.84,10.86-40.99,24.02c-16.82-29.46-49.82-47.93-85.78-44.49c-25.01,2.4-46.6,14.95-61.11,33.18
	c-20.48-11.52-44.56-17.11-69.72-14.69C395.34,918.9,366.44,935.64,347,960z"/>
<path fill="#F2F2F2" d="M312.23,179.118c-0.237,0.444-0.483,0.88-0.736,1.314c-4.893,8.4-12.003,15.192-20.389,19.727
	c-6.248,3.378-13.201,5.511-20.48,6.117l-0.157,0.016c-4.515,0.368-9.158,0.149-13.822-0.715c-18.376-3.402-32.724-16-39.167-32.162
	c-0.137-0.331-0.266-0.671-0.391-1.014c-3.24-8.618-4.244-18.201-2.444-27.915c0.437-2.372,1.031-4.672,1.767-6.898
	c0.155-0.312,0.311-0.619,0.475-0.923c0.07-0.133,0.139-0.262,0.21-0.394c0.364-0.682,0.742-1.351,1.131-2.008
	c0.047-0.082,0.093-0.16,0.143-0.24c0.36-0.6,0.731-1.188,1.112-1.768c1.616-2.453,3.415-4.74,5.378-6.849
	c0.281-0.299,0.561-0.595,0.848-0.888c5.776-5.916,12.848-10.339,20.566-12.974c1.879-0.643,3.796-1.18,5.74-1.607
	c0.596-0.132,1.121,0.017,1.52,0.32c0.84,0.639,1.102,1.982,0.181,2.882c-2.118,2.078-4.039,4.399-5.707,6.939
	c-0.308,0.473-0.613,0.95-0.906,1.436c-0.037,0.066-0.077,0.13-0.116,0.199c-1.239,2.082-2.321,4.304-3.214,6.649
	c-1.514,3.974-2.395,8.033-2.686,12.071c-0.263,3.578-0.064,7.136,0.559,10.593c0.05,0.286,0.107,0.579,0.165,0.864
	c1.995,9.909,7.483,18.953,15.642,25.277c3.246,2.515,6.914,4.602,10.95,6.14c3.601,1.372,7.278,2.223,10.94,2.59l0.127,0.012
	c5.905,0.576,11.773-0.11,17.256-1.898c4.476-1.459,8.695-3.653,12.471-6.494C310.554,176.499,312.347,177.608,312.23,179.118z"/>
<polygon fill="#F2F2F2" points="90.813,341.264 83.789,344.957 85.131,337.135 79.448,331.596 87.301,330.455 90.813,323.339 
	94.325,330.455 102.178,331.596 96.496,337.135 97.837,344.957 "/>
<polygon fill="#F2F2F2" points="436.012,511.952 428.988,515.645 430.33,507.823 424.647,502.284 432.5,501.143 436.012,494.027 
	439.524,501.143 447.377,502.284 441.695,507.823 443.036,515.645 "/>
<polygon fill="#F2F2F2" points="581.984,93.758 574.96,97.45 576.301,89.629 570.619,84.09 578.472,82.949 581.984,75.833 
	585.496,82.949 593.349,84.09 587.666,89.629 589.008,97.45 "/>
<polygon fill="#F2F2F2" points="369.73,287.056 362.706,290.749 364.048,282.927 358.365,277.388 366.218,276.247 369.73,269.131 
	373.242,276.247 381.095,277.388 375.413,282.927 376.754,290.749 "/>
<polygon fill="#F2F2F2" points="866.865,219.547 859.841,223.24 861.182,215.418 855.5,209.879 863.353,208.738 866.865,201.622 
	870.377,208.738 878.23,209.879 872.548,215.418 873.889,223.24 "/>
<polygon fill="#F2F2F2" points="1100.159,311.33 1093.135,315.023 1094.476,307.201 1088.794,301.662 1096.647,300.521 
	1100.159,293.405 1103.671,300.521 1111.524,301.662 1105.842,307.201 1107.183,315.023 "/>
<polygon fill="#F2F2F2" points="1168.647,66.418 1161.623,70.111 1162.964,62.289 1157.282,56.75 1165.135,55.609 1168.647,48.493 
	1172.159,55.609 1180.012,56.75 1174.33,62.289 1175.671,70.111 "/>
<path fill="#F4F4F4" d="M92.403,86.673c4.117-0.072,8.694-0.505,13.369-1.604c-4.67-1.098-9.243-1.531-13.356-1.603
	c-0.073-4.113-0.505-8.686-1.603-13.356c-1.099,4.675-1.532,9.253-1.604,13.369c-7.851,0.206-13.356,1.59-13.356,1.59
	s5.511,1.386,13.369,1.591c0.204,7.858,1.591,13.369,1.591,13.369S92.198,94.524,92.403,86.673z"/>
<path fill="#F4F4F4" d="M264.587,431.601c4.116-0.072,8.694-0.504,13.369-1.604c-4.67-1.098-9.243-1.531-13.356-1.603
	c-0.073-4.113-0.505-8.685-1.603-13.356c-1.099,4.675-1.532,9.253-1.603,13.369c-7.851,0.206-13.356,1.59-13.356,1.59
	s5.511,1.386,13.369,1.591c0.204,7.858,1.591,13.369,1.591,13.369S264.382,439.452,264.587,431.601z"/>
<path fill="#F4F4F4" d="M516.399,270.735c4.116-0.072,8.694-0.505,13.369-1.604c-4.67-1.098-9.243-1.531-13.356-1.603
	c-0.073-4.113-0.505-8.686-1.603-13.356c-1.099,4.675-1.532,9.253-1.603,13.369c-7.851,0.206-13.356,1.59-13.356,1.59
	s5.511,1.386,13.369,1.591c0.204,7.858,1.591,13.369,1.591,13.369S516.193,278.586,516.399,270.735z"/>
<path fill="#F4F4F4" d="M359.955,62.477c4.116-0.072,8.694-0.505,13.369-1.604c-4.67-1.098-9.243-1.531-13.356-1.603
	c-0.073-4.113-0.505-8.685-1.603-13.356c-1.099,4.675-1.532,9.253-1.604,13.369c-7.851,0.206-13.356,1.59-13.356,1.59
	s5.51,1.386,13.369,1.591c0.204,7.858,1.591,13.369,1.591,13.369S359.75,70.328,359.955,62.477z"/>
<path fill="#F4F4F4" d="M759.317,77.436c4.117-0.072,8.694-0.505,13.369-1.604c-4.67-1.098-9.243-1.531-13.356-1.603
	c-0.073-4.113-0.505-8.685-1.603-13.356c-1.099,4.675-1.532,9.253-1.604,13.369c-7.851,0.205-13.356,1.59-13.356,1.59
	s5.511,1.386,13.369,1.591c0.204,7.858,1.591,13.369,1.591,13.369S759.111,85.287,759.317,77.436z"/>
<path fill="#F4F4F4" d="M879.82,417.244c4.117-0.072,8.694-0.504,13.369-1.603c-4.67-1.098-9.243-1.531-13.356-1.603
	c-0.073-4.113-0.505-8.686-1.603-13.356c-1.099,4.675-1.532,9.253-1.604,13.369c-7.851,0.206-13.356,1.59-13.356,1.59
	s5.511,1.386,13.369,1.591c0.204,7.858,1.591,13.369,1.591,13.369S879.615,425.095,879.82,417.244z"/>
<path fill="#F4F4F4" d="M1034.194,144.82c4.116-0.072,8.694-0.505,13.369-1.604c-4.67-1.098-9.243-1.531-13.356-1.603
	c-0.073-4.113-0.505-8.686-1.603-13.356c-1.099,4.675-1.531,9.253-1.604,13.369c-7.851,0.206-13.356,1.59-13.356,1.59
	s5.51,1.386,13.369,1.591c0.204,7.858,1.591,13.369,1.591,13.369S1033.988,152.671,1034.194,144.82z"/>
<polygon fill="#6F6CEA" points="778.182,491.223 811.373,579.625 783.373,607.625 704.08,525.176 737.709,472.046 "/>
<polygon fill="#6F6CEA" points="556.686,491.223 523.495,579.625 551.494,607.625 630.787,525.176 597.158,472.046 "/>
<path fill="#F4F2FF" d="M753.391,410.385c-1.818,38.474-9.093,88.807-28.044,150.186c0,0,0,0-0.015,0.015
	c-4.599,14.939-9.904,30.524-15.991,46.756h-83.276c-5.891-15.72-11.062-30.855-15.57-45.358
	c-19.388-62.386-26.722-113.425-28.51-152.275c-2.72-58.764,7.229-89.634,7.229-89.634h156.979
	C746.192,320.075,756.216,351.185,753.391,410.385z"/>
<path fill="#BFB7FA" d="M753.391,410.385c-0.736,15.495-2.36,32.929-5.26,52.226c-0.255,1.683-0.526,3.397-0.797,5.11
	c-0.526,3.261-1.082,6.568-1.668,9.919c-0.301,1.683-0.601,3.382-0.932,5.11c-4.374,23.535-10.641,49.506-19.388,77.821
	c0,0,0,0-0.015,0.015c-1.187,0.451-56.765,22.093-114.837,1.398c-8.987-28.946-15.39-55.442-19.853-79.414v-0.015
	c-0.315-1.698-0.616-3.352-0.917-5.02c-0.586-3.367-1.142-6.673-1.668-9.934c-0.271-1.683-0.526-3.352-0.767-5.02
	c-2.961-19.568-4.584-37.212-5.305-52.872C581.984,409.709,663.787,438.339,753.391,410.385z"/>
<path fill="#F4F2FF" d="M748.131,462.611c-0.255,1.683-0.526,3.397-0.797,5.11c-26.737,9.603-53.188,12.88-76.799,12.88
	c-39.241,0-70.652-9.048-82.48-13c-0.271-1.683-0.526-3.352-0.767-5.02C601.822,467.691,674.157,490.25,748.131,462.611z"/>
<path fill="#F4F2FF" d="M745.666,477.64c-0.301,1.683-0.601,3.382-0.932,5.11c-25.865,8.897-51.355,11.963-74.199,11.963
	c-36.656,0-66.474-7.89-79.895-12.144v-0.015c-0.315-1.698-0.616-3.352-0.917-5.02C608.42,483.742,676.036,502.619,745.666,477.64z"
	/>
<path fill="#6F6CEA" d="M667.532,228.292c-78.68,12.897-78.664,91.783-78.664,91.783h157.328
	C746.196,320.075,746.211,241.189,667.532,228.292z"/>
<path fill="#FAAF3A" d="M667.544,706.896c-32.838-48.803-26.214-70.466-15.699-79.971h31.397
	C693.758,636.43,700.382,658.093,667.544,706.896z"/>
<path fill="#FFBB61" d="M667.544,685.617c-22.158-32.937-21.176-49.954-15.185-58.692h30.37
	C688.72,635.663,689.702,652.68,667.544,685.617z"/>
<path fill="#FFCD92" d="M667.544,657.262c-10.634-15.802-11.671-24.998-9.597-30.337h19.194
	C679.215,632.263,678.178,641.459,667.544,657.262z"/>
<path fill="#FAAF3A" d="M709.069,664.728c-24.942-19.265-24.712-32.174-20.555-39.402l16.737-6.454
	C712.304,621.778,719.137,631.963,709.069,664.728z"/>
<path fill="#FFBB61" d="M705.827,653.385c-16.831-13.002-18.901-22.275-17.039-28.164l16.189-6.242
	C709.502,622.404,712.619,631.273,705.827,653.385z"/>
<path fill="#FFCD92" d="M701.505,638.27c-8.077-6.238-10.031-10.927-9.739-14.198l10.232-3.945
	C703.917,622.546,704.766,627.661,701.505,638.27z"/>
<path fill="#FAAF3A" d="M625.944,666.275c24.942-19.265,24.712-32.174,20.555-39.402l-16.737-6.453
	C622.71,623.325,615.877,633.511,625.944,666.275z"/>
<path fill="#FFBB61" d="M629.187,654.932c16.831-13.003,18.901-22.275,17.039-28.164l-16.189-6.242
	C625.512,623.952,622.395,632.821,629.187,654.932z"/>
<path fill="#FFCD92" d="M633.508,639.818c8.077-6.237,10.031-10.927,9.739-14.198l-10.232-3.945
	C631.097,624.093,630.248,629.208,633.508,639.818z"/>
<path fill="#2E0A66" d="M695.971,399.428h-56.537c-5.312,0-9.618-4.306-9.618-9.618v-40.992c0-5.312,4.306-9.618,9.618-9.618h56.537
	c5.312,0,9.618,4.306,9.618,9.618v40.992C705.589,395.122,701.283,399.428,695.971,399.428z"/>
<path fill="#65DFFC" d="M688.914,390.775h-42.423c-3.197,0-5.788-2.592-5.788-5.788v-31.345c0-3.197,2.592-5.789,5.789-5.789h42.423
	c3.197,0,5.789,2.592,5.789,5.789v31.344C694.703,388.183,692.111,390.775,688.914,390.775z"/>
<path fill="#F4F2FF" d="M677.117,354.47c0,0,11.022-1.952,10.907,6.314C687.909,369.05,686.388,355.216,677.117,354.47z"/>
<path fill="#6F6CEA" d="M625.622,606.226h84.002c0,0,9.884,21.026,2.644,23.037c-7.24,2.011-84.942,3.523-90.573,0.708
	C616.064,627.156,625.622,606.226,625.622,606.226z"/>
<path fill="#FFC363" d="M1009.818,265.218c0-2.161,1.752-3.913,3.913-3.913c2.161,0,3.913,1.752,3.913,3.913
	c0,2.161-1.752,3.913-3.913,3.913C1011.57,269.131,1009.818,267.379,1009.818,265.218z"/>
<path fill="#FFC363" d="M847.674,570.927c0-2.161,1.752-3.913,3.913-3.913c2.161,0,3.913,1.752,3.913,3.913
	s-1.752,3.913-3.913,3.913C849.426,574.84,847.674,573.088,847.674,570.927z"/>
<path fill="#FFC363" d="M510.895,657.262c0-2.161,1.752-3.913,3.913-3.913c2.161,0,3.913,1.752,3.913,3.913
	c0,2.161-1.752,3.913-3.913,3.913C512.647,661.175,510.895,659.423,510.895,657.262z"/>
<path fill="#FFC363" d="M197.522,524.826c0-2.161,1.752-3.913,3.913-3.913s3.913,1.752,3.913,3.913c0,2.161-1.752,3.913-3.913,3.913
	S197.522,526.987,197.522,524.826z"/>
<path fill="#FFC363" d="M213.956,320.075c0-2.161,1.752-3.913,3.913-3.913s3.913,1.752,3.913,3.913c0,2.161-1.752,3.913-3.913,3.913
	S213.956,322.236,213.956,320.075z"/>
<path fill="#FFC363" d="M458.707,390.775c0-2.161,1.752-3.913,3.913-3.913s3.913,1.752,3.913,3.913c0,2.161-1.752,3.913-3.913,3.913
	S458.707,392.936,458.707,390.775z"/>
<path fill="#FFC363" d="M327.435,578.753c0-2.161,1.752-3.913,3.913-3.913c2.161,0,3.913,1.752,3.913,3.913
	c0,2.161-1.752,3.913-3.913,3.913C329.187,582.666,327.435,580.914,327.435,578.753z"/>
<path fill="#FFC363" d="M458.707,189.087c0-2.161,1.752-3.913,3.913-3.913s3.913,1.752,3.913,3.913c0,2.161-1.752,3.913-3.913,3.913
	S458.707,191.248,458.707,189.087z"/>
<path fill="#FFC363" d="M674.101,147.13c0-2.161,1.752-3.913,3.913-3.913c2.161,0,3.913,1.752,3.913,3.913
	c0,2.161-1.752,3.913-3.913,3.913C675.853,151.043,674.101,149.291,674.101,147.13z"/>
<path fill="#FFC363" d="M859.358,315.023c0-2.161,1.752-3.913,3.913-3.913c2.161,0,3.913,1.752,3.913,3.913
	c0,2.161-1.752,3.913-3.913,3.913C861.11,318.936,859.358,317.184,859.358,315.023z"/>
<path fill="#FFC363" d="M492.023,55.389c0-2.161,1.752-3.913,3.913-3.913c2.161,0,3.913,1.752,3.913,3.913
	c0,2.161-1.752,3.913-3.913,3.913C493.775,59.302,492.023,57.55,492.023,55.389z"/>
<path fill="#FFC363" d="M68.028,458.668c0-2.161,1.752-3.913,3.913-3.913c2.161,0,3.913,1.752,3.913,3.913s-1.752,3.913-3.913,3.913
	C69.78,462.581,68.028,460.829,68.028,458.668z"/>
<path fill="#FFC363" d="M86.9,214.913c0-2.161,1.752-3.913,3.913-3.913c2.161,0,3.913,1.752,3.913,3.913
	c0,2.161-1.752,3.913-3.913,3.913C88.652,218.826,86.9,217.074,86.9,214.913z"/>
<path fill="#FFC363" d="M217.87,42.001c0-2.161,1.752-3.913,3.913-3.913s3.913,1.752,3.913,3.913c0,2.161-1.752,3.913-3.913,3.913
	S217.87,44.162,217.87,42.001z"/>
<path fill="#FFC363" d="M1264.217,97.45c0-2.161,1.752-3.913,3.913-3.913c2.161,0,3.913,1.752,3.913,3.913s-1.752,3.913-3.913,3.913
	C1265.969,101.363,1264.217,99.612,1264.217,97.45z"/>
<path fill="#FFC363" d="M932.373,86.642c0-2.161,1.752-3.913,3.913-3.913c2.161,0,3.913,1.752,3.913,3.913
	c0,2.161-1.752,3.913-3.913,3.913C934.125,90.555,932.373,88.803,932.373,86.642z"/>
</svg>
