<svg viewBox="1702.4744 601.0692 410.1428 106.176" width="5000" height="1294.3784457510897" xmlns="http://www.w3.org/2000/svg" xmlns:xlink="http://www.w3.org/1999/xlink" preserveAspectRatio="none"><defs></defs><style>.aa6wX5RsvA3Ocolors-0 {fill:#000000;fill-opacity:1;}.aD6z1nYkhcolor {fill:#000000;fill-opacity:1;}.arF48gn-IP9colors-0 {fill:#000000;fill-opacity:1;}.icon3-str {stroke:#C4C4C4;stroke-opacity:1;}</style><g opacity="1" transform="rotate(0 1811.3828 628.4218)">
<svg width="301.2344" height="51.2434" x="1811.3828" y="628.4218" version="1.1" preserveAspectRatio="none" viewBox="4.2 -28.32 168.36 28.64">
  <g transform="matrix(1 0 0 1 0 0)" class="aD6z1nYkhcolor"><path id="id-D6z1nYkh7" d="M4.20 0L4.20-28L8.20-28L8.20-3.48L23.36-3.48L23.36 0L4.20 0Z M43.04-21.20L46.88-21.20L46.88 0L43.24 0L43.24-3.20Q42.08-1.56 40.18-0.66Q38.28 0.24 36.04 0.24L36.04 0.24Q31.80 0.24 29.36-2.10Q26.92-4.44 26.92-9L26.92-9L26.92-21.20L30.76-21.20L30.76-9.44Q30.76-6.36 32.24-4.78Q33.72-3.20 36.48-3.20L36.48-3.20Q39.52-3.20 41.28-5.04Q43.04-6.88 43.04-10.24L43.04-10.24L43.04-21.20Z M65.52-21.40Q69.56-21.40 71.94-19.06Q74.32-16.72 74.32-12.20L74.32-12.20L74.32 0L70.48 0L70.48-11.76Q70.48-14.84 69-16.40Q67.52-17.96 64.76-17.96L64.76-17.96Q61.64-17.96 59.84-16.14Q58.04-14.32 58.04-10.92L58.04-10.92L58.04 0L54.20 0L54.20-21.20L57.88-21.20L57.88-18Q59.04-19.64 61.02-20.52Q63-21.40 65.52-21.40L65.52-21.40Z M89.16-21.40Q93.56-21.40 95.90-19.24Q98.24-17.08 98.24-12.80L98.24-12.80L98.24 0L94.60 0L94.60-2.80Q93.64-1.32 91.86-0.54Q90.08 0.24 87.64 0.24L87.64 0.24Q84.08 0.24 81.94-1.48Q79.80-3.20 79.80-6L79.80-6Q79.80-8.80 81.84-10.50Q83.88-12.20 88.32-12.20L88.32-12.20L94.40-12.20L94.40-12.96Q94.40-15.44 92.96-16.76Q91.52-18.08 88.72-18.08L88.72-18.08Q86.84-18.08 85.04-17.46Q83.24-16.84 82.00-15.80L82.00-15.80L80.40-18.68Q82.04-20 84.32-20.70Q86.60-21.40 89.16-21.40L89.16-21.40ZM88.28-2.72Q90.48-2.72 92.08-3.70Q93.68-4.68 94.40-6.48L94.40-6.48L94.40-9.44L88.48-9.44Q83.60-9.44 83.60-6.16L83.60-6.16Q83.60-4.56 84.84-3.64Q86.08-2.72 88.28-2.72L88.28-2.72Z M114.08 0.32Q110.92 0.32 107.98-0.66Q105.04-1.64 103.36-3.20L103.36-3.20L104.84-6.32Q106.44-4.88 108.94-3.98Q111.44-3.08 114.08-3.08L114.08-3.08Q117.56-3.08 119.28-4.26Q121.00-5.44 121.00-7.40L121.00-7.40Q121.00-8.84 120.06-9.74Q119.12-10.64 117.74-11.12Q116.36-11.60 113.84-12.20L113.84-12.20Q110.68-12.96 108.74-13.72Q106.80-14.48 105.42-16.06Q104.04-17.64 104.04-20.32L104.04-20.32Q104.04-22.56 105.22-24.36Q106.40-26.16 108.80-27.24Q111.20-28.32 114.76-28.32L114.76-28.32Q117.24-28.32 119.64-27.68Q122.04-27.04 123.76-25.84L123.76-25.84L122.44-22.64Q120.68-23.76 118.68-24.34Q116.68-24.92 114.76-24.92L114.76-24.92Q111.36-24.92 109.66-23.68Q107.96-22.44 107.96-20.48L107.96-20.48Q107.96-19.04 108.92-18.14Q109.88-17.24 111.30-16.74Q112.72-16.24 115.16-15.68L115.16-15.68Q118.32-14.92 120.24-14.16Q122.16-13.40 123.54-11.84Q124.92-10.28 124.92-7.64L124.92-7.64Q124.92-5.44 123.72-3.62Q122.52-1.80 120.08-0.74Q117.64 0.32 114.08 0.32L114.08 0.32Z M149.36-10.48Q149.36-10.04 149.28-9.32L149.28-9.32L132.08-9.32Q132.44-6.52 134.54-4.82Q136.64-3.12 139.76-3.12L139.76-3.12Q143.56-3.12 145.88-5.68L145.88-5.68L148.00-3.20Q146.56-1.52 144.42-0.64Q142.28 0.24 139.64 0.24L139.64 0.24Q136.28 0.24 133.68-1.14Q131.08-2.52 129.66-5Q128.24-7.48 128.24-10.60L128.24-10.60Q128.24-13.68 129.62-16.16Q131.00-18.64 133.42-20.02Q135.84-21.40 138.88-21.40L138.88-21.40Q141.92-21.40 144.30-20.02Q146.68-18.64 148.02-16.16Q149.36-13.68 149.36-10.48L149.36-10.48ZM138.88-18.16Q136.12-18.16 134.26-16.48Q132.40-14.80 132.08-12.08L132.08-12.08L145.68-12.08Q145.36-14.76 143.50-16.46Q141.64-18.16 138.88-18.16L138.88-18.16Z M163.92 0.24Q160.68 0.24 158.14-1.16Q155.60-2.56 154.16-5.02Q152.72-7.48 152.72-10.60L152.72-10.60Q152.72-13.72 154.16-16.18Q155.60-18.64 158.14-20.02Q160.68-21.40 163.92-21.40L163.92-21.40Q166.80-21.40 169.06-20.24Q171.32-19.08 172.56-16.88L172.56-16.88L169.64-15Q168.64-16.52 167.16-17.28Q165.68-18.04 163.88-18.04L163.88-18.04Q161.80-18.04 160.14-17.12Q158.48-16.20 157.54-14.50Q156.60-12.80 156.60-10.60L156.60-10.60Q156.60-8.36 157.54-6.66Q158.48-4.96 160.14-4.04Q161.80-3.12 163.88-3.12L163.88-3.12Q165.68-3.12 167.16-3.88Q168.64-4.64 169.64-6.16L169.64-6.16L172.56-4.32Q171.32-2.12 169.06-0.94Q166.80 0.24 163.92 0.24L163.92 0.24Z"/></g>
</svg>
</g><g opacity="1" transform="rotate(0 1702.4744 601.0692)">
<svg width="86.4581" height="106.176" x="1702.4744" y="601.0692" version="1.1" preserveAspectRatio="none" viewBox="43 29.999727249145508 114 139.99917602539062">
  <g transform="matrix(1 0 0 1 0 0)" ><g><path d="M154.409 50.063l-53-19.809a4.031 4.031 0 0 0-2.818 0l-53 19.809A3.972 3.972 0 0 0 43 53.78V100c0 17.375 9.634 34.96 27.86 50.855 13.481 11.757 26.786 18.444 27.346 18.724a4.038 4.038 0 0 0 3.588-.001c.56-.279 13.864-6.967 27.346-18.724C147.366 134.96 157 117.375 157 100V53.78a3.972 3.972 0 0 0-2.591-3.717zM149 100c0 32.697-39.966 56.55-49 61.522-9.034-4.972-49-28.825-49-61.522V56.529l49-18.314 49 18.314V100z" data-color="1" class="arF48gn-IP9colors-0"></path></g></g>
</svg>
</g><g opacity="1" transform="rotate(0 1718.195 624.6491)">
<svg width="55.0169" height="55.0161" x="1718.195" y="624.6491" version="1.1" preserveAspectRatio="none" viewBox="1.386005401611328 1.3100032806396484 96.78900146484376 96.78800201416016">
  <g transform="matrix(1 0 0 1 0 0)" class="aa6wX5RsvA3Ocolors-0"><path d="M98.175,71.521c-7.422,4.127-15.963,6.488-25.059,6.488c-28.519,0-51.639-23.121-51.639-51.639  c0-9.097,2.359-17.637,6.489-25.06c-15.851,8.815-26.58,25.726-26.58,45.15c0,28.517,23.12,51.638,51.639,51.638  C72.449,98.1,89.359,87.369,98.175,71.521z"></path><polygon points="82.348,12 86.565,20.548 96,21.919 89.175,28.573 90.785,37.97 82.348,33.534 73.909,37.97   75.521,28.573 68.694,21.919 78.129,20.548 "></polygon><polygon points="57.109,38.922 59.378,43.52 64.452,44.256 60.781,47.836 61.648,52.891 57.109,50.503 52.57,52.891   53.437,47.836 49.766,44.256 54.841,43.52 "></polygon><polygon points="51.259,3 54.183,8.925 60.722,9.875 55.991,14.488 57.107,21 51.259,17.925 45.41,21 46.527,14.488   41.796,9.875 48.335,8.925 "></polygon></g>
</svg>
</g></svg>