<svg xmlns="http://www.w3.org/2000/svg" version="1.1" xmlns:xlink="http://www.w3.org/1999/xlink" xmlns:svgjs="http://svgjs.com/svgjs" width="275" height="275"><svg version="1.1" id="SvgjsSvg1000" xmlns="http://www.w3.org/2000/svg" xmlns:xlink="http://www.w3.org/1999/xlink" x="0px" y="0px" viewBox="0 0 275 275" style="enable-background:new 0 0 275 275;" xml:space="preserve">
<style type="text/css">
	.st0{display:none;}
</style>
<polygon class="st0" points="-40.7,143.1 -86.7,177.6 -86.7,294.6 -56.7,304.6 -56.7,201.4 -40.7,185.4 "></polygon>
<path class="st0" d="M39.3,276.1v-40c-22.1-30.5-40.4-65.2-48.8-102h-13.2v142H39.3z"></path>
<polygon points="161,190.9 109.7,152.4 109.7,152.4 85.5,212.7 109.2,271.9 147.5,271.9 "></polygon>
<polygon class="st0" points="136.3,339.5 146.1,280.4 112.6,280.4 "></polygon>
<polygon class="st0" points="109.2,271.9 112.6,280.4 146.1,280.4 147.5,271.9 "></polygon>
<path class="st0" d="M6.4,377.4l37-83.3h-66v78.5c2.3-0.3,4.6-0.5,7-0.5C-7.8,372.1-0.3,374,6.4,377.4z"></path>
<path class="st0" d="M-15.7,390.1c-17.2,0-31,13.8-31,31s13.8,31,31,31c17.2,0,31-13.8,31-31S1.6,390.1-15.7,390.1z M-15.7,437.1
	c-8.8,0-16-7.2-16-16c0-8.8,7.2-16,16-16c8.8,0,16,7.2,16,16C0.3,429.9-6.8,437.1-15.7,437.1z"></path>
<path class="st0" d="M243,276.1l-56.8-142H0.8c7.3,30.1,21.3,58.6,38.5,84.5v-38.5h146v96H243z M227.2,247.2c6.4,0,6.4,10,0,10
	C220.7,257.2,220.7,247.2,227.2,247.2z"></path>
<polygon points="108.8,143.3 108.8,100.7 104.7,96.6 104.7,96.6 51.7,216 79.7,216 "></polygon>
<path class="st0" d="M212.3,390.1c-17.2,0-31,13.8-31,31s13.8,31,31,31c17.2,0,31-13.8,31-31S229.6,390.1,212.3,390.1z M212.3,437.1
	c-8.8,0-16-7.2-16-16c0-8.8,7.2-16,16-16c8.8,0,16,7.2,16,16C228.3,429.9,221.2,437.1,212.3,437.1z"></path>
<path d="M165.9,98.1l-19.6,4.9l-42-26.5l9.6,34.5v36.5l59.8,44.8l70,35.8l11-33L165.9,98.1z M152.9,142.3l6.8-24.2l34.9,35.8
	L152.9,142.3z"></path>
<path class="st0" d="M186.4,294.1l9,81c5.3-2,11-3,16.9-3c5.2,0,10.2,0.8,14.9,2.3l17.9-80.3H186.4z"></path>
<rect x="57.3" y="262.1" class="st0" width="110" height="14"></rect>
<path class="st0" d="M32.5,412.1c0.5,2.9,0.8,5.9,0.8,9c0,3.1-0.3,6.1-0.8,9h131.7c-0.5-2.9-0.8-5.9-0.8-9c0-3.1,0.3-6.1,0.8-9H32.5
	z"></path>
<rect x="57.3" y="230.1" class="st0" width="110" height="14"></rect>
<rect x="57.3" y="198.1" class="st0" width="110" height="14"></rect>
<path d="M30,123.9c-3.3-0.4-6.5-0.7-9.8-1.1c-0.8-0.1-1.7-0.1-2.4-0.4c-0.5-0.3-1.1-1.2-1-1.6c1.1-4.7,2.3-9.4,3.7-14
	c0.2-0.6,1.6-1.2,2.5-1.1c2.5,0.1,5,0.5,7.5,0.8c0.1-0.3,0.2-0.6,0.3-0.9c-2.9-2.2-5.8-4.4-9.3-7c1.2-0.3,2-0.6,2.8-0.6
	c4.6,0,9.2,0,13.7,0c0.9,0,1.8-0.2,2.8-0.3c0-0.2,0-0.4,0-0.6c-3.2-0.6-6.5-1.1-9.7-1.7c-1.6-0.3-3.3-0.6-4.9-1
	c-1.6-0.3-1.7-1.2-1-2.6c2.3-4.7,4.5-9.5,6.7-14.2c1.2-2.5,2.2-3,4.9-2.1c1.6,0.5,3.1,1.1,4.8,1.4c0.5,0.1,1.2-0.4,1.7-0.6
	c-0.3-0.6-0.3-1.5-0.8-1.9c-1.6-1.1-3.3-1.9-4.9-2.9c-0.6-0.4-0.9-1.1-1.3-1.7c0.8-0.2,1.7-0.7,2.2-0.4c2.6,1.1,5.1,2.5,7.6,3.7
	c1.6,0.7,3.1,1.4,4.7,2.1c0.2-0.2,0.3-0.5,0.5-0.7c-0.5-0.7-0.9-1.4-1.5-2c-2.7-2.4-5.3-4.7-8.1-7c-1.6-1.3-2-2.3-0.5-4.3
	c2.7-3.5,4.9-7.3,7.4-10.9c2.4-3.4,5.9-4.4,9.9-4.2c0.6,0,1.2-0.3,1.7-0.5c-0.2-0.6-0.2-1.3-0.6-1.8c-0.9-1.5-1.9-2.9-2.9-4.4
	c0.2-0.2,0.4-0.4,0.6-0.5c5.1,1.3,10.2,2.5,15.4,3.8c0.1-0.3,0.3-0.6,0.4-0.9c-1.6-1.1-3.3-2.2-4.9-3.3c-4.7-3.1-4.8-3.1-0.5-6.9
	c5.8-5.1,11.5-10.4,18.7-13.6c2.9-1.3,5.8-2.6,9.1-0.8c0.5,0.3,1.9-0.3,2.5-0.8c2.1-1.7,4-3.5,6-5.2c1.4-1.2,2.3-1.4,3.1,0.7
	c0.8,2.2,1.9,4.3,2.9,6.5c0.3,0,0.5-0.1,0.8-0.1c-0.1-1.9-0.2-3.8-0.3-5.7c-0.3-3.8,0.1-4.2,3.7-5.1c4.2-1,8.3-2.2,12.6-2.9
	c5.3-1,8.9,1.7,11.4,6.2c1.7,3,3.2,6,4.9,9c0.3,0.5,0.6,0.9,1.3,1.9c0.3-1.4,0.6-2.2,0.7-3c0.3-4.6,0.6-9.1,0.8-13.7
	c0.1-2.1,0.8-2.8,2.9-2.6c2,0.2,4,0.1,6,0c1.9-0.1,2.7,0.8,2.7,2.7c0.1,2.9,0.3,5.9,0.5,8.8c0.3,0.1,0.6,0.1,0.9,0.2
	c0.3-0.8,0.7-1.6,0.8-2.4c0.3-2.6,0.4-5.1,0.7-7.7c0.2-1.8,1.1-2.3,3-2.3c10.2-0.2,19.9,3,29.8,4.7c2.1,0.4,4.2,1.2,6.2,2
	c5.9,2.3,7.8,7.3,8.4,13c0.1,1.1,0.8,2.2,1.3,3.3c0.6-1.1,1.3-2.1,1.7-3.3c1.1-3,2.1-6,3.2-9.4c5,3.2,9.6,6.1,14.2,9.1
	c1.4,0.9,2.8,1.8,4.2,2.7c1.5,0.9,1.7,2.1,0.7,3.6c-6.6,10-13.1,20-19.6,30c-3.2,5-7.1,5.4-14.2,3.8c-8.1-1.9-16-4.8-24.1-6.1
	c-10.9-1.8-22-2.7-33.1-1c-6.1,0.9-12.2,1.9-18.1,3.4c-11.9,3.1-22.4,9-31.4,17.5C80.6,86,72.7,99.6,67,114.5
	c-3.6,9.5-7.3,19.1-10.8,28.6c-0.6,1.6-1.5,2-3,1.8c-10.5-0.9-21.1-1.8-31.6-2.7c-2-0.2-4-0.3-6-0.3c-1.8,0-2.9-0.6-2.5-2.7
	c0.3-1.5,0.5-3.2,0.4-4.7c-0.1-3.2,1.7-4.6,4.4-5.5c3.4-1.1,6.8-2.1,10.2-3.2c0.8-0.3,1.4-0.8,2.2-1.2C30.1,124.4,30,124.1,30,123.9
	z"></path>
<path d="M209.3,70.5c-3.8,2.3-7.2,4.3-10.6,6.4c-6.6,4.1-10.7,9.8-11.5,17.7c-0.2,1.8-0.5,2.2-2.5,1.4c-14.3-6.4-29.2-9.4-44.9-7.7
	c-10.8,1.1-20.9,4.2-30.1,9.7c-12.9,7.6-21.6,18.8-25.6,33.3c-1.7,6.1-2.7,12.3-3.9,18.5c-0.3,1.7-1,1.9-2.6,1.5
	c-4.1-0.9-8.1-1.7-12.3-2.3c-2.6-0.4-3.2-0.8-2.6-3.3c1.4-6.2,2.5-12.4,4.5-18.4c2.8-8.4,5.8-16.8,9.5-24.8
	c5.2-11.2,13.1-20.4,23-27.7c8.1-6,17-10.4,26.6-13.3c13-4,26.4-5.2,39.9-3.3c8.4,1.2,16.7,2.8,24.8,5.5c5.6,1.9,11.1,3.9,16.6,5.9
	C208.2,69.7,208.5,70,209.3,70.5z"></path>
</svg><style>@media (prefers-color-scheme: light) { :root { filter: none; } }
@media (prefers-color-scheme: dark) { :root { filter: invert(100%); } }
</style></svg>