<?xml version="1.0" standalone="no"?>
<!DOCTYPE svg PUBLIC "-//W3C//DTD SVG 20010904//EN"
 "http://www.w3.org/TR/2001/REC-SVG-20010904/DTD/svg10.dtd">
<svg version="1.0" xmlns="http://www.w3.org/2000/svg"
 width="700.000000pt" height="700.000000pt" viewBox="0 0 700.000000 700.000000"
 preserveAspectRatio="xMidYMid meet">
<metadata>
Created by potrace 1.14, written by Peter Selinger 2001-2017
</metadata>
<g transform="translate(0.000000,700.000000) scale(0.100000,-0.100000)"
fill="#000000" stroke="none">
<path d="M4113 6947 c-25 -11 -30 -29 -38 -137 -10 -128 -34 -203 -50 -157 -6
15 -13 113 -14 190 -1 88 -13 95 -154 95 -81 0 -119 -3 -126 -12 -14 -17 -19
-57 -26 -211 -8 -163 -11 -193 -20 -235 -7 -32 -8 -33 -22 -14 -8 10 -49 82
-91 159 -88 161 -127 209 -196 241 -67 31 -127 27 -345 -26 -229 -56 -225 -52
-217 -201 4 -69 3 -109 -4 -109 -9 0 -33 48 -81 158 -10 23 -25 45 -34 48 -13
5 -75 -41 -165 -124 -45 -42 -78 -54 -113 -43 -83 27 -120 20 -251 -45 -132
-66 -299 -192 -464 -350 -80 -77 -78 -80 59 -171 55 -37 98 -71 96 -77 -5 -14
-4 -14 -197 34 -215 54 -210 53 -210 38 0 -7 18 -40 40 -73 59 -88 56 -94 -47
-101 -69 -4 -132 -28 -171 -64 -11 -11 -56 -73 -99 -137 -42 -65 -80 -120 -83
-123 -14 -14 -52 -73 -60 -96 -9 -23 -6 -30 32 -68 24 -23 77 -71 118 -105 82
-69 120 -109 120 -128 0 -21 -15 -16 -165 57 -80 38 -150 70 -157 71 -67 8
-62 -22 10 -67 92 -58 105 -69 108 -91 5 -31 -26 -34 -104 -11 -37 11 -77 22
-89 25 -41 10 -73 -24 -123 -130 -26 -56 -68 -146 -94 -200 -63 -133 -64 -141
-29 -155 26 -10 143 -34 238 -47 22 -4 47 -8 55 -10 8 -2 31 -7 50 -10 19 -3
36 -8 39 -11 14 -14 -31 -17 -226 -19 -120 -1 -228 -5 -241 -9 -21 -7 -12 -16
90 -92 128 -96 145 -120 76 -110 -181 25 -199 22 -221 -37 -18 -46 -87 -317
-87 -340 0 -24 23 -36 81 -42 30 -3 68 -8 84 -10 17 -2 59 -7 95 -11 122 -12
100 -32 -106 -97 -77 -25 -155 -52 -172 -61 -43 -22 -65 -59 -68 -115 -8 -141
-8 -171 1 -180 6 -5 60 -12 120 -16 61 -3 126 -8 145 -10 19 -1 71 -6 116 -9
45 -4 99 -9 120 -11 21 -2 68 -6 104 -9 36 -3 97 -8 135 -11 70 -6 82 -7 225
-20 89 -8 109 3 133 75 15 44 169 455 186 495 4 11 41 103 81 205 40 102 97
235 127 295 49 97 160 290 184 319 5 6 29 38 54 71 86 114 109 140 230 261
176 177 335 291 548 392 147 71 419 145 654 177 25 4 97 15 126 21 126 23 515
22 637 -2 14 -2 45 -6 70 -9 98 -9 352 -67 540 -121 174 -51 250 -66 335 -67
134 -2 155 13 280 206 39 59 145 221 236 360 208 317 222 341 214 366 -3 11
-65 58 -138 105 -73 47 -137 88 -143 93 -5 4 -19 13 -30 19 -10 6 -56 35 -102
64 -45 29 -84 51 -85 49 -2 -2 -21 -56 -42 -119 -40 -121 -70 -190 -83 -190
-11 0 -31 57 -37 108 -12 95 -50 179 -107 233 -65 62 -165 97 -400 143 -13 2
-67 14 -122 26 -110 24 -119 26 -196 40 -105 19 -133 22 -229 24 -53 2 -106
-1 -118 -7z"/>
<path d="M3739 5536 c-2 -2 -39 -7 -82 -10 -43 -4 -100 -11 -125 -16 -26 -5
-58 -12 -72 -14 -171 -29 -418 -113 -603 -207 -332 -166 -606 -405 -789 -688
-164 -253 -353 -763 -454 -1226 -34 -156 -35 -155 71 -171 28 -4 55 -8 60 -10
6 -1 28 -5 50 -9 22 -4 60 -11 85 -17 109 -24 140 -26 149 -9 5 9 25 99 45
201 35 179 44 216 88 365 65 216 212 443 392 605 l27 25 -10 -27 c-5 -15 -14
-35 -20 -45 -5 -10 -16 -34 -24 -53 -45 -103 -57 -130 -80 -180 -14 -30 -51
-113 -82 -185 -32 -71 -68 -152 -80 -180 -13 -27 -84 -189 -159 -358 -75 -170
-146 -329 -157 -355 -40 -90 -61 -137 -141 -316 -44 -100 -88 -199 -98 -221
-10 -22 -73 -164 -140 -315 -66 -151 -127 -288 -135 -305 -40 -89 -135 -305
-135 -309 0 -2 159 -4 354 -4 259 0 356 3 359 11 3 7 170 423 371 926 l366
915 0 542 c0 469 -2 543 -15 554 -21 18 -19 25 13 41 15 7 30 15 33 17 4 1 9
-7 12 -20 3 -13 23 -89 46 -170 l41 -146 0 -464 0 -463 763 -571 762 -571 300
-153 c165 -84 377 -192 470 -240 158 -81 327 -168 812 -416 106 -54 194 -96
196 -93 4 4 149 433 165 489 6 19 33 102 61 183 28 82 51 153 51 157 0 5 -10
19 -22 32 -13 13 -68 73 -123 133 -54 61 -104 115 -110 121 -5 6 -48 53 -95
104 -47 51 -92 100 -100 109 -9 9 -61 65 -115 125 -55 61 -107 117 -115 126
-46 50 -207 225 -221 241 -13 16 -65 72 -210 230 -13 14 -59 64 -102 111 -115
127 -122 134 -222 243 -143 155 -133 145 -318 347 -12 13 -62 68 -112 122 -49
54 -101 110 -115 126 -227 250 -274 300 -279 300 -3 0 -26 -5 -51 -11 -25 -6
-52 -12 -60 -14 -8 -2 -35 -8 -60 -15 -25 -7 -52 -13 -60 -15 -8 -2 -44 -11
-80 -20 -36 -9 -72 -18 -80 -20 -8 -2 -36 -8 -61 -15 l-46 -12 -164 104 c-90
58 -199 126 -241 153 -43 27 -78 52 -78 56 0 4 12 9 28 12 15 3 61 12 102 20
222 45 460 52 700 22 120 -16 411 -94 515 -139 130 -57 174 -68 176 -43 0 6 2
20 4 29 2 9 6 35 9 58 13 94 96 243 173 310 43 38 138 101 261 174 88 53 111
71 102 81 -6 7 -21 15 -33 18 -12 3 -67 21 -122 42 -347 127 -573 191 -775
220 -25 3 -61 9 -80 12 -160 25 -219 30 -377 31 -99 1 -182 0 -184 -2z m463
-1683 c206 -211 534 -547 642 -657 53 -55 94 -101 92 -103 -2 -2 -30 4 -62 13
-32 8 -72 19 -89 24 -16 4 -178 49 -360 100 -181 50 -361 100 -400 111 -132
36 -130 35 -127 55 2 10 31 114 64 229 33 116 61 217 63 225 31 115 38 140 40
140 1 0 63 -62 137 -137z"/>
<path d="M2787 3108 c-32 -83 -192 -480 -202 -503 -7 -16 -72 -178 -144 -360
-73 -181 -136 -339 -141 -350 -28 -64 -120 -300 -120 -308 0 -9 126 -332 165
-422 7 -16 106 -264 220 -550 114 -286 211 -524 215 -528 10 -11 959 -12 970
-1 5 5 12 32 16 59 3 28 8 59 10 70 5 25 37 215 49 285 7 46 15 95 20 120 3
14 7 39 9 55 3 17 12 71 20 120 8 50 17 106 20 125 3 19 8 49 11 65 17 90 26
150 31 183 2 20 9 62 15 92 5 30 12 66 14 80 2 14 6 39 9 55 10 61 37 221 42
250 2 17 9 55 14 85 5 30 12 73 15 95 4 22 8 51 11 65 2 14 7 41 10 60 3 19 7
40 9 47 2 6 7 38 11 70 3 32 8 61 10 65 3 4 -285 224 -638 489 -354 265 -648
486 -654 491 -7 5 -14 4 -17 -4z"/>
</g>
</svg>
